<?xml version="1.0" encoding="UTF-8"?>
<!DOCTYPE svg PUBLIC "-//W3C//DTD SVG 1.1//EN" "http://www.w3.org/Graphics/SVG/1.1/DTD/svg11.dtd">
<!-- Creator: CorelDRAW -->
<svg xmlns="http://www.w3.org/2000/svg" xml:space="preserve" width="768.896mm" height="690.464mm" version="1.1" style="shape-rendering:geometricPrecision; text-rendering:geometricPrecision; image-rendering:optimizeQuality; fill-rule:evenodd; clip-rule:evenodd"
viewBox="0 0 88907.2 79838.13"
 xmlns:xlink="http://www.w3.org/1999/xlink"
 xmlns:xodm="http://www.corel.com/coreldraw/odm/2003">
 <defs>
  <style type="text/css">
   <![CDATA[
    .fil20 {fill:#FAAD62;fill-rule:nonzero}
    .fil5 {fill:#F69566;fill-rule:nonzero}
    .fil30 {fill:#F16C6E;fill-rule:nonzero}
    .fil26 {fill:#F16260;fill-rule:nonzero}
    .fil12 {fill:#F05D5C;fill-rule:nonzero}
    .fil11 {fill:#F8D859;fill-rule:nonzero}
    .fil23 {fill:#EEEEEE;fill-rule:nonzero}
    .fil6 {fill:#EFEAE4;fill-rule:nonzero}
    .fil28 {fill:#E5E4E3;fill-rule:nonzero}
    .fil0 {fill:#E2BE4E;fill-rule:nonzero}
    .fil13 {fill:#D15050;fill-rule:nonzero}
    .fil21 {fill:#D9D8D6;fill-rule:nonzero}
    .fil17 {fill:#CD9682;fill-rule:nonzero}
    .fil24 {fill:#D0D3D2;fill-rule:nonzero}
    .fil8 {fill:#CEB54D;fill-rule:nonzero}
    .fil7 {fill:#C4C6C7;fill-rule:nonzero}
    .fil15 {fill:#BFA346;fill-rule:nonzero}
    .fil25 {fill:#BBBABA;fill-rule:nonzero}
    .fil14 {fill:#ADB0B1;fill-rule:nonzero}
    .fil1 {fill:#7FA9B7;fill-rule:nonzero}
    .fil2 {fill:#70909D;fill-rule:nonzero}
    .fil4 {fill:#007D93;fill-rule:nonzero}
    .fil22 {fill:#007C90;fill-rule:nonzero}
    .fil27 {fill:#007A8E;fill-rule:nonzero}
    .fil10 {fill:#006C7E;fill-rule:nonzero}
    .fil29 {fill:#00687A;fill-rule:nonzero}
    .fil16 {fill:black;fill-rule:nonzero}
    .fil3 {fill:#F0D079;fill-rule:nonzero}
    .fil9 {fill:#F69E88;fill-rule:nonzero}
    .fil18 {fill:#FFCC00;fill-rule:nonzero}
    .fil19 {fill:#FFCC00;fill-rule:nonzero}
   ]]>
  </style>
 </defs>
 <g id="Layer_x0020_1">
  <metadata id="CorelCorpID_0Corel-Layer"/>
  <path class="fil0" d="M25618.4 30594.5c825.46,525.17 1422.58,1341.58 1671.59,2287.55 604.27,2295.85 1823.19,6614.36 2743.55,7856.31 1232.59,1662.72 5893.3,4669.87 6187.3,4858.76l5.67 25.17 -862.87 2221.81c-5.17,9.35 -100.94,-33.67 -400.54,-105.99 -464.68,-111.58 -9152.1,-4660.03 -10346.53,-8750.63l-0.61 -7.99 797.27 -8481.86 29.97 -14.52 175.23 111.4z"/>
  <path class="fil1" d="M26119.26 38442.31l2747.67 -1851.8c0,0 -1065.62,-5983.03 -3258.74,-6111.96l511.07 7963.76z"/>
  <path class="fil2" d="M26122.78 38439.9c249.88,-2558.1 113.73,-5809.45 -488.32,-7799.86 4.56,-50.35 9.72,-103.52 15.63,-158.24 2164.7,202.12 3216.84,6108.7 3216.84,6108.7l-2744.16 1849.39z"/>
  <path class="fil0" d="M36995.94 46059.56c0,0 1445.16,1052.38 3746.01,369.53 0,0 500.68,281.64 -103.58,450.76 -604.44,169.37 -3323.68,1276.04 -4016.07,856.35 0,0 -1729.38,944.43 -2662.12,899.07 0,0 1178.74,-445.28 1302.5,-824.84 123.53,-379.74 -648.32,-1227.17 -648.32,-1227.17l533.92 -1737.38 1847.67 1213.68z"/>
  <path class="fil3" d="M25621.85 31020.03c-36.49,-375.18 227.11,-1920.67 227.11,-1920.67 0,0 1431.68,-47.08 1620.57,-1449.92 188.7,-1402.82 338.32,-4658.55 338.32,-4658.55l-2496.07 -1453.41 -3003.63 1949.71 -728.21 1517.23 725.81 3708.46 -78.17 1851.18 3394.27 455.94z"/>
  <path class="fil4" d="M27527.08 25217.7c-7.15,99.65 -93.98,174.3 -193.45,167.17 -99.64,-7.15 -174.36,-93.8 -167.15,-193.44 7.13,-99.65 93.8,-174.61 193.44,-167.22 99.65,7.2 174.36,93.8 167.17,193.49z"/>
  <path class="fil4" d="M27541.84 25154.92c-24.99,21.73 -149.8,-101.36 -343.25,-125.92 -193.07,-27.32 -345.88,58.4 -364.35,31.08 -9.11,-12.43 18.21,-53.66 85.11,-92.75 65.79,-39.08 174.54,-70.96 295.05,-54.9 120.32,16.25 216.7,75.76 269.88,130.66 54.29,55.39 69.74,102.47 57.55,111.83z"/>
  <path class="fil4" d="M25317.87 24917.6c78.17,62.1 90.97,176.08 28.69,254.25 -62.1,78.17 -175.91,90.97 -254.06,28.68 -78.17,-62.28 -90.97,-176.08 -28.87,-254.06 62.53,-78.15 176.09,-90.97 254.25,-28.86z"/>
  <path class="fil4" d="M25389.51 24998.42c-24.93,21.66 -149.98,-101.19 -343.49,-125.75 -192.77,-27.32 -345.83,58.16 -364.11,30.84 -9.11,-12.37 18.03,-53.42 84.93,-92.69 65.98,-38.9 174.54,-71.02 295.05,-54.72 120.27,16.06 216.89,75.76 269.88,130.66 54.29,55.4 69.68,102.3 57.73,111.65z"/>
  <path class="fil4" d="M25970.76 26689.51c0.24,-11.69 122.9,-17.97 320.71,-18.64 49.92,1.1 97.67,-3.26 109.86,-37.36 15.39,-35.58 0.61,-93.98 -16.93,-157.19 -33.05,-131.16 -67.57,-268.16 -103.82,-412.12 -143.09,-585.99 -240.76,-1065.18 -218.18,-1070.85 22.58,-5.41 156.76,465.11 299.85,1050.9 33.86,144.39 66.66,282.25 97.49,413.84 12.37,60.99 37.54,131.59 4.13,205.81 -17.41,36.93 -56.68,60.13 -89.24,64.94 -32.8,5.84 -60.81,2.82 -85.37,1.28 -197.13,-14.34 -318.93,-29.1 -318.49,-40.62z"/>
  <path class="fil5" d="M24620.92 26680.23c-19.75,0 -39.94,-0.44 -60.13,-1.54 -300.29,-15.63 -542.16,-138.12 -539.15,-299 2.65,-151.35 233.63,-283.29 524.55,-283.29 16.5,0 33.24,0.43 50.16,1.28 313.95,15.63 553.48,179.1 536.75,338.26 -15.63,149.61 -238.87,244.28 -512.19,244.28z"/>
  <path class="fil6" d="M25316.14 26826.58c-187.16,-144.63 518.9,362.57 915.13,391.43 0,0 -269.88,333.52 -657,135.9 -401.65,-205.14 -258.13,-527.33 -258.13,-527.33z"/>
  <path class="fil7" d="M25793.13 29442.85l0 0c32.13,-204.71 55.83,-343.49 55.83,-343.49l0 0 -55.83 343.49z"/>
  <path class="fil8" d="M25793.13 29442.85c-1417.34,-44.26 -1765.39,-1109.69 -1765.39,-1109.69 871.56,707.78 1821.21,766.2 1821.21,766.2 0,0 -23.69,138.78 -56.01,343.49l0.19 0z"/>
  <path class="fil9" d="M21569.28 26554.29c346.75,873.22 532.19,2131.23 532.19,2131.23 194.3,398.88 314.57,-827.68 314.57,-827.68 0,0 227.96,-1174.36 83.15,-1641.62 0,0 -728.65,203.4 -838.27,-1093.43 -54.28,-640.95 921.23,-907.81 1152.03,-125.25l598.59 79.65c0,0 146.36,-2408.06 1513.36,-1907.81 0,0 978.77,660.45 1593,305.26 614.05,-354.99 576.26,-487.88 576.26,-487.88 0,0 262.25,645.5 1051.51,260.34 789.02,-384.97 920.79,-1123.4 667.22,-1489.04 -146.6,-211.48 -287.05,-445.96 -538.28,-501.97 -251.17,-55.83 -529.29,34.1 -700.39,226.24 200.57,-269.88 83.76,-689.99 -189.99,-884.97 -273.82,-195.22 -649.01,-196.08 -966.4,-85.36 -317.46,110.53 -590.17,318.32 -857.22,522.65 -156.33,-516.12 -686.74,-892.6 -1225.44,-870.26 -538.65,22.59 -1035.88,441.84 -1149.01,969.23 -275.29,-372.79 -828.53,-477.84 -1254.3,-294.62 -425.77,183.04 -718.25,607.53 -816.6,1060.44 -98.1,452.92 -21.47,929.48 136.4,1365.22 -315.06,-198.85 -768.41,-83.58 -998.1,210 -229.5,293.51 -248.64,717.57 -103.4,1061.06 144.83,343.24 433.41,610.78 757.57,794.43 -253.38,188.88 -343.73,566.9 -203.03,850.02 140.94,283.35 496.55,439.5 800.34,351.31l64.26 22.83z"/>
  <path class="fil8" d="M22452.53 25844.06c-18.65,0 -38.65,-2.16 -59.27,-6.96 -175.23,-46.9 -304.22,-271.6 -316.59,-514.34 -6.02,-123.09 19.76,-241.01 65.79,-337.4 40.86,-95.76 122.91,-182.79 215.6,-191.29 7.63,-0.86 15.45,-1.28 23.01,-1.28 36.06,0 69.31,10.82 93.8,29.72 28.68,22.59 43.45,50.84 48.87,74.48 9.98,46.9 -9.1,70.59 -14.1,70.59 -0.24,0 -0.43,0 -0.67,-0.24 -6.28,-1.98 0.67,-26.04 -16.06,-59.46 -13.05,-28.06 -47.34,-58.83 -95.52,-58.83 -9.35,0 -19.33,1.28 -29.73,3.87 -63.89,12.62 -119.46,75.33 -154.61,164.14 -36.92,87.28 -57.98,192.15 -52.74,301.83 10.4,217.07 121.55,417.04 249.88,461.35 24.56,8.49 48.62,11.93 70.78,11.93 34.95,0 65.11,-8.43 85.98,-18.45 32.12,-15.63 47.76,-32.56 54.28,-32.56 0.68,0 1.11,0.24 1.55,0.43 4.3,2.16 -1.55,29.3 -38.23,59.7 -27.14,22.15 -74.04,42.78 -132.01,42.78z"/>
  <path class="fil4" d="M18042.56 45534.15c0,0 83.58,-52.57 237.75,-146.98 1722.87,-1052.44 11137.02,-6189.08 14230.76,-4225.2 3627.9,2303 -1733.88,15898.72 -1733.88,15898.72l-4538.96 -1172.45c0,0 3709.32,-9512.52 1365.03,-9098.68 -1344.41,237.26 -8435.58,5452.31 -8435.58,5452.31l-7407.07 -2794.13 6281.95 -3913.59z"/>
  <path class="fil10" d="M28071.19 55229.02c-0.43,0 -0.86,0 -1.1,-0.19 -7.15,-4.8 29.73,-77.73 106.16,-211.72 79.7,-132.2 188.27,-331.73 326.82,-588.81 272.64,-516.55 627.65,-1286.44 958.15,-2277.21 328.04,-989.59 640.08,-2199.41 807.92,-3568.13 74.22,-683.04 165.86,-1412.8 28.18,-2129.49 -68.61,-354.82 -202.79,-707.41 -446.82,-970.34 -239.48,-267.47 -592.94,-418.39 -967.51,-430.33 -29.12,-1.3 -58.16,-1.98 -87.52,-1.98 -346.69,0 -694.74,86.85 -1027.15,198 -180.88,60.61 -358.26,131.15 -534.58,205 -175.84,73.79 -352.79,140.88 -522.4,220.59 -686.49,301.57 -1331.13,633.13 -1925.16,982.71 -1191.6,694.97 -2188.15,1446.45 -2975.88,2131.46 -790.56,683.48 -1375.5,1297.52 -1769.33,1730 -127.03,138.72 -234.74,258.8 -322.87,357.4 14.34,-56.69 28.68,-112.95 42.59,-167.84 59.88,-77.12 128.33,-162.18 206.25,-254.06 372.78,-454.4 942.76,-1091.89 1725.25,-1798.82 779.67,-708.71 1776.22,-1483.63 2975.82,-2198.18 598.42,-359.31 1248.89,-699.78 1943.08,-1008.5 171.71,-81.43 350.62,-150.24 528.68,-225.57 177.38,-74.89 359.55,-148.08 548.19,-211.46 346.99,-116.64 718.25,-212.4 1109.06,-212.4 32.56,0 65.18,0.68 97.92,1.97 212.34,9.54 426.89,52.99 624.02,140.09 197.38,85.73 373.03,216.89 515.7,371.68 288.29,313.95 432.49,711.71 504.99,1093.43 74.04,384.97 82.28,767.54 62.96,1136.39 -10.65,184.33 -28.62,363.68 -42.34,542.41 -20.37,177.56 -40.81,353.46 -60.57,527.14 -183.22,1385.65 -516.74,2604.13 -869.77,3597.24 -356.1,993.61 -739.72,1760.23 -1041.12,2266.56 -152.87,252.28 -275.97,444.68 -369.76,568.63 -87.46,120.94 -137.87,184.33 -147.84,184.33z"/>
  <path class="fil4" d="M11760.61 49447.74c0,0 -1.72,126.36 -5.85,353.03 -32.8,1928.92 -407.56,8745.89 -1527.02,10969.44 -449.23,892.53 -9882.9,15467.03 -9882.9,15467.03l4721.52 2489.3c0,0 9400.44,-12652.72 11147.42,-15441.61 714.12,-1140.33 4049.93,-14578.62 4049.93,-14578.62l-8503.09 741.44z"/>
  <path class="fil11" d="M30091.51 38244.07l299.18 -701.26c0,0 249.02,-394.76 526.28,-1168.82 71.89,-200.58 107.28,-412.49 107.71,-625.74 0.68,-258.8 -12.13,-602.48 -77.74,-788.1 -81.17,-230.18 159.41,-439.27 342.45,-314.2 182.97,125.07 422.08,753.64 349.51,1535.7 -72.5,782.07 792.72,-100.51 1113.62,-416.67 321.15,-315.91 1360.3,-1247.1 1535.96,-1225.63 256.83,32.13 270.31,313.52 -57.79,621.63 -331.98,311.78 -1246.5,1301.63 -1071.27,1462.95 172.21,159.15 1784.78,-1472.06 1784.78,-1472.06 0,0 288.33,-404.54 496.73,-224.77 376.29,324.6 -1465.78,1932.61 -1644.69,2081.13 -124.39,103.58 59.51,285.76 187.16,167.65 131.59,-121.62 1570.66,-1664.45 1956.73,-1337.71 296.1,250.56 -1502.71,1336.6 -1623.46,1822.51 -120.68,485.9 1280.6,-962.03 1553.74,-711.3 101.86,93.61 164.82,177.38 -760.16,892.79 -946.82,732.84 -3836.05,2300.42 -3836.05,2300.42l-1178.54 -1943.87 -4.13 45.36z"/>
  <path class="fil12" d="M3501.3 77837.45c0,0 2476.74,2125.55 1725.08,1994.89 -751.73,-131.16 -5226.38,-2912.05 -5226.38,-2912.05l355.92 -729.75 3145.38 1646.91z"/>
  <path class="fil12" d="M29987.26 56822.69c0,0 2837.15,1613.44 2074.41,1628.39 -762.98,15.21 -5686.18,-1860.04 -5686.18,-1860.04l209.74 -784.22 3402.03 1015.88z"/>
  <path class="fil1" d="M6743.18 66306.1l4907.14 3460.31 4563.46 -6481.48 -5644.52 -3398.22c0,0 -2985.18,5108.46 -3826.08,6419.39z"/>
  <path class="fil10" d="M13546.25 51187.1c-32.62,0 -64.31,-0.87 -94.72,-2.41 -319.36,-12.99 -507.38,-79.21 -502.58,-109.86 4.98,-37.97 197.14,-36.25 496.31,-68.13 299.42,-31.08 707.17,-110.97 1127.53,-286.44 419.25,-177.8 761.46,-413.58 992.68,-605.98 215.16,-177.8 345.03,-309.82 387.31,-309.82 3.26,0 6.09,0.86 8.24,2.64 25.42,17.98 -58.84,198.62 -272.47,436.18 -105.73,119.21 -247.97,246.87 -418.38,372.36 -172.39,122.47 -374.76,240.76 -599.71,336.77 -226.24,93.8 -452,155.66 -660.27,193.63 -168.88,27.57 -325.88,41.05 -463.93,41.05z"/>
  <path class="fil10" d="M1164.45 76613.9l-37.53 -19.45c20.8,-27.14 44.25,-57.35 70.52,-90.78 131.34,-163.28 320.72,-399.73 563.65,-702.6 491.38,-608.45 1202.24,-1489.06 2057.24,-2595.1 1213.7,-1568.01 2721.63,-3592.82 4301.4,-5929.11l200.4 141.37c-1592.14,2334.94 -3120.45,4347.19 -4361.78,5898.1 -874.32,1093.67 -1607.09,1958.27 -2122.1,2547.7 -256.22,296.15 -460.55,521.05 -600.14,672.81 -26.03,28.25 -50.16,54.1 -71.64,77.06zm10917.06 -15816.8l-212.76 -127.9c227.96,-630.73 404.04,-1259.91 532.8,-1878.08 375.87,-1799.91 365.64,-3473.3 354.75,-4867.44 -22.77,-1397.15 -46.65,-2531.64 -24.49,-3315 8.24,-391.67 22.77,-695.41 39.08,-901.46 9.35,-132.27 17.36,-224.09 24.31,-272.71 5.85,-1.98 11.94,-4.13 17.78,-6.28 4.56,46.65 7.39,141.31 8.93,280.71 0,206.05 1.11,509.35 8,900.17 8.24,781.89 59.09,1911.14 104.45,3311.12 33.47,1396.3 63.63,3084.63 -305.27,4917.54 -129.37,643.77 -310.69,1301.63 -547.58,1959.32z"/>
  <path class="fil13" d="M1013.97 76759.9c-0.43,0 -0.61,-0.24 -0.86,-0.5 -5.24,-4.49 33.84,-60.74 113.8,-164.95l37.53 19.45c-90.34,96.02 -141.55,145.99 -150.48,145.99z"/>
  <path class="fil2" d="M8320.12 67418.23l-200.4 -141.37c646.12,-955.56 1304.46,-1963.45 1959.26,-3013 551.95,-908.66 1049.36,-1820.29 1447.81,-2736.77 124.81,-285.76 238.61,-571.95 341.95,-857.89l212.76 127.9c-99.64,276.4 -208.88,552.8 -328.04,827.91 -401.47,931.69 -903,1854.57 -1459.07,2769.77 -658.73,1055.64 -1321.82,2066.59 -1974.27,3023.45z"/>
  <polygon class="fil1" points="26169.85,56011.95 30709.01,57184.22 31253.51,55706.24 26739.34,54456.07 "/>
  <polygon class="fil1" points="273.82,76359.04 5066.36,78726.54 6119.17,77305.25 1301.89,74757.36 "/>
  <path class="fil1" d="M11757.17 49512.68c0,0 -1425.84,-3747.55 2362.01,-9585.44 3787.92,-5838.21 5330.33,-9399.88 6151.05,-9547.47 821.14,-147.65 5334.45,163.71 5334.45,163.71 1137.92,3592.27 687.66,11579.91 -848.48,11713.65 0,0 -12197.89,8357.41 -12999.03,7255.55z"/>
  <path class="fil14" d="M25142.03 42041.52c206.43,-222.3 385.78,-605.3 536.5,-1104.51 0.19,0.43 0.19,0.24 0.44,0.68l-157.87 959.69c-126.6,47.33 -252.95,95.27 -379.07,144.13z"/>
  <path class="fil15" d="M25678.97 40937.7c-0.25,-0.44 -0.25,-0.25 -0.44,-0.68 0.44,-0.86 0.62,-2.15 1.05,-3.02l-0.61 3.7z"/>
  <path class="fil10" d="M23230.72 43577.04c-37.17,0 -73.85,-2.21 -109.92,-6.52 -60.14,-7.39 -110.47,-45.85 -151.96,-111.64 1082.11,-718.43 1787.36,-1201.75 1787.36,-1201.75 137.44,-11.94 266.19,-86.85 385.83,-215.6 126.12,-48.87 252.47,-96.81 379.07,-144.13l-42.96 261.2c0,0 -1282.32,1418.45 -2247.42,1418.45z"/>
  <path class="fil2" d="M22968.84 43458.88c-631.15,-1000.07 774.07,-8315.51 774.07,-8315.51 0,0 -156.15,6131.47 -48.44,6661.08 16.06,79.03 71.45,112.69 154.6,112.69 475.26,-0.24 1850.07,-1102.54 1850.07,-1102.54l-19.56 119.4c-0.43,0.87 -0.61,2.16 -1.05,3.02 -150.72,499.21 -330.06,882.21 -536.5,1104.51 -119.64,128.75 -248.4,203.66 -385.83,215.6 0,0 -705.25,483.32 -1787.36,1201.75z"/>
  <path class="fil9" d="M19816.26 30323.94c175.4,-97.73 4389.53,-76.19 3925.53,5261.7 -464.43,5337.96 -464.43,5337.96 -464.43,5337.96 0,0 1446.7,-1664.27 1499.64,-6345.84 29.35,-2567.46 -1855.07,-4795.74 -4399.75,-5137.75 -79.46,-10.59 -160.2,-20.37 -242.74,-28.87l-318.25 912.79z"/>
  <path class="fil9" d="M18621.22 42095.81c0,0 -2829.1,3349.77 -7693.95,2516.01l-1006.76 901.28c0,0 3526.29,2179.65 8765.4,-1980.37l-64.68 -1436.92z"/>
  <path class="fil10" d="M20232.68 49368.96c-45.18,0 -89.67,-1.11 -133.55,-3.26 104.88,-419.32 164.58,-659.4 164.58,-659.4l-1487.45 129.79c-503.08,-455.93 -821.83,-1176.14 -1005.05,-2055.27 818.32,-497.6 1647.04,-1017.6 2433.04,-1519.82l467.01 4076.45c-153.3,21.04 -298.74,31.51 -438.57,31.51z"/>
  <path class="fil10" d="M20099.13 49365.7c-539.94,-26.71 -975.51,-214.74 -1322.87,-529.61l1487.45 -129.79c0,0 -59.7,240.08 -164.58,659.4z"/>
  <path class="fil2" d="M17771.2 46780.82c-151.15,-724.08 -210.42,-1555.89 -205.44,-2434.58 363.92,-239.47 737.38,-509.53 1120.14,-813.51l-64.68 -1436.92c0,0 -345.89,409.28 -1003.33,906.02 262.32,-3827.79 1415.19,-7964.19 1415.19,-7964.19l1171.17 10223.36c-786,502.23 -1614.72,1022.22 -2433.04,1519.82z"/>
  <path class="fil13" d="M17565.76 44346.24c2.65,-438.76 21.04,-889.27 52.13,-1344.41 657.44,-496.73 1003.33,-906.02 1003.33,-906.02l64.68 1436.92c-382.76,303.98 -756.22,574.04 -1120.14,813.51z"/>
  <path class="fil3" d="M21761.68 31009.38c-263.42,37.54 -2603.1,1437.6 -2719.67,4925.85 -132.01,3956.62 -1076.5,9406.96 123.95,11862.66 275.11,562.53 662.42,967.68 1197.88,1161.8 2873.34,1042.84 12438.23,-9791.55 12438.23,-9791.55l-1885.1 -2794.13c0,0 -7072.7,7002.41 -7557.5,6173.87 -283.6,-484.43 563.39,-4536.57 530.16,-7707.79 -23.63,-2254.19 -492.19,-4063.21 -2127.96,-3830.7z"/>
  <path class="fil1" d="M21287.21 30882.59c0,0 -1914.76,1421.47 -2529.24,5550.73l5221.33 601.18c0,0 1383.93,-7510.85 -2692.09,-6151.91z"/>
  <polygon class="fil4" points="30300.58,36976.77 32606.41,39506.88 32070.1,39976.71 29738.24,37442.06 "/>
  <path class="fil6" d="M32004.37 38584.12c17.1,381.46 -278.19,704.51 -659.66,721.68 -381.46,17.17 -704.58,-278.12 -721.69,-659.59 -17.17,-381.71 278.12,-704.76 659.59,-721.75 381.46,-17.11 704.59,277.94 721.76,659.66z"/>
  <path class="fil4" d="M31734.24 38749.73c-4.37,21.73 -206.92,0.24 -460.06,-48.62l-76.87 -14.52 55.14 -56.01 25.43 -25.66c193.62,-194.99 363.67,-339.56 380.17,-323.06 16.67,16.49 -126.85,187.4 -320.28,382.13l-25.61 25.61 -21.73 -70.53c252.52,51.88 448.18,108.99 443.81,130.66z"/>
  <path class="fil9" d="M20377.25 29440.02c0,0 80.81,-966.4 -60.57,-1347 -141.13,-380.6 -1584.31,-1736.09 -3567.71,-1422.14 -4284.9,678.05 -3283.73,3858.45 -5306.44,6207.05 -2022.71,2348.17 -7777.53,11358.46 -26.95,13139.3l9027.89 -16333.79 -66.22 -243.41z"/>
  <path class="fil9" d="M9927.7 35563.49c0,0 -1688.57,-74.9 -2318.87,237.76 -630.3,312.47 -3038.84,4368.72 -1990.15,5494.71 1048.68,1126.18 2944.86,1406.52 2944.86,1406.52l1364.16 -7138.99z"/>
  <path class="fil12" d="M20504.1 28491.65c5.41,2.16 -16.93,69.24 -64.31,195.41 -49.05,125.49 -117.25,312.65 -218.86,547.39 -196.88,472.43 -506.52,1146.35 -930.15,1957.97 -422.08,812.9 -969.22,1756.28 -1598.85,2788.71 -629.86,1032.38 -1338.56,2155.35 -2050.72,3353.23 -1432.55,2395.68 -2788.04,4528.5 -3793.34,6055.95 -502.16,763.79 -915.81,1377.59 -1205.87,1798.38 -144.83,210.86 -259.48,373.03 -338.26,482.22 -78.84,108.99 -122.66,164.82 -127.46,161.56 -4.8,-3.26 29.54,-65.12 99.21,-180.21 74.28,-118.97 178.67,-286.38 312.04,-499.39 277.01,-436.17 672.64,-1059.08 1160.45,-1827.05 979.27,-1543.09 2317.83,-3683.9 3749.08,-6077.68 713.2,-1199.78 1426.71,-2321.89 2063.1,-3347.99 635.89,-1026.78 1191.96,-1960.62 1625.8,-2763.73 435.5,-801.64 760.52,-1465.35 975.26,-1928.48 110.78,-230.37 188.27,-412.98 247.11,-533.92 57.73,-121.79 90.35,-184.75 95.76,-182.36z"/>
  <path class="fil12" d="M9062.86 35588.05c-0.43,-10.65 163.1,-31.52 461.17,-49.49 296.59,-12.86 735.66,-38.03 1267.17,80.94 263.97,59.76 549.91,169.19 815.49,353.7 263.35,182.86 518.89,443.14 653.74,792.28 140.02,348.73 121.38,759.73 7.39,1134.48 -112.69,379.31 -298.31,735.79 -489.84,1095.78 -389.53,719.53 -836.97,1361.59 -1290.14,1905.9 -450.09,541.72 -908.85,1008.56 -1390.87,1269.51 -478.71,267.05 -940.55,311.11 -1238.87,270.74 -150.67,-19.32 -264.03,-54.03 -337.4,-84 -73.42,-30.84 -108.99,-52.31 -107.08,-57.31 5.47,-15.62 157.86,57.55 450.33,76.2 288.77,19.32 725.19,-41.49 1174.17,-308.78 453.16,-261.82 890.02,-721.69 1330.08,-1264.71 440.79,-542.59 878.08,-1178.3 1261.94,-1887.62 189.56,-355.43 372.36,-706.56 479.63,-1062.41 109.62,-354.14 126.36,-721.08 6.09,-1032.38 -116.2,-313.09 -345.7,-557.8 -589.31,-733.88 -246.18,-177.8 -511.94,-287.49 -764.03,-352.42 -507.2,-129.18 -941.9,-123.53 -1237.13,-130.48 -297.02,-2.41 -462.03,-3.69 -462.52,-16.06z"/>
  <path class="fil12" d="M11523.1 39045.89c6.04,15.88 -296.41,148.32 -822.01,197.19 -520.24,51.44 -1274.31,-13.48 -2005.78,-368.05 -731.73,-354.99 -1249.76,-906.7 -1531.58,-1346.82 -287.24,-443.13 -370.63,-762.74 -354.31,-767.54 26.71,-11.94 148.69,287.48 451.81,699.59 298.74,410.58 807.92,924.3 1507.44,1263.67 699.17,338.68 1417.84,420.29 1925.23,400.54 511.33,-17.11 822.01,-106.78 829.2,-78.59z"/>
  <path class="fil12" d="M15552.41 31276.24c-1.48,20.8 -169.13,34.1 -436.86,-4.56 -266.8,-37.6 -632.45,-137.85 -1001.11,-327.23 -368.48,-190.62 -662.23,-430.34 -847.85,-625.74 -186.55,-196.03 -272.71,-340.23 -256.65,-353.03 38.22,-35.39 469.84,468.37 1181.38,829.39 706.49,370.01 1367.62,429.73 1361.1,481.17z"/>
  <path class="fil12" d="M15363.77 31333.97c15.19,-10.83 92.43,101.43 32.73,288.77 -29.29,89.93 -92.26,189.32 -194.73,265.32 -99.21,76.44 -249.93,130.48 -405.4,93.8l-20.37 -4.31 -101 -21.1 48.44 -97.24c117.68,-236.03 277.27,-417.1 407.13,-525.85 130.66,-109.67 227.96,-152.64 241.01,-135.1 30.35,37.8 -283.78,298.32 -497.47,735.86l-52.5 -118.36 12.8 2.41c96.19,23.26 199.96,-5.42 278.81,-57.31 80.74,-50.16 138.91,-119.64 173.68,-184.33 72.75,-131.16 50.6,-236.46 76.88,-242.56z"/>
  <path class="fil12" d="M20493.88 28261.72c8.26,5.84 -49.48,105.55 -172.64,272.96 -123.27,167.15 -318.25,398.39 -592.75,651.53 -273.57,253.82 -635.89,520.44 -1079.26,744.09 -222.98,108.82 -464.87,206.73 -723.67,285.77 -259.23,75.95 -534.34,131.52 -818.99,163.71 -1146.85,125.92 -2182.3,-180.64 -2838.01,-525.66 -331.97,-171.54 -580.99,-343.73 -742.31,-474.65 -161.56,-131.16 -241.63,-213.87 -234.92,-221.69 19.33,-26.04 366.08,280.34 1029.36,589.49 654.61,310.5 1660.34,587.09 2767.42,465.28 274.87,-31.01 540.2,-83.33 791.18,-154.35 249.93,-74.29 484.86,-165.87 702.17,-267.05 432.3,-208.9 791.18,-457.29 1068.7,-694.18 555.82,-475.02 818.31,-855.86 843.73,-835.24z"/>
  <path class="fil12" d="M18345 29881.42c5.23,3.08 -19.76,59.27 -71.64,163.71 -56.44,109 -134.79,260.78 -234.24,453.16 -205.62,392.55 -512.86,954.89 -900.18,1646.18 -774.93,1381.34 -1882.69,3270.49 -3193.45,5302.57 -1312.47,2032.01 -2577.67,3819.79 -3517.36,5094.97 -470.27,637.26 -856.28,1149.01 -1129.25,1497.91 -134.41,169.99 -240.15,303.74 -316.52,400.11 -73.85,90.35 -114.91,136.14 -119.47,132.7 -4.54,-3.52 27.39,-56.25 92.33,-152.89 70.09,-100.93 167.58,-240.76 291.11,-418.82 260.16,-366.07 629.93,-887.12 1085.43,-1528.74 914.52,-1291.86 2162.3,-3087.46 3472.61,-5116.46 1308.35,-2028.75 2430.89,-3905.16 3231.66,-5270.62 397.1,-679.16 719.3,-1230.87 945.97,-1618.85 111.15,-185.87 198.67,-332.17 261.64,-437.72 61.42,-99.21 96.38,-150.05 101.37,-147.22z"/>
  <path class="fil0" d="M83369.31 14195.35l281.63 -660.27c0,0 234.5,-371.74 495.88,-1100.39 67.59,-188.88 100.76,-388.67 101.19,-589.49 0.67,-243.41 -11.52,-567.14 -73.37,-741.94 -76.19,-216.64 150.48,-413.34 322.63,-295.67 172.21,117.68 397.34,709.5 328.97,1445.79 -68.2,736.46 746.42,-94.67 1048.68,-392.11 302.26,-297.7 1280.77,-1174.43 1446.03,-1154 242.12,29.97 254.67,294.81 -54.29,585.12 -312.65,293.57 -1173.75,1225.44 -1008.93,1377.65 162.36,149.81 1680.7,-1386.08 1680.7,-1386.08 0,0 271.42,-380.85 467.87,-211.53 354.14,305.52 -1380.23,1819.31 -1548.69,1959.32 -117.24,97.3 56.01,269.01 176.09,157.86 123.95,-114.4 1478.76,-1567.21 1842.5,-1259.73 278.99,235.98 -1415.01,1258.63 -1528.55,1716.09 -113.8,457.48 1205.44,-905.83 1462.76,-669.55 95.71,88.13 155.22,166.91 -715.66,840.65 -891.75,690 -3612.02,2165.81 -3612.02,2165.81l-1109.5 -1830.33 -3.93 42.78z"/>
  <path class="fil0" d="M65914.08 9586.28c0,0 7671.36,5072.14 11525.87,5083.46 4265.39,12.56 7027.59,-2345.34 7027.59,-2345.34l1766.5 2558.97c0,0 -4346.76,3846.94 -11305.47,3480.68 -3879.13,-204.09 -8337.72,-3338.89 -8337.72,-3338.89l-676.77 -5438.88z"/>
  <polygon class="fil1" points="72661.57,7298.66 77522.06,42922.19 78006.86,42900.22 74025.31,6890.49 "/>
  <path class="fil9" d="M72370.4 7295.4l1953.66 -552.74c0,0 -52.07,288.53 -97.67,469.41 -45.42,180.82 355.43,3131.29 355.43,3131.29l-1589.38 446.83c0,0 -330.62,-3024.93 -400.36,-3164.96 -70.09,-139.83 -221.69,-329.82 -221.69,-329.82z"/>
  <polygon class="fil16" points="77605.45,42842.92 77833.41,44347.35 77994.05,44340.22 77923.71,42782.79 "/>
  <path class="fil9" d="M54042.32 24235.68c0,0 64.5,3485.84 786.69,6614.55 535.82,2320.17 1190.85,7940.37 1190.85,7940.37l-12505.24 12405.43 3402.02 2919.81c0,0 13671.5,-11152.84 14547.6,-13814.1 737.32,-2239.41 -364.6,-10729.03 -364.6,-10729.03 0,0 5990.41,1311.86 5496.69,3442.9 -488.12,2104.32 -3594.05,10367.95 -3594.05,10367.95l4421.91 1585.24c0,0 5579.78,-14079.04 4200.4,-15642.51 -1397.34,-1583.27 -8036.69,-5197.45 -8036.69,-5197.45 0,0 -5972.82,-4390.63 -9545.56,106.85z"/>
  <path class="fil4" d="M67923.56 10322.05c0,0 1889.84,1717.88 3527.16,2634.61l-2315.18 4186.49 -2139.1 -1200.64 927.13 -5620.46z"/>
  <path class="fil10" d="M69135.53 17143.15l-1682.92 -944.49c596.63,-1390.87 998.35,-2522.28 947.32,-2951.75 -73.18,-615.96 -364.11,-1795.37 -273.57,-2744.84 530.4,464.43 2008.8,1718.06 3324.35,2454.59l-2051.15 3708.83 -264.03 477.65z"/>
  <path class="fil17" d="M71778.57 16129.86l281.57 -660.27c0,0 234.49,-371.74 495.69,-1100.39 67.52,-188.88 100.93,-388.6 101.43,-589.49 0.61,-243.35 -11.52,-566.9 -73.42,-741.87 -76.44,-216.71 150.24,-413.41 322.43,-295.73 172.39,117.68 397.35,709.56 329.15,1445.84 -68.37,736.46 746.25,-94.72 1048.69,-392.17 302,-297.64 1280.59,-1174.37 1445.83,-1154 242.07,29.97 254.69,295.11 -54.28,585.18 -312.66,293.77 -1173.56,1225.39 -1008.74,1377.59 162.17,149.87 1680.7,-1386.08 1680.7,-1386.08 0,0 271.42,-380.85 467.69,-211.48 354.14,305.52 -1380.24,1819.25 -1548.74,1959.32 -117.25,97.49 56.07,269.01 176.32,157.8 123.77,-114.59 1478.59,-1567.14 1842.27,-1259.47 278.98,235.78 -1414.95,1258.43 -1528.51,1715.9 -113.55,457.48 1205.88,-905.83 1462.96,-669.61 95.71,88.13 155.04,166.97 -715.84,840.72 -891.5,689.99 -3611.59,2165.74 -3611.59,2165.74l-1109.74 -1830.33 -3.87 42.78z"/>
  <path class="fil4" d="M64967.01 2208.05c-1004.19,667.41 -2328.85,393.65 -3521.49,217.14 -1192.64,-176.76 -2642.36,-116.38 -3293.51,898.45 -409.28,638.1 -371.68,1490.95 -798.13,2117.8 -880.86,1294 -2917.48,781.82 -4343.06,1428.85 -1025.91,465.48 -1681.63,1571.09 -1761.27,2694.92 -79.7,1123.77 360.6,2243.72 1053.42,3131.97 1429.97,1833.15 3907.57,2700.76 6215.8,2423.49 2308.41,-277.26 4419.07,-1604.32 5900.05,-3396.42 1481.17,-1792.1 2369.66,-4019.58 2825.84,-6299.37 169.12,-846.94 267.47,-1783.18 -176.58,-2524.01 -444.18,-740.58 -1642.3,-1046.71 -2169.02,-362.38l67.96 -330.45z"/>
  <path class="fil4" d="M62492.29 10289.75c-2162.97,2983.01 -8950.41,12563.05 -8495.76,14696.48 0,0 5304.29,-3793.52 9366.4,-421.23 0,0 5213.27,-9836.86 5037,-11318.09 -73.18,-615.96 -364.35,-1795.37 -273.57,-2745.08 112.25,-1176.08 -1015.95,-1993.61 -2529.92,-1928.24 -1240.15,53.85 -2375.5,711.28 -3104.15,1716.15z"/>
  <path class="fil18" d="M46654.38 53639.71c0,0 1656.39,2811.93 987.44,2445.23 -668.94,-366.94 -4004.13,-4445.1 -4004.13,-4445.1l572.32 -575.65 2444.36 2575.52z"/>
  <path class="fil19" d="M66741.14 44588.8c0,0 2839.49,1609.31 2076.74,1625.37 -762.98,16.32 -5689.01,-1851.37 -5689.01,-1851.37l208.46 -784.47 3403.81 1010.46z"/>
  <path class="fil3" d="M68074.91 10315.16c69.67,-370.44 673.5,-1587.83 673.5,-1587.83 0,0 1387.63,355.18 1961.23,-938.82 573.25,-1294.07 1627.78,-4378.03 1627.78,-4378.03l-1990.16 -2093.31 -3029.06 1268.47 -2125.81 6269.34 2882.52 1460.18z"/>
  <path class="fil4" d="M68637.01 3221.6c1.72,9.29 -109.43,16.06 -291.18,85.73 -177.99,69.05 -433.35,222.31 -610.29,520.87 -86.65,147.65 -153.49,328.72 -166.29,529.79 -11.52,199.96 19.32,420.36 122.22,621.61 98.54,201.94 263.12,386.89 476.13,507.82 210.61,125.55 470.09,180.88 728.21,155.89 258.19,-30.16 499.82,-139.16 679.41,-306.31 182.61,-163.52 304.16,-379.13 357.77,-597.31 58.22,-218.67 41.49,-440.55 -11.94,-633.37 -54.89,-194.11 -158.91,-356.72 -274.61,-482.88 -236.22,-254 -518.04,-349.77 -706.74,-379.5 -122.66,-19.15 -211.72,-19.15 -260.34,-19.15 -27.58,0 -42.1,0 -42.34,-3.19 -0.19,-3.09 26.53,-7.39 78.41,-13.05 51.88,-6.71 129.81,-8.49 228.59,3.02 194.97,20.43 491.99,109.86 745.81,371.07 124.01,129.61 236.71,299.41 298.13,503.75 59.7,202.98 79.89,438.14 20.19,671.96 -54.9,232.76 -183.23,463.81 -377.33,639.22 -191.1,179.53 -449.9,297.45 -725.88,329.39 -276.34,27.14 -554.04,-33.49 -778.81,-168.28 -226.85,-130.53 -401.21,-328.95 -504.12,-545.23 -107.71,-215.36 -137.68,-449.66 -122.05,-660.71 16.5,-212.94 90.78,-402.51 184.58,-555.39 192.77,-308.95 464,-459.19 650.05,-520.61 94.48,-31.95 170.85,-46.71 222.98,-51.27 51.88,-5.41 79.28,-6.96 79.46,-3.87z"/>
  <path class="fil4" d="M71969.6 4321.74c-2.83,9.11 -105.06,-34.34 -298.74,-52.99 -190.23,-17.78 -487.26,5.41 -778.8,193.44 -143.35,93.8 -284.23,225.63 -385.22,400.17 -99.65,173.69 -170.43,384.55 -167.84,610.79 -2.15,224.46 62.53,463.5 199.35,666.98 132.44,206.24 339.55,371.49 582.1,464.43 244.28,88.13 509.18,98.54 744.53,29.12 236.39,-64.75 441.59,-203.47 586.84,-374.76 149.61,-169.81 233.87,-375.87 271.85,-572.14 37.54,-198.42 17.17,-390.15 -29.97,-554.78 -98.35,-332.84 -307.67,-544.32 -463.32,-655.03 -158.92,-112.69 -264.65,-146.55 -260.78,-155.22 0.87,-2.83 26.9,5.41 76.01,23.45 49.29,17.17 119.83,50.35 203.22,104.62 165.2,105.56 391,318.07 501.54,665.07 53.18,171.28 78.59,373.22 42.1,583.58 -37.12,208.46 -123.95,427.99 -281.58,610.35 -153.06,184.15 -371.06,333.52 -623.15,403.87 -251.23,75.33 -535.39,65.11 -796.41,-29.36 -259.66,-98.97 -481.1,-277.01 -622.04,-498.03 -144.81,-218 -212.15,-473.54 -208.03,-712.83 0,-241.01 77.74,-464 185.87,-645.92 109.86,-183.04 260.77,-319.61 412.97,-414.52 310.5,-190.6 620.33,-204.09 814.19,-175.65 98.78,13.3 173.93,34.34 222.37,53.42 48.81,18.28 73.79,29.12 72.93,31.95z"/>
  <path class="fil4" d="M70369.66 5155.44c-8.07,21.73 -127.04,-2.15 -265.34,-53.79 -138.54,-51.46 -244.27,-110.97 -236.02,-132.7 8.06,-21.73 126.79,2.41 265.32,53.86 138.29,51.7 244.28,110.96 236.03,132.63z"/>
  <path class="fil4" d="M67620.02 4133.03c-8,21.73 -282.93,-60.37 -614.24,-183.47 -331.12,-123.09 -593.18,-240.58 -585.12,-262.25 8.26,-21.97 283.3,60.32 614.42,183.47 331.12,123.1 593,240.53 584.94,262.25z"/>
  <path class="fil4" d="M66742 3446.05c0,0 2260.65,606.23 3383.81,-1232.58l1556.32 3069.68c0,0 1264.95,-1200.03 459.44,-3052.75 -805.51,-1852.66 -1811.86,-1904.55 -2326.87,-2095.83 -480.06,-178.73 -3098.79,-566.47 -4848.12,1926.7 -126.78,180.64 -249.26,376.48 -365.64,588.62l2141.07 796.16z"/>
  <path class="fil4" d="M71243.98 5537.59c-34.71,93.6 -138.98,141.37 -232.52,106.41 -93.61,-34.71 -141.38,-138.73 -106.41,-232.53 34.77,-93.6 138.96,-141.11 232.58,-106.4 93.56,34.77 141.31,138.96 106.36,232.52z"/>
  <path class="fil4" d="M71476.74 5413.87c-29.97,13.85 -115.53,-139.22 -294.18,-216.94 -177.82,-80.07 -348.73,-40.56 -358.69,-72.07 -5.23,-14.52 32.56,-46.47 107.71,-65.37 74.04,-18.89 187.59,-19.32 298.5,29.97 110.97,49.05 186.97,133.31 222.55,200.83 36.74,68.38 38.22,117.92 24.12,123.58z"/>
  <path class="fil4" d="M69279.92 4807.21c-34.77,93.56 -138.98,141.37 -232.33,106.6 -93.8,-34.95 -141.55,-138.98 -106.6,-232.52 34.77,-93.61 138.96,-141.37 232.52,-106.6 93.61,34.95 141.37,138.91 106.41,232.52z"/>
  <path class="fil4" d="M69454.03 4661.71c-29.97,13.73 -115.71,-139.15 -294.38,-216.89 -177.86,-80.13 -348.53,-40.81 -358.5,-72.31 -5.42,-14.34 32.36,-46.22 107.7,-65.11 74.05,-18.89 187.17,-19.33 298.31,29.97 111.15,49.05 186.98,133.06 222.55,200.83 36.69,68.37 38.47,117.68 24.32,123.52z"/>
  <path class="fil4" d="M69539.15 6447.79c3.69,-11.08 123.09,17.17 313.09,71.64 47.57,14.95 94.65,24.55 115.7,-5 25.24,-29.97 27.39,-90.1 28.25,-155.46 4.81,-135.28 9.98,-276.59 15.21,-424.92 26.47,-602.47 66.9,-1089.91 90.11,-1089.06 23.01,1.05 20.43,490.22 -6.09,1092.76 -7.57,148.33 -14.96,289.44 -21.91,424.48 -5.24,62.1 -1.11,137.01 -53.86,198.86 -26.9,30.65 -71.2,41.92 -103.58,37.36 -33.42,-3.45 -59.45,-14.1 -82.28,-22.58 -185.38,-68.81 -298.07,-117.01 -294.62,-128.08z"/>
  <path class="fil20" d="M68337.4 6344.88c-97.73,0 -210.61,-20.18 -325.27,-59.7 -283.79,-99.03 -481.78,-284.22 -434.03,-438.2 31.27,-100.69 166.54,-161.31 340.04,-161.31 89.67,0 189.51,16.32 290.68,51.46 297.27,102.97 481.35,326.8 420.79,475.08 -36.43,88.8 -148.08,132.69 -292.22,132.69z"/>
  <path class="fil6" d="M68872.36 6396.33c-139.16,-191.29 396.91,493.3 769.26,631.84 0,0 -352.59,244.65 -668.7,-53.42 -328.53,-309.21 -100.56,-578.41 -100.56,-578.41z"/>
  <path class="fil0" d="M68748.4 8727.33c0,0 -895.62,-321.58 -1534.41,-1244.78 0,0 36.06,1119.9 1384.35,1558.97l150.05 -314.19z"/>
  <path class="fil4" d="M68126.36 10501.83c-56.01,820.1 406.63,1922.83 620.32,2716.46 153.07,568.38 373.89,1169.37 186.3,1727.17 -209.32,622.28 -967.75,996.8 -1588.94,784.65l-262.25 -1932.55 1044.56 -3295.73z"/>
  <path class="fil12" d="M56997.58 24647.3c18.89,8.93 -23.88,158.72 -143.28,379.3 -118.54,220.16 -321.59,506.6 -601.25,770.38 -280.27,263.1 -578.41,448.37 -805.51,553.23 -227.54,105.74 -379.74,139.59 -387.31,119.84 -20.86,-47.15 543.02,-286.19 1077.8,-795.54 540.63,-502.41 813.95,-1050.66 859.56,-1027.21z"/>
  <path class="fil12" d="M55270.17 26390.59c2.58,-0.86 11.93,24.93 26.95,76.2 15.39,54.7 36.25,130.48 63.15,228.21 54.29,200.83 130.05,498.03 224.09,881.95 187.34,767.73 447.68,1881.35 733.64,3265.46 287.05,1383.74 599.46,3037.55 894.75,4882.88 70.78,461.78 143.52,935.13 217.75,1418.39 69.72,482.46 152.2,983.81 122.29,1504.86 -15.21,259.3 -61.68,523.27 -153.74,774.07 -90.11,251.23 -217.14,489.17 -368.48,710 -301.33,444.42 -685.44,825.46 -1067.59,1204.14 -3063.58,3036.87 -5947.39,5671.84 -8074.29,7531.95 -1062.6,930.76 -1933.48,1671.79 -2540.51,2177.5 -302.68,254 -540.87,447.26 -702.61,578.17 -79.26,62.78 -141.13,111.4 -185.62,146.54 -42.34,32.56 -64.93,48.01 -66.9,45.6 -1.97,-1.97 17.17,-21.91 56.01,-58.59 41.92,-38.23 99.89,-91.21 174.54,-159.41 158.98,-140.26 388.05,-342.62 682.24,-601.86 593.62,-520.61 1452.12,-1275.11 2504.25,-2216.76 2105.44,-1882.02 4973.61,-4528.08 8034.61,-7562.37 382.08,-378.44 758.37,-752.96 1047.58,-1178.98 294.61,-422.08 473.35,-903.61 495.94,-1399.99 30.16,-496.12 -48.01,-988.74 -116.64,-1471.63 -72.31,-483.32 -142.85,-956.18 -211.65,-1417.6 -286.62,-1844.22 -586.73,-3498.21 -858.52,-4883.68 -270.74,-1385.47 -513.05,-2502.1 -680.7,-3274.02 -83.39,-383 -148.26,-681.93 -193.25,-888.85 -20.19,-99.27 -35.82,-176.08 -47.08,-231.91 -9.54,-52.55 -13.04,-79.7 -10.21,-80.32z"/>
  <path class="fil12" d="M60609.6 27242.14c20.43,-8.68 98.17,117.43 181.93,339.36 83.83,221.44 169.62,537.55 231.91,891.07 123.34,708.65 128.33,1290.57 85.11,1294.25 -48.87,4.56 -129.18,-567.76 -250.55,-1264.77 -61.25,-348.47 -127.03,-660.7 -180.02,-885.84 -52.94,-225.13 -90.54,-364.78 -68.38,-374.07z"/>
  <path class="fil12" d="M64050.33 43759.16c-5.23,-2.15 16.93,-70.96 64.26,-199.72 50.6,-133.12 122.23,-320.72 213.44,-560.19 186.92,-485.73 456.79,-1188.71 774.94,-2062.84 639.15,-1746.99 1446.45,-4188.28 2179.4,-6930.29 185.26,-682.24 364.79,-1357.27 321.15,-2010.58 -10.82,-162.18 -40.18,-320.04 -82.28,-472 -44.49,-151.78 -109.25,-294.2 -185.87,-427.75 -74.04,-113.98 -199.72,-214.48 -323.49,-302.87 -124.63,-90.1 -255.78,-171.1 -386.94,-248.15 -527.57,-305.94 -1058.22,-552.37 -1554.59,-778.8 -498.46,-223.91 -967.25,-422.52 -1397.34,-598.85 -860.72,-351.99 -1564.82,-618.61 -2052.69,-798.8 -240.58,-86.85 -429.22,-155.04 -563.02,-203.66 -129.18,-45.79 -197.13,-69.05 -195.59,-75.33 1.3,-4.98 72.74,7.39 205.62,43.01 132.63,35.82 326.56,93.56 574.29,174.3 495.69,161.37 1207.16,411.69 2075.64,750.19 434.03,169.56 906.94,362.38 1409.59,581.66 501.53,222.31 1036.06,464.61 1576.07,772.53 134.36,77.91 269.21,159.78 400.8,253.82 130.72,93.97 264.46,191.47 368.9,347.79 84.87,145.25 155.89,300.72 204.7,464.68 46.29,164.56 78.41,334.12 90.35,506.27 48.01,692.83 -138.72,1383.93 -323.06,2066.16 -734.31,2747.42 -1561.8,5189.39 -2230.5,6928.31 -332.65,870.02 -619.89,1567.22 -825.27,2045.73 -102.29,239.67 -186.12,424 -243.17,548.87 -57.11,124.38 -90.1,188.89 -95.34,186.49z"/>
  <polygon class="fil12" points="43514.61,51196.03 46916.63,54115.84 48150.76,53096.69 44721.59,49998.39 "/>
  <polygon class="fil12" points="63002.27,43383.54 67424.18,44968.78 67900.11,43737.49 63461.28,42150.96 "/>
  <path class="fil21" d="M54020.84 24178.74c-2.58,0 -4.3,-0.61 -5.17,-1.72 -3.26,-4.98 15.39,-24.99 54.29,-57.29 -4.19,15.63 -8.06,31.44 -11.76,47.07 -18.21,7.82 -30.58,11.94 -37.36,11.94z"/>
  <path class="fil22" d="M54058.2 24166.8c3.7,-15.63 7.57,-31.44 11.76,-47.07 98.34,-82.54 325.88,-245.39 655.03,-446.4 458.33,-280.53 1120.58,-625.31 1889.6,-917.16 769.02,-290.5 1493.6,-470.45 2022.71,-564.06 404.91,-71.64 694.98,-99.46 810.07,-99.46 35.39,0 54.47,2.65 55.14,7.39 3.46,25.67 -322.19,85.8 -840.72,208.46 -518.65,122.23 -1228.46,318.07 -1987.94,604.69 -759.04,288.35 -1420.6,611.65 -1890.27,863.5 -372.78,199.53 -628.75,348.23 -725.38,390.13z"/>
  <path class="fil22" d="M55402.85 22487.58c-8.3,0 -12.86,-1.48 -14.15,-4.56 -7.82,-19.93 215.6,-133.49 595.59,-273.75 379.31,-140.27 917.09,-300.29 1525.29,-413.84 608.14,-112.69 1167.65,-156.76 1571.95,-162.17 39.08,-0.44 76.87,-0.68 113.12,-0.68 337.58,0 541.24,22.78 541.05,42.1 0.43,51.7 -995.94,59.27 -2195.29,285.94 -1125.55,205.87 -2015.15,526.96 -2137.56,526.96z"/>
  <path class="fil23" d="M64409.9 8842.86c0,0 -1084.33,-1655.6 -2710.31,-1112.58 -1626.05,543.02 -9616.1,6052.7 -8032.63,8692.23 1583.46,2639.59 3316.54,1981.05 3316.54,1981.05 0,0 5297.95,-8923.7 7426.41,-9560.7z"/>
  <path class="fil24" d="M57253.98 17955.19c0,0 2159.53,480.74 3823.31,316.59l51.27 -897.16c0,0 -2804.6,355.62 -3199.29,-510.71l-961.84 1042.23 286.55 49.05z"/>
  <path class="fil3" d="M71778.57 16129.86l281.57 -660.27c0,0 234.49,-371.74 495.69,-1100.39 67.52,-188.88 100.93,-388.6 101.43,-589.49 0.61,-243.35 -11.52,-566.9 -73.42,-741.87 -76.44,-216.71 150.24,-413.41 322.43,-295.73 172.39,117.68 397.35,709.56 329.15,1445.84 -68.37,736.46 746.25,-94.72 1048.69,-392.17 302,-297.64 1280.59,-1174.37 1445.83,-1154 242.07,29.97 254.69,295.11 -54.28,585.18 -312.66,293.77 -1173.56,1225.39 -1008.74,1377.59 162.17,149.87 1680.7,-1386.08 1680.7,-1386.08 0,0 271.42,-380.85 467.69,-211.48 354.14,305.52 -1380.24,1819.25 -1548.74,1959.32 -117.25,97.49 56.07,269.01 176.32,157.8 123.77,-114.59 1478.59,-1567.14 1842.27,-1259.47 278.98,235.78 -1414.95,1258.43 -1528.51,1715.9 -113.55,457.48 1205.88,-905.83 1462.96,-669.61 95.71,88.13 155.04,166.97 -715.84,840.72 -891.5,689.99 -3611.59,2165.74 -3611.59,2165.74l-1109.74 -1830.33 -3.87 42.78z"/>
  <path class="fil25" d="M65572.13 20246.25c-2.58,0 -5.23,0 -8,-0.19 91.15,-185.25 182.98,-372.59 274.87,-561.3l-239.3 560.2c-9.54,0.86 -18.65,1.28 -27.58,1.28z"/>
  <path class="fil10" d="M65564.12 20246.06c-57.79,-1.78 -99.88,-22.4 -124.44,-64.06 -183.47,-313.52 136.39,-2215.05 343.73,-4343.32 -5.47,1671.84 0.87,3572.51 56.2,3844.61l-0.61 1.47c-91.89,188.71 -183.72,376.05 -274.87,561.3z"/>
  <path class="fil26" d="M62496.18 26604.45c-1606.92,-0.43 -2280.23,-1455.63 -2459.57,-3411.01 318.32,27.82 639.03,79.46 959.69,159.83 101.18,687.59 260.09,1291.18 495.25,1771.91 258.8,529.55 623.78,911.01 1127.71,1094.05 79.7,28.92 165.26,48.18 255.54,58.22l34.1 297.46c-144.39,19.93 -281.14,29.53 -412.73,29.53z"/>
  <path class="fil10" d="M60996.3 23353.28c-320.66,-80.37 -641.37,-132.01 -959.69,-159.83 -135.65,-1481.41 11.32,-3248.96 250.8,-4887.63 13.04,0 26.03,0 39.08,0 214.48,0 427.31,-7.13 633.56,-23.62 -132.21,1824.03 -174.98,3632.02 36.25,5071.09zm-571.21 -5920.49c230.37,-1363.49 503.25,-2575.47 695.84,-3366.03 -19.51,161.57 -20.62,249.26 -9.97,250.99 0.19,0 0.43,0 0.86,0 4.56,0 9.54,-7.56 15.63,-22.34 -6.71,42.78 -13.47,85.98 -20,129.38l215.6 24.8c-97.67,925.34 -204.27,1924.54 -291.55,2936.11 -118.79,12.56 -337.45,33.42 -606.41,47.08z"/>
  <path class="fil14" d="M60326.49 18305.82c-13.05,0 -26.04,0 -39.08,0 43.2,-295.91 89.43,-587.94 137.68,-873.03 268.95,-13.67 487.62,-34.53 606.41,-47.08 -25.84,298.31 -49.73,597.49 -71.45,896.49 -206.25,16.49 -419.08,23.62 -633.56,23.62z"/>
  <path class="fil3" d="M63935.49 9318.36c-247.97,35.14 -2230.92,1472.24 -2560.5,4637.69 -386.5,3707.35 -1013.78,8857.23 116.57,11169.14 258.8,529.55 623.78,911.01 1127.71,1094.05 2705.57,981.85 11711.31,-9219.37 11711.31,-9219.37l-1774.74 -2630.67c0,0 -6659.3,6593.13 -7116.15,5812.8 -266.86,-456.18 530.9,-4271.24 499.38,-7257.1 -22.15,-2122.35 -463.56,-3825.83 -2003.57,-3606.54z"/>
  <path class="fil4" d="M63171.83 9722.17c-578.59,696.95 -1684.39,2149.31 -2064.38,4702.62l4916.06 566.47c0,0 1354.45,-5824.24 -1262.75,-6003.4 -574.71,-39.27 -1221.07,290.99 -1588.94,734.31z"/>
  <path class="fil27" d="M65951.44 15103.33c-0.19,0 -0.19,0 -0.19,0 -9.35,-0.43 -14.77,-42.59 -17.17,-122.47l48.44 5.67c-12.43,76.63 -23.02,116.81 -31.08,116.81zm-4830.51 -1036.56c9.11,-74.22 22.15,-164.14 39.51,-268.33 57.31,-330.5 164.15,-806.38 364.79,-1374.4 200.58,-567.75 499.38,-1224.58 929.47,-1899.37 34.34,-52.75 69.92,-105.99 106.41,-158.92 210.37,-236.27 414.71,-452.48 611.22,-644.01 -0.24,0 -0.24,0.24 -0.5,0.43 -475.69,572.81 -1307.24,1656.02 -1799.49,3441.42l-5.84 -52.81c0,0 -99.65,357.4 -245.57,955.99z"/>
  <path class="fil28" d="M62561.11 10365.75c196.03,-283.59 428.6,-565.17 727.54,-800.53 54.09,-42.34 110.1,-82.72 168.26,-120.94 -106.17,84.87 -202.31,178.24 -284.59,277.45 -196.51,191.53 -400.85,407.74 -611.22,644.01z"/>
  <path class="fil29" d="M61111.82 14317.75c-0.43,0 -0.67,0 -0.86,0 -10.65,-1.72 -9.54,-89.42 9.97,-250.99 145.92,-598.59 245.57,-955.99 245.57,-955.99l5.84 52.81c-96.38,349.77 -179.77,726.67 -244.89,1131.83 -6.09,14.78 -11.08,22.34 -15.63,22.34z"/>
  <path class="fil27" d="M65982.52 14986.52l-48.44 -5.67c-7.82,-256.21 13.67,-901.46 23.63,-1807.97 2.65,-594.23 -6.71,-1302.26 -94.41,-2078.72 -44.75,-386.27 -94.91,-797.28 -286.81,-1145.07 -96.44,-171.35 -229.74,-320.47 -403,-417.97 -169.99,-101.6 -375.18,-154.17 -584.25,-162.84 -23.69,-1.11 -47.33,-1.72 -71.2,-1.72 -186.12,0 -371.07,35.14 -543.7,94.65 -192.82,68.63 -373.03,174.54 -534.35,298.98 -323.73,250.32 -576.01,571.21 -791.17,892.12 -429.03,649.43 -738.86,1285.57 -956.62,1834.44 -386.5,984.25 -510.89,1677.75 -564.75,1808.66 65.12,-405.15 148.51,-782.06 244.89,-1131.83 492.25,-1785.39 1323.8,-2868.61 1799.49,-3441.42 0.25,-0.19 0.25,-0.43 0.5,-0.43 82.28,-99.21 178.42,-192.58 284.59,-277.45 132.88,-87.52 277.27,-162.85 433.84,-219.29 198.85,-69.72 411.68,-110.53 628.75,-110.53 26.71,0 53.86,0.67 80.81,1.97 244.04,10.41 489.36,72.07 700.21,198.24 213.88,121.8 380.85,311.74 491.76,514.34 221.26,413.17 261.01,849.59 302,1240.83 76.69,793.15 67.09,1509.67 41.73,2107.15 -26.71,598.18 -69.48,1079.96 -103.82,1412.19 -18.65,176.08 -35.39,310.25 -49.67,397.34z"/>
  <polygon class="fil23" points="71720.59,14844.1 74344.49,17309.89 73963.21,17869.21 71317.4,15218.17 "/>
  <polygon class="fil30" points="71086.79,15491.75 73073.87,18590.9 73468.81,18102.17 71434.21,15335.18 "/>
  <path class="fil24" d="M65943.01 15369.7c0,0 1356.79,-4595.59 29.73,-6421.11 -384.3,-528.68 -1128.64,-642.48 -1675.96,-285.33l-1036.75 676.14c0,0 2061.79,-1257.38 2402.02,779.24 340.23,2036.62 280.96,5251.06 280.96,5251.06z"/>
  <path class="fil24" d="M63511.2 7995.61c5.04,10.46 -159.59,107.71 -460.74,274.25 -299.79,168.7 -729.26,420.8 -1246.93,752.1 -513.05,338.07 -1112.69,758 -1747.79,1264.28 -635.77,505.29 -1307.05,1095.82 -1981.05,1748.09 -674.35,652.21 -1289.88,1301.64 -1838.57,1902.58 -274.18,300.52 -531.94,589.05 -771.41,860.47 -240.59,270.75 -459.44,524.57 -633.56,774.07 -356.53,495.44 -490.47,984.42 -496.8,1322.43 -8.43,340.04 69.92,521.3 52.99,525.42 -4.13,1.54 -28.19,-40.55 -55.83,-128.5 -27.75,-87.28 -57.48,-221.45 -62.53,-397.35 -3.45,-175.21 18.71,-392.11 92.5,-630.97 71.89,-239.67 198.92,-497.42 371.49,-757.94 172.39,-260.53 390.2,-523.7 626.67,-798.38 235.54,-275.92 489.6,-568.62 761.39,-873.03 544.13,-608.39 1158.79,-1263.86 1836.85,-1919.57 677.68,-655.71 1356.6,-1246.93 2002.09,-1748.9 644.88,-503.07 1255.6,-916.05 1780.16,-1243.04 528.92,-320.48 969.23,-558.23 1279.73,-709.76 311.78,-149.19 486.15,-226.67 491.32,-216.27z"/>
  <path class="fil24" d="M56495.61 13522.21c-36.25,28.93 -288.35,-228.83 -563.21,-575.58 -274.44,-346.94 -467.69,-651.34 -431.19,-680.02 36.25,-28.86 288.35,228.89 563.21,575.58 274.44,346.75 467.69,651.4 431.19,680.02z"/>
  <polygon class="fil12" points="54977.27,31556.95 54880.21,33155.62 58246.91,32514.49 57883.23,31026.31 "/>
  <path class="fil12" d="M55128.36 33108.29c0,0 93.37,2288.9 492.86,2550.78 399.32,261.64 2657.82,-583.88 2657.82,-583.88l-326.57 -3004.5 -2824.1 1037.6z"/>
  <path class="fil14" d="M55152.74 33521.7l-0.24 -3.7c0.24,1.3 0.24,2.41 0.43,3.7l-0.19 0z"/>
  <polygon class="fil26" points="58044.3,32917 58005.71,32560.53 58005.71,32560.53 58044.54,32917 "/>
  <path class="fil13" d="M55152.92 33521.7c-0.19,-1.3 -0.19,-2.41 -0.43,-3.7l-24.13 -409.71 2877.35 -547.76 38.59 356.47 -2891.56 604.7 0.19 0z"/>
 </g>
</svg>
