<?xml version="1.0" encoding="UTF-8"?>
<!DOCTYPE svg PUBLIC "-//W3C//DTD SVG 1.1//EN" "http://www.w3.org/Graphics/SVG/1.1/DTD/svg11.dtd">
<!-- Creator: CorelDRAW -->
<svg xmlns="http://www.w3.org/2000/svg" xml:space="preserve" width="42.7142mm" height="38.155mm" version="1.1" style="shape-rendering:geometricPrecision; text-rendering:geometricPrecision; image-rendering:optimizeQuality; fill-rule:evenodd; clip-rule:evenodd"
viewBox="0 0 1053.43 940.99"
 xmlns:xlink="http://www.w3.org/1999/xlink"
 xmlns:xodm="http://www.corel.com/coreldraw/odm/2003">
 <defs>
  <style type="text/css">
   <![CDATA[
    .str0 {stroke:#F69E88;stroke-width:18.5;stroke-miterlimit:22.9256}
    .fil1 {fill:#F0D079}
    .fil0 {fill:#F69E88}
   ]]>
  </style>
 </defs>
 <g id="Layer_x0020_1">
  <metadata id="CorelCorpID_0Corel-Layer"/>
  <g id="_2943351407808">
   <path class="fil0" d="M630.92 520.06l-11.98 7.31c9.86,1.95 21.53,0.39 30.8,-1.5l-18.82 -5.81zm37.89 -68.43c-15.16,3.83 -29.79,7.43 -46.45,7.91 -18.4,0.54 -36.25,-3.76 -50.2,-3.23 4.27,21.15 33.45,38.84 56.85,44.44 11.05,-7.92 23.11,-22.42 31.47,-33.78 4.13,-5.61 5.07,-10.62 8.33,-15.34zm-377.6 -1.66c-3.09,-2.06 2.37,-2.31 -5.56,-2.9 -8.73,-0.65 -1.76,-1.03 -6.46,3.13 1.4,1.24 1.37,2.62 4.99,2.78 10.52,0.46 5.94,-2.18 7.03,-3zm230.02 76.3c-0.4,-0.21 -0.97,-0.55 -1.42,-0.78l-37.96 -20.01c-12.02,-7.08 -23.49,-18.28 -33.41,-27.28 -30.15,-27.36 -39.34,-64.78 -45.73,-72.26 -9.05,6.99 -11.1,15.87 -36.97,34.58l-5.87 5.46c33.78,0.19 54.24,-8.88 53.03,10.06 -15.25,11.09 -74.42,4.64 -85.91,5.57 -7.93,0.64 -16.63,3.75 -26.14,4.78 3.53,5.06 4.54,4.92 9.67,8.82 53.85,40.87 143.53,52.48 213.52,52.74l-2.81 -1.69zm136.98 -88.83c-0.63,-0.29 -35.28,-8.06 -38.32,-8.6 -3.91,6.5 -8.3,8.94 -13.86,13.87 21.8,1.57 32.76,-1 52.18,-5.27zm-398.21 13.85c-10.4,-8.11 0.29,-11.46 -22.16,-16.83 -8.99,-2.15 -23.53,-5.95 -32.55,-6.42 10.27,7.94 30.17,26.32 54.7,23.25zm343.81 -32.29c-10.32,-4.84 -12.41,-8.14 -20.24,-14.46 -5.7,7.69 -9.11,23.2 -10.37,33.76 12.56,-2.03 26.52,-9.06 30.61,-19.3zm172.24 -33.31l-36.18 24.75c-50.37,31.3 -28.17,1.71 -50.41,43.39 -18.33,34.33 -20.3,29.9 -40.15,52.56 0.41,0.29 1.09,0.23 1.3,0.79 0.22,0.56 1.02,0.62 1.33,0.75l24.73 6.12c14.19,2.28 17.15,1.56 27.91,-4.09 16.98,-8.9 27.87,-16.68 38.3,-28.6 20.76,-23.72 36.95,-56.92 33.17,-95.69zm-181.44 1.84c3.53,7.71 12.22,14.87 21.25,18.29 4.07,-10.34 7.48,-15.62 8.98,-28.02l-25.94 3.91 -4.28 5.82zm96.22 -16.21c-19.84,-7.86 -8.77,-2.19 -21.62,-13.6 -28.05,17.29 -23.32,11.04 -25.36,23.15 -2.7,16.07 -7.73,21.44 -11.7,34.39 13.02,2.84 38.49,8.55 50.56,0.67 7.58,-5.91 8.51,-36.97 8.12,-44.61zm-329.5 -9.76c-5.15,9.15 -8.48,10.31 -24.26,11.5 -22.13,1.67 -46.31,-0.27 -66.37,-7.95 -10.21,-3.91 -16.53,-8.49 -24.77,-11.55 -0.75,22.72 6.08,46.76 14.94,64.94 4,8.2 2,5.87 12.72,8.92l47.86 14.99c16.71,2.12 43.89,-25.11 51.24,-31.87 29.65,-27.25 24.15,-31.28 22.62,-54.65 -12.14,1.29 -13.79,6.34 -33.99,5.66zm192.37 70.14c3.39,-8.51 4.25,-16.79 7.87,-25.71 11.47,-28.31 14.36,-21.3 -22.73,-31.94l-23.58 -6.67c-0.15,-0.36 -0.83,0.04 -1.21,0.17 -4.07,10.42 4.09,31.32 9.05,41.51 5.31,10.92 18.34,16.58 30.6,22.64zm-314.34 -14.22c-9.81,-27.76 -12.78,-41.22 -12.46,-73.29 0.12,-12.25 -9.53,-17.7 -16.04,-28.97 -5.86,-10.13 -9.85,-19.07 -12.83,-30.57 -28.07,26.6 -24.14,114.38 -4.45,122.89 3.61,1.56 40.62,9.36 45.79,9.95zm521.59 -43.97c-12.7,-7.01 -30.7,-13.23 -48.96,-15.65 5.13,19.19 8.75,22.07 6.85,44.69 14.34,-5.2 32.7,-21.46 42.11,-29.05zm-33.17 143.31c62.24,-1.33 99.01,-27.19 118.92,-63.92 16.6,-30.62 32.69,-97.91 -21.77,-116.88 -4.37,3.96 -18.56,18.32 -21.03,22.68 4.82,7.25 9.61,9.73 15.78,17.02 10.23,12.1 34.3,51.9 23.78,61.98 -11.5,11.03 -16.27,-3.29 -17.78,-11.26 -1.58,-8.34 -4.16,-14.75 -8.11,-21.79 -5.63,-10.05 -19.24,-30.1 -28.23,-33.11 1.36,7.81 6.3,9.82 6.5,21.28 0.14,7.76 -0.87,16.58 -2.04,24.29 -4.62,30.44 -23.38,68.52 -49.86,88.59 -5.5,4.17 -10.08,6.23 -16.16,11.1zm-179.82 -173.28l-16.41 9.76c6.66,3.99 14.32,5.7 23.05,7.12l-6.65 -16.88zm228.65 17.49c-3.04,-8.26 -40.4,-29.99 -50.9,-34.68l-6.78 16.09c33.11,5.37 45.66,16.59 57.69,18.58zm-153.02 -13.58c-2.27,-8.22 -4.53,-16.34 -9.78,-22.76 -11.56,1.02 -38.11,7.05 -45.95,12.41 5.1,47.08 28.72,23.58 55.73,10.35zm-280.6 8.47c-0.57,-5.44 -0.26,-2.56 -4.67,-7.03 -3.38,-3.44 -3.46,-3.01 -6.32,-7.3 -11.24,-16.87 -15.65,-37.45 -17.33,-57.61 -22.27,0.01 -41.18,-2.49 -51.94,9.37 -7.87,8.67 -13.62,25.86 -14.53,38.35 23.53,19.92 50.05,28.49 94.79,24.23zm266.95 155.37c-19.91,-7.28 -47.54,-25.98 -54.39,-43.45 -4.47,-11.4 1.54,-10.21 -10.09,-14.77 -6.57,-2.58 -11.42,-4.54 -16.24,-7.72 -5.58,-3.68 -8.3,-6.76 -13.12,-12.29 -50.74,-58.31 -14.82,-62.14 -24.8,-79.8 -4.31,-7.63 -26.1,-14.63 -41.67,-54.27 -6.15,5.04 -6.62,9.52 -12.31,17.3 -15.55,21.27 6.02,6.34 -17.55,62.44 -7.45,17.73 22.63,65.18 32.03,76.8 7.92,9.78 21.17,21.25 30.3,28.2 24.33,18.51 48.53,30.33 81.53,38.49 11.86,2.93 14.19,3.16 25.68,-0.65l16.9 -7.34c2.48,-1.62 1.98,-1.38 3.72,-2.94zm46.03 -192.78l-21.76 2.15 9.22 21.96 17.54 -3.83 -5 -20.28zm47.48 9.77l2.04 -12.22 -10.16 -0.05 8.12 12.27zm102.34 -0.1c-19.11,-5.39 -36.62,-10 -58.93,-10.66l42.17 28.55c5.78,-4.08 13.78,-11.34 16.76,-17.9zm-202.66 -19.9c-2.54,-3.68 -6.12,-7.61 -8.65,-10.14 -19.77,3.55 -25.43,2.36 -27.91,20.37l36.56 -10.23zm-249 31.12c10.19,-15.46 5.77,-40.06 -3.72,-52.43l-16.38 -1.38c0.87,10.8 2.5,21.34 5.84,31.27 1.41,4.18 3.55,9.57 5.62,13.19 1.22,2.13 2.01,3.47 4.04,5.59 3.31,3.46 1.6,1.81 4.59,3.77zm43.96 -34.4c-6.96,-3.45 -12.92,-9 -22.11,-10.62 6.35,21.02 1.98,30.84 -2.84,50.36 27.63,-5.44 22.71,-14.45 24.96,-39.73zm241.99 -1.41c-2.58,-8.04 -9.99,-7.43 -22.37,-7.86 2.15,4.06 3.72,5.67 5.62,10l16.75 -2.13zm-93.35 22.93c0.58,-14.29 3.19,-25.91 11.4,-33.79 -25.96,3.28 -42.97,24.83 -45.67,50.46 11.22,-4.91 20.6,-13.1 34.26,-16.67zm-117.48 -42.44c-4.38,5.26 -9.59,15.26 -8.25,20.62 5.58,-3.57 2.78,-1.01 6.02,-6.38l2.23 -14.24zm279.8 14.98c1.88,-19.91 -2.03,-61.69 -17.75,-71.69 -17.85,11.88 -19.82,32.94 -18.2,59.13 13.2,3.53 24.8,9.77 35.95,12.56zm-542.82 100.96c-11.8,-45.23 -9.47,-87.02 14.17,-123.78 -23.29,6.54 -69.43,36.12 -80.24,58.59 -17.48,36.36 38.3,59.17 66.07,65.19zm398.07 -126.96c-27.03,-12 -73.19,-11.41 -103.45,-7.05 2.87,28.28 16.62,50.99 32.94,65.11 4.52,-6.25 5.47,-14.26 9.78,-21.43 16.99,-28.31 40.69,-28.09 60.73,-36.62zm-333.25 -7.26c-21.43,1.54 -18.26,4.54 -12.55,21.28 3.12,9.16 6.75,19.37 13.17,25.17 23.08,-31.8 3.7,-43.39 77.53,-44.55 -29.63,-5.11 -46.57,-4.18 -78.16,-1.9zm234.18 -26.52l-0.27 8.69 27.43 -2.17 -27.17 -6.52zm-147.32 -1.67l-45.82 8.74 41.66 4.47 4.16 -13.21zm55.92 -5.86c-25.68,1.56 -38.07,2.01 -40.98,24.86 16.35,4.93 21.09,13.99 33.9,17.46 18.54,5.03 24.7,9.26 38.48,14.31 8.33,-16.65 17.26,-24.59 34.98,-32.56l1.2 -22.02c-26.66,-4.29 -40.33,-3.71 -67.58,-2.05zm445.43 82.55c6.36,-13.86 44.99,-45.86 0.04,-80.51 -27.32,-21.06 -68.5,-23.4 -108.79,-15.71 4.7,13.03 10.85,20.81 14.5,36.59 5.07,21.92 2.7,33.73 4.19,40.55 1.91,8.74 19.27,5.03 47.08,9.42 15.56,2.46 28.49,7.49 42.97,9.66zm-138.34 -101.48c-19.74,-27.33 -71.43,-31.57 -107.3,-30.36 -32.14,1.08 -86.93,9.74 -100.82,33.96 8.48,4.4 39.87,7.08 52.95,10.33 87.46,21.76 99.97,51.15 127.68,52.87 -1.26,-51.48 11.57,-47.29 27.49,-66.8zm-238.41 1.94c-10.11,-48.44 -80.79,-59.52 -130.66,-58.18 -57.94,1.56 -93.93,38.78 -98.1,87.9 16.73,-3 35.37,-9.92 53.48,-13.92 23.15,-5.11 91.25,-17.57 112.2,-18.51 21.6,-0.96 41.57,2.9 63.08,2.72zm17.18 -13.04c32.19,-24.45 59.98,-34.93 120.34,-36.09 24.21,-0.47 49.45,1.74 70.54,8.65 19.58,6.42 39.78,19.2 46.93,30.1 27.71,-5.15 42.19,-11.23 74.63,-5.88 40.08,6.61 87.06,29.62 87.66,70.14 0.42,28.46 -15.57,36.13 -23.8,53.63 19.24,10.59 37.5,22.28 43.48,45.67 5.14,20.09 -0.93,55.4 -7.64,74.01 -39.51,109.59 -165.48,87.42 -184.81,92.65 -69.78,18.9 -74.28,6.18 -132.23,8.99 -16.35,0.79 -32.32,0.77 -48.68,0.37 -82.73,-2.03 -163.51,-18.73 -219.14,-64.91 -17.63,-14.63 -5.86,-7.63 -35.77,-11.08 -33.39,-3.86 -55.79,-20.33 -71.84,-42.98 -4.98,-7.04 -4.47,-4.66 -16.14,-7.86 -43.29,-11.86 -105.23,-40.92 -80.39,-90.04 14.1,-27.9 70.73,-62.46 110.93,-74.63 4.67,-59.45 38.59,-103.97 103.54,-111.27 44.83,-5.04 110.37,3.86 139.86,29.62 11.89,10.39 13.01,19.42 22.54,30.92z"/>
   <path class="fil1 str0" d="M559.05 779.9c-9.21,21.91 -47.9,28.61 -50.29,-0.98 -2.81,-34.72 36.69,-9 50.29,0.98zm-387.78 -260.28c-0.92,-20.46 -0.26,-30.21 23.49,-16.86 19.65,11.05 -10.26,16.38 -23.49,16.86zm789.3 -155.69c3.81,-11.79 13.49,-21.62 21.56,-26.45 13.37,-7.99 26.07,-3.32 30.34,9.49 -8.42,13.52 -28.17,19.69 -51.9,16.96zm-564.85 -299.54c13.5,0.77 46.86,34.61 27.88,53.66 -21.84,21.92 -29.88,-29.6 -27.88,-53.66zm119.9 745.56c11.34,2.72 15.01,2.02 26.17,-0.09 20.86,-7.36 19.03,-10.06 26.72,-18.18l1.61 -1.51c0.17,-0.16 0.76,-0.24 0.88,-0.71 0.13,-0.47 0.59,-0.48 0.91,-0.7 11.15,5.69 17.95,15.54 24.05,21.14 8.35,14.68 7.67,23.15 -2.19,37.01 -10.9,15.32 -36.88,39.39 -50.5,54.5 -4.35,4.83 -7.72,8.5 -12.25,13.27 -4.35,4.58 -10.77,9.21 -4.28,15.62 9.71,4.62 11.95,-2.89 16.97,-8.62l39.5 -41.56c14.88,-15.46 42.41,-39.34 30.19,-70 -9.12,-15.37 -21.29,-24.12 -35.07,-33.18 7.33,-25.74 14.92,-37.44 12.8,-68.96 -4.57,-67.87 -56.65,-100.97 -136.6,-112.71 -113.84,-16.71 -264.31,28.22 -281.31,-63.65 21.23,-2.19 55.55,-10.62 37.4,-33.09 -9.9,-12.25 -49.68,-24.75 -52.98,-0.73l-0.43 22.39c-7.32,1.98 -20.86,1.29 -26.72,-1.38 -71.9,2.45 -100.92,-71.29 -105.93,-134.06 -6.45,-80.81 17.02,-122 52.24,-179.33 32.76,-53.32 65.43,-99.21 109.75,-129.62 67.01,-45.96 122.53,-42.06 196.1,-19.47 -3.32,19.06 -2.56,40.95 4.89,58.43 19.05,44.68 74,10.33 50.87,-31.11 -10.62,-19.04 -19.56,-19.69 -35.05,-32.38 12.7,-11.52 21.84,-14.79 41.27,-19.62 52.79,-13.11 123.36,-10.05 176.46,-5.56 54.64,4.62 145.41,32.37 195.62,51.41 41.11,15.59 47.09,20.17 80.77,41.67 6.14,3.92 11.04,8.04 17.37,12.93 3.33,2.57 5.71,3.79 8.76,6.46l40.33 33.66c27.74,24.55 45.67,33.21 56.78,63.08 14.67,39.45 9.41,63.19 1.02,97.92 -6.11,-3.68 -8.99,-12.7 -24.22,-13.41 -20.74,-0.96 -34.1,13.89 -44.45,27.3 -5.94,7.7 -8.73,16.04 -5.31,26.02 26.12,11.82 50.63,1.84 70.3,-10.59 13.84,90.45 -0.16,165.03 -106.22,195.16 -42.43,12.05 -92.05,17.53 -137.72,25.03 -38.64,6.34 -76.59,6.01 -116.1,7.9 -12.54,0.6 -30.98,-2.84 -24.49,12.56 12.15,2.72 86.65,-2.21 105.78,-3.15 29.79,-1.46 66.71,-8.93 96.02,-13.77 69.44,-11.48 120.84,-20.64 159.5,-56.96 67.73,-63.63 32.95,-173.99 34.97,-181.8 0.94,-3.63 5.86,-11.27 7.85,-17.36 12.86,-39.43 6.38,-92.96 -16.3,-123.82l-41.18 -38.61c-88.48,-71.19 -91.75,-82.82 -223.36,-123.54 -25.47,-7.88 -58.24,-19.02 -84.79,-23.98 -57.3,-10.7 -149.4,-15.31 -206.91,-5.82 -35.52,5.85 -52.46,10.46 -76.29,30.63 -33.02,-13.62 -77,-21.88 -118.29,-16.57 -30.23,3.89 -52.32,12.31 -75.97,26.08 -7.09,4.13 -14.22,8.02 -19.67,12.36 -12.95,10.3 -24.86,20.08 -35.42,30.96 -10.71,11.03 -21.28,22.17 -30.68,35.15 -30.03,41.46 -80.96,116.09 -92.57,166.15 -14.53,62.65 -8.5,154.29 38.22,202.17 32.7,33.53 62.13,29.23 102.98,31.48 4.26,7.22 5.9,19.85 11.72,29.73 4.9,8.32 12.3,15.84 19.47,21.01 74.3,53.68 268.38,-20.15 361.55,64.29 35.06,31.78 30.54,102.11 15.37,119.82 -9.21,-3.45 -19.51,-11.41 -29.49,-16.22 -31.14,-15.01 -47.37,12.73 -40.44,35.94 3.75,12.56 9.92,17.6 20.02,22.58z"/>
  </g>
 </g>
</svg>
