<?xml version="1.0" encoding="UTF-8"?>
<!DOCTYPE svg PUBLIC "-//W3C//DTD SVG 1.1//EN" "http://www.w3.org/Graphics/SVG/1.1/DTD/svg11.dtd">
<!-- Creator: CorelDRAW -->
<svg xmlns="http://www.w3.org/2000/svg" xml:space="preserve" width="34.8574mm" height="38.5025mm" version="1.1" style="shape-rendering:geometricPrecision; text-rendering:geometricPrecision; image-rendering:optimizeQuality; fill-rule:evenodd; clip-rule:evenodd"
viewBox="0 0 3845.25 4247.36"
 xmlns:xlink="http://www.w3.org/1999/xlink"
 xmlns:xodm="http://www.corel.com/coreldraw/odm/2003">
 <defs>
  <style type="text/css">
   <![CDATA[
    .str1 {stroke:#F0D079;stroke-width:22.06;stroke-miterlimit:22.9256}
    .str0 {stroke:#F0D079;stroke-width:165.47;stroke-linecap:round;stroke-miterlimit:22.9256}
    .fil0 {fill:none}
   ]]>
  </style>
 </defs>
 <g id="Layer_x0020_1">
  <metadata id="CorelCorpID_0Corel-Layer"/>
  <path class="fil0 str0" d="M1989.63 778.91c-275.24,354.93 -286.52,840.79 -116.76,856.16 206.06,31.92 237.22,-599.14 116.76,-856.16zm-1906.9 3385.71c705.06,0 1515.44,-348.08 2023.64,-817.24 294.65,176.47 1274.67,466.99 1634.49,466.99m-1634.49 -466.99c303.04,-297.47 757.34,-629.42 1232.18,-1439.9 237.99,-406.2 747.31,-1399.1 129.88,-1712.31 -740.57,-328.15 -1308.34,387.85 -1478.81,583.75 -609.94,-1311.65 -1769.1,-539.89 -1751.61,428.07 17.94,992.59 1128.9,1697.51 1868.35,2140.4z"/>
  <g id="_2943132103680">
   <path class="fil0 str1" d="M2078.49 3109.05c9.6,6.93 4.48,2.45 13.27,5.49 6.31,18.27 82.03,-28.23 109.13,-43.84 108.42,-62.43 -192.35,62.04 -188.1,33.66 10.48,-2.7 74.56,-39.42 89.16,-46.12 38.78,-17.82 328.04,-175.92 328.46,-174.42 -12.29,0 -396.31,89.05 -442.69,100.14 -221.05,52.9 191.31,-100.92 198.28,-103.23 47.13,-15.65 331.75,-190.32 338.26,-189.3 -96.84,0 -444.73,97.88 -552.08,121.19 -489.43,106.27 26.89,-61.06 96.52,-74.26 111.51,-21.14 531.33,-262.78 533.71,-262.78 -48,0 -440.99,100.82 -479.82,116.11 -159.48,62.78 -347.06,74.48 -513.33,114.63 -272.24,65.72 26.3,-42.11 51.21,-43.43 72.7,-3.89 410.96,-143.99 473.52,-169.33 211.77,-85.78 264.55,-167.53 428.61,-247.89 186.06,-91.13 -80.47,5 -84.07,5.09 -20.65,0.56 -958.06,261.31 -977.2,270.95 -59.01,29.74 49.2,-26.51 49.74,-26.95 38.85,-31.2 461.34,-173.33 513.35,-185.01 176.02,-39.53 377.35,-186.53 540.01,-271.35 131.21,-68.43 -425.09,123.45 -426.99,124.01 -300.11,87.67 -602.48,193.2 -910.72,252.18 -144.85,27.71 490.46,-230.5 610.4,-256.47 29.17,-6.32 586.65,-243.52 604.92,-283.15 65.8,0 -550.48,119.49 -653.84,168.53 -159.94,75.87 -596.5,220.94 -763.64,220.94 -49.11,0 713.31,-412.7 796.48,-427.41 -0.45,0.33 -73.48,21.21 -82.85,25.09 -178.07,73.55 -633.81,173.82 -836.44,225.23 -196.99,49.97 153.66,-111.86 154.85,-112.21 182.18,-53.65 387.37,-181.31 560.39,-267.86 126.1,-63.08 -345.66,53.51 -347.22,53.89 -200.9,48.59 -422.65,65.66 -627.56,109.53 3.89,-9.33 241.26,-122.67 265.45,-130.58 237.54,-77.59 457.11,-211.75 667.11,-339.46 90.49,-55.02 -1.74,-23.66 -4.29,-21.85 -62.76,44.68 -533.79,86.25 -621.4,103.23 -117.83,22.83 -612.47,50.71 -516.15,30.83 10.8,-51.96 475.92,-200.79 533.85,-216.65 266.86,-72.98 420.71,-198.44 613.08,-264.64 77.45,-26.66 118.84,-95.43 23.46,-37.54 -16.65,10.09 -1136.73,294.41 -1141.44,294.41 -45.55,0 295.69,-204.44 323.77,-212.35 252.32,-71.13 527.41,-227.85 762.03,-350.72 363.58,-190.4 -70.13,-39.77 -119.58,-14.48 -47.75,24.41 -848.81,248.69 -884.84,253.79 -205.59,29.08 -85.15,20 -37.54,-35.93 48.7,-57.22 343.14,-161.93 424.59,-210.35 126.4,-75.15 360.49,-148.79 455.15,-217.86 250.28,-182.59 82.69,-83.35 -25.47,-66.09 -198.56,31.7 -732.87,248.69 -860.57,248.69 9.39,0.74 248.98,-157.14 284.75,-176.7 32.97,-18.04 342.97,-167.32 345.22,-170.53 38.69,-54.97 314.49,-60.34 102.03,-41.82 -155.7,13.57 -538.59,180.12 -610,177.89 151.96,-82.42 174.64,-98.62 317.46,-189.3 4.92,-3.12 96.11,-53.29 100.15,-54.69"/>
   <path class="fil0 str1" d="M2866.79 307.74c179.56,0 215,-28.53 369.49,-42.63 277.59,-25.35 -240.85,90.61 -274.43,89.54 -47.31,-1.51 -501.43,178.31 -451.67,178.31 134.95,0 486.25,-133.63 703.85,-126.7 270.81,8.63 393.16,-121.8 -17.56,35.93 -94.79,36.4 -589.78,210.89 -617.11,230.34 -27.18,19.34 -302.41,69.78 -247.49,62.21 272,-37.54 510.32,-124.1 812.98,-135.69 123.45,-4.72 394.54,-56.7 392.95,-56.7 -131.71,0 -491.03,234.84 -653.44,263.97 -160.36,28.77 -618.19,130.18 -593.5,130.18 173.92,0 529.43,-73.94 735.08,-95.45 133.19,-13.92 511.13,-59.39 488.4,-59.39 -5.91,0 -547.96,246.76 -750.77,271.75 -33.57,4.14 -449.52,123.52 -453.14,132.19 34.95,-9.52 376.59,-42.42 471.91,-62.6 69.14,-14.64 542.64,-79.07 544.71,-119.18 1.22,-0.58 379.31,-90.9 224.83,-45.45 -188.46,55.45 -535.44,244.73 -726.11,259.69 -156.82,12.3 -331.86,93.29 -471.65,147.07 -33.02,12.7 -56.36,10.27 -88.34,36.73 -3,-0.89 571.26,-40.33 776.25,-89.96 27.48,-6.65 496.39,-78.1 411.71,-70.78 -43.5,3.76 -409.86,148.77 -586.14,170.52 -156.97,19.37 -710.21,242.79 -728.1,242.79 126.53,0 398.44,-69.38 569.37,-75.07 2.4,-0.08 566.8,-61.46 599,-73.88 2.75,-1.06 -420.76,169.53 -708.81,186.49 -218.82,12.88 -555.65,146.02 -553.42,145.46 29.33,-7.49 1002.22,-109.14 1059.66,-107.92 98.58,2.11 292.7,-45.53 -83.66,22.26 -247.19,44.52 -512.24,77.12 -753.85,136.07 -324.8,79.24 -542.53,85.67 41.83,85.67 158.22,0 533.65,9.72 682.65,-26.95 168.85,-41.54 -230.61,74.19 -246.67,80.44 -83.11,32.34 -967.6,181.12 -858.69,181.12 303.13,0 614.97,-39.07 929.47,-51.22 152.26,-5.87 226.53,-49.58 -18.36,61 -193.01,87.15 -776.76,139.14 -867,251.78 -15.28,19.05 515.49,8.8 602.62,-21.05 1.31,-0.45 325.72,-30.05 305.8,-23.46 -244.74,80.86 -475.94,188.49 -745.68,223.63 -0.92,0.12 -282.82,61.39 -138.9,61.39 88.5,0 565.29,-9.69 505.3,7.78 -153.42,44.67 -338.37,132.97 -493.9,181.12 -8.34,47.21 348.37,-79.19 139.97,55.1 -32.15,20.72 25.25,7.57 25.66,7.31l-4.6 -10.05"/>
   <path class="fil0 str1" d="M825.64 321.82c0.02,0 576.1,37.31 380.08,60.61 -107.56,12.77 -533.16,77.11 -592.85,168.11 -3.99,6.1 929.84,-22.25 926,-22.25 -215.56,0 -683.16,198.86 -918.09,239.3 -271.68,46.76 335.32,18.52 345.23,18.78 109.01,2.81 660.71,-43.54 566.96,-51.21 -267.32,-21.89 -367.44,-27.48 -623.67,45.31 -263.51,74.85 -266.73,18.16 -515.35,202.98 210.94,0 432.93,-36.25 659.61,-32.85 15.84,0.24 614,-38.27 518.17,-33.24 -12.61,0.65 -944.02,332.92 -946.65,335.96 -156.02,180.53 -104.72,124.19 136.49,78.96 128.01,-24 187.4,-62.87 362.38,-77.08 20.9,-1.7 499.75,-71.99 438.39,-41.04 -59.03,29.78 -217.8,118.69 -280.33,130.59 -1.4,0.26 -290.43,133.73 -325.38,147.06 -307.25,117.22 -401.74,276.25 43.04,87.56 33.7,-14.3 830.37,-214.67 507.56,-32.85 -149.5,84.2 -343.75,240.06 -499.8,310.9 -108.57,49.29 -345.04,217.45 -24.14,103.23 61.71,-21.95 760.14,-230.09 704.93,-160.34 -5.1,6.44 -258.49,100.18 -402.73,284.22 -35.07,44.74 -296.04,241.64 -279.13,249.09 103.03,45.42 851.04,-354.48 952.8,-288.91 -0.38,4.84 -303.46,224.19 -341.73,256.87 -37.08,31.66 -268.36,210.19 -247.89,211.15 253.63,11.9 434.96,-197.36 751.17,-210.35 223.4,-9.17 66.91,5.81 -86.87,105.65 -94.13,61.11 -122.42,59.99 -221.61,146.14 -55.66,48.34 -183.32,96.62 -234.62,165.43 -83.02,111.34 1067.91,-387.76 611.87,-78.16 -55.08,37.4 -433.9,323.15 -363.58,304.6 63.34,-16.72 511.92,-189.02 454.76,-143.19 -138.71,111.22 -73.67,19.34 -190.51,188.1 -48.58,70.17 -23.43,6.08 -27.27,-24.56"/>
   <path class="fil0 str1" d="M2974.72 256.13c83.79,0 230.04,14.93 300.31,50.81 50.2,25.64 133.72,17.11 -29.76,37.95 -146.63,18.68 -477.75,-2.93 -595.93,69.57 -67.36,41.32 117.9,35.43 159.93,39.14 116.37,10.29 266.29,-4.99 374.99,26.55 6.03,1.74 286.19,33.28 151.36,43.83 -181.12,14.18 -369.88,88.2 -557.98,79.38 -38.61,-1.81 -612.85,66.64 -277.25,163.42 8.38,2.42 551.4,-41.42 638.55,-41.42 45.81,0 424.18,-21.5 191.17,43.84 -209.56,58.78 -475.95,159.34 -683.06,198.55 -18.19,3.44 -216.65,75.33 -219.33,81.79 56.96,-8.55 343.45,-42.64 392.14,-42.64 171.71,0 353.13,14.08 536.53,14.08 123.06,0 -140.51,33.05 -206.46,75.48 -106.28,68.37 -776.84,163.83 -710.15,163.83 199.11,0 394.07,-6.46 590.01,13.68 95.45,9.81 313.27,9.29 311.71,9.39 -113.31,7.12 -995.01,173.41 -1010.46,248.28 -113.05,23.36 374.85,-21.72 395.77,-16.76 114.1,27.02 519.43,5.39 491.07,-2.42 -177.21,-48.82 -457.58,119.71 -606.91,132.6 -1.3,0.11 -394.35,94.88 -265.05,71.58 230.89,-41.59 459.4,3.49 690.98,3.49 245.77,0 292.06,-26.07 -1.61,43.85 -89.56,21.32 -197.47,104.45 -333.96,115.3 -31.27,2.48 -426.03,78.09 -89.55,52.01 25.56,-1.99 603.85,-60.17 485.72,-15.7 -146.31,55.08 -546.03,220.67 -667.52,240.53 -213.77,34.93 182.73,36.84 342.94,-38.75 47.57,-22.44 267.35,-35.38 5.5,46.93 -43.46,13.66 -487.64,209.93 -493.5,226.84 -1.36,0 200.19,19.13 337.85,-12.87 29.8,-6.93 430.59,-38.74 149.74,-38.74 -263.48,0 -349.52,60.76 -597.93,108.73 -9.59,1.85 -283.53,83.66 -165.29,83.66 206.72,0 658.33,36.86 655.72,37.14 -183.8,19.67 -411.05,113.23 -642.85,108.32 -152.49,-3.23 -382.9,1.47 -34.04,-14.47 24.52,-1.13 636.25,-7.67 456.36,25.06 -147.19,26.78 -462.19,153.72 -460.25,153.65 53.45,-2.11 512.97,9.74 169.73,62.21 -18.07,2.76 -351.17,87.94 -164.63,87.94 32.74,0 323.41,11.32 289.75,-11.67l-12.69 -8.66"/>
   <path class="fil0 str1" d="M684.87 683.13c203.37,0 255.7,-11.47 464.94,-41.03 3.59,-0.51 700.03,-40.58 366.8,31.64 -52.24,11.33 -1509.84,460 -855.21,322.56 55.06,-11.55 1148.7,-199.11 910.31,-91.43 -188.87,85.31 -352.5,142.64 -524.73,261.57 -43.13,29.78 -397.53,140.77 -371.91,140.77 127.21,0 567.4,-136.08 722.62,-136.08 121.84,0 381.15,-47.93 45.45,27.75 -139.36,31.42 -349.47,209.72 -527.95,245.21 -181.57,36.09 -307.5,155.49 -450.47,258.88 0,3.27 737.26,-162.42 798.1,-175.63 44.82,-9.73 389.76,-67.69 346.43,-46.52 -266.67,130.3 -454.97,301.37 -695.27,465.74 -90.77,62.1 -45.34,61.11 -41.42,-34.05 3.93,-95.42 211.8,-150.83 293.74,-254.99 100.5,-127.74 579.9,-339.94 86.74,-165.31 -113.51,40.2 -354.97,77.04 -464.54,48.8 -15.41,-66.99 251.66,-168.76 329.26,-272.56 136.24,-182.21 589.43,-388.47 13.41,-192.78 -140.56,47.75 -457.49,94.86 -615.23,66.5 -4.3,-37.37 306.07,-185.61 374.99,-229.12 120.55,-76.09 229.72,-150.62 367.6,-194.38 23.53,-7.48 168.81,-96.88 -28.55,-39.43 -7.61,2.22 -573.1,140.4 -462.67,33.66 83.32,-80.54 232.53,-130.67 353.93,-245.61 181.22,-171.57 302.07,-201.52 -87.55,-68.37 -208.54,71.26 -161.96,35.94 -128.26,94.36l-9.87 -22.55"/>
   <path class="fil0 str1" d="M736.49 1748.29c63.17,0 587.56,-214.16 745.27,-225.24 67.08,-4.71 31.06,-4.56 -51.21,60.61 -93.08,73.71 -119.88,56.28 -263.18,183.8 -2.61,2.32 -295.24,272.76 -178.71,239.3 71.17,-20.44 689.14,-227 705.05,-225.64 -231.35,84.73 -418.3,274.02 -634.26,411.71 -129.92,82.85 417.88,-106.49 451.93,-114.49 124.97,-29.35 253.84,-67.98 376.59,-100.55 -26.89,5.78 -243.53,147.05 -276.71,172.82 -12.13,9.43 -231.58,229.42 -232.74,235.02 -84.6,17.56 636.47,-299.51 714.04,-299.51 2.7,31.56 -580.36,311.9 -646.74,389.46 -32.04,37.44 -154.27,61.94 93.84,-4.29 590.23,-157.54 780.21,-314.7 94.12,118.92 -289.83,183.18 -269.97,113.45 130.71,-1.6 17.79,-5.11 252.27,-76.08 248.69,-48.95 -29.81,14.36 -426.95,178.1 -374.98,244.81 56.52,72.55 466.4,-197.47 590.02,-186.88 -19.64,0 -38.62,-1.07 -48.96,-22.88"/>
   <path class="fil0 str1" d="M1581.11 1555.9c-113.15,7.53 -531.86,327.14 -449.25,301.51 38.3,-11.88 110.95,-6.88 194.79,-35.93 67.27,-23.3 571.94,-147.67 206.32,-68.5 -26.82,5.8 -592.34,183 -261.16,183 45.45,0 862.46,-86.57 697.55,-45.71 -280.35,69.45 -847.04,369.09 -767.93,345.22 281.91,-85.05 598.06,-186.88 895.83,-186.88 0,96.93 -418.11,345.07 -492.02,397.77 -342.19,243.95 -265.58,161.2 73.2,48.39 9.66,-3.21 631.91,-247.73 561.6,-124.41 -0.93,1.62 -348.42,437.73 -235.42,341.86 5.12,-4.34 12.28,-25.34 17.56,-34.85"/>
   <path class="fil0 str1" d="M2313.1 791.05c122.98,38.32 528.93,-22.03 797.69,32.84 224.97,45.93 176.65,1.21 -71.58,140.11 -254.58,142.44 -303.69,231.13 -623.68,244.27 -43.42,1.78 139.44,-6.12 168.52,-11.41 114.81,-20.85 666.77,-116.97 642.05,-88.35 -71.58,82.88 -681.62,406.86 -762.84,400.46 21.3,1.82 777.12,-171.41 424.99,-2.01 -262.99,126.52 -356.6,157 -637.22,243.74 -200.67,62.03 115.68,19.87 214.64,21.04 219.19,2.59 871.98,-121.07 144.26,121.2 -41.28,13.75 -627.41,194.58 -280.34,127.9 67.74,-13.02 466.68,-78.14 484.79,-69.98 5.92,28.64 -770.88,281.05 -597.12,276.04 421.99,-12.15 523.55,-25.76 59.51,175.22 -122.67,53.14 142.67,67.55 138.51,112.02"/>
   <path class="fil0 str1" d="M2782.34 312.43c137.56,190.93 635.78,135.13 340.53,267.06 -98.63,44.07 -421,249.1 -507.84,249.1 61.65,0 856.17,-87.25 715.11,-37.13 -160.3,56.93 -152.27,16.8 -332.76,108.73 -129.16,65.77 -466.55,201.07 -464.53,200.97 122.34,-6.64 989.69,-91.24 926,-43.44 -297.98,223.6 -506.51,229.51 -860.3,335.16 -148.82,44.45 807.42,11.52 717.92,17.18 -77.98,4.92 -442.92,149.32 -563.47,176.69 -753.38,171.03 -135.82,106.74 251.77,122.8 365.65,15.16 133.31,-39.22 -103.9,63.82 -61.26,26.61 -705.98,227.69 -607.32,203.65 169.16,-41.22 839.04,-358.59 958.44,-360.52 36.57,-0.58 -73.49,1.77 -157.52,33.67 -312.99,118.8 -1191.28,40.82 -284.36,159.54 2.66,0.34 285.06,21.64 226.84,40.21 -40.96,13.06 -50.21,23.46 -124.42,45.05 -231.8,67.45 -337.48,117.54 -606.91,158.33 -12.93,1.95 -373.52,87.78 -172.41,84.46 38.28,-0.63 14.64,3.23 10.42,11.08"/>
  </g>
 </g>
</svg>
