<?xml version="1.0" encoding="UTF-8"?>
<!DOCTYPE svg PUBLIC "-//W3C//DTD SVG 1.1//EN" "http://www.w3.org/Graphics/SVG/1.1/DTD/svg11.dtd">
<!-- Creator: CorelDRAW -->
<svg xmlns="http://www.w3.org/2000/svg" xml:space="preserve" width="1046.17mm" height="1065.56mm" version="1.1" style="shape-rendering:geometricPrecision; text-rendering:geometricPrecision; image-rendering:optimizeQuality; fill-rule:evenodd; clip-rule:evenodd"
viewBox="0 0 80740.42 82236.69"
 xmlns:xlink="http://www.w3.org/1999/xlink"
 xmlns:xodm="http://www.corel.com/coreldraw/odm/2003">
 <defs>
  <style type="text/css">
   <![CDATA[
    .fil6 {fill:#F9C2BE;fill-rule:nonzero}
    .fil8 {fill:#FAAA31;fill-rule:nonzero}
    .fil0 {fill:#F6E9E8;fill-rule:nonzero}
    .fil1 {fill:#E8B7B3;fill-rule:nonzero}
    .fil5 {fill:#D4A3A1;fill-rule:nonzero}
    .fil7 {fill:#282828;fill-rule:nonzero}
    .fil3 {fill:#395157;fill-rule:nonzero}
    .fil4 {fill:#F0D079;fill-rule:nonzero}
    .fil2 {fill:#F69E88;fill-rule:nonzero}
   ]]>
  </style>
 </defs>
 <g id="Layer_x0020_1">
  <metadata id="CorelCorpID_0Corel-Layer"/>
  <path class="fil0" d="M29934.06 38739.13c-311.19,-233.61 -867.7,-828.51 -1175.63,-1066.74l738.38 -133.95c114.62,311.46 339.24,927.6 437.26,1200.69z"/>
  <path class="fil0" d="M46924.98 33687.81c329.72,-193.04 671.68,-374.63 967.36,-618.58 41.38,1068.63 50.37,2123.93 2.72,3192.3 -296.5,378.45 -597.62,734.03 -971.99,1038.69 -78.95,-1179.72 -84.4,-2434.05 1.91,-3612.41z"/>
  <path class="fil0" d="M52895.74 20644.99c-282.61,-31.58 -566.58,-73.24 -851.1,-71.61 47.1,-904.19 29.67,-1814.1 43.83,-2700.59 16.07,-1006.29 -30.76,-1993.25 -58.53,-2997.36 312.55,421.74 613.4,843.47 894.65,1287.26 -130.95,1473.22 56.63,2998.71 -28.86,4482.29z"/>
  <path class="fil0" d="M53822.25 18125.19c955.65,-44.92 1687.23,154.38 2404.09,804.81 620.49,562.78 1007.65,1297.89 1040.87,2144.62 34.58,890.31 -273.62,1829.35 -901.47,2472.71 -520.3,533.09 -1394.81,980.97 -2148.71,980.42 -32.13,0 -64.53,-1.09 -96.66,-1.63 673.59,-468.3 1320.49,-538.54 1828.26,-1285.36 457.13,-672.21 643.91,-1564.15 490.35,-2364.34 -278.53,-1452.53 -1498,-1965.47 -2576.44,-2722.64l-40.29 -28.59z"/>
  <path class="fil0" d="M52028.57 21199.6l854.37 25.59c-104.28,3762.14 -864.44,7383.8 -3718.04,10079.5 -697.54,658.88 -1491.74,1308.5 -2360.54,1727.51 90.12,-319.91 1126.63,-1048.76 1413.59,-1343.35 1841.87,-1891.42 3056.98,-4617.61 3495.06,-7207.11 182.42,-1078.98 231.15,-2190.92 315.55,-3282.15z"/>
  <path class="fil0" d="M79868.41 75654.62c-696.73,1096.68 -1653.46,1929.26 -2944.27,2208.6 -161.72,34.85 -322.63,54.46 -487.35,65.62l1.36 -35.12c0.55,-9.8 3.26,-19.33 8.98,-27.23 8.71,-12.52 21.24,-22.05 35.67,-27.22l411.66 -153.83c1026.43,-371.92 1945.87,-1642.03 2430.5,-2569.9 912.91,-1747.66 662.42,-3291.68 101.29,-5094.88 -1020.72,-317.46 -2013.67,-900.65 -3003.35,-1314.77 -1750.94,-732.66 -3558.5,-1390.45 -5338.02,-2056.14 -856.81,-320.45 -2998.44,-843.47 -3597.7,-1328.65l4.35 -114.35c1791.77,330.53 3589.81,1003.3 5293.9,1640.94 2639.88,987.78 5253.89,2021.84 7674.31,3479.54 418.74,1873.45 477.55,3645.07 -591.36,5327.4z"/>
  <path class="fil1" d="M53256.22 24496.72c237.41,-1484.66 266,-2960.33 262.19,-4459.69 -0.82,-296.22 -67.24,-1663.53 7.08,-1850.86 11.44,-28.86 43.57,-44.11 65.35,-66.43l231.42 5.44 40.29 28.59c1078.44,757.17 2297.91,1270.11 2576.44,2722.64 153.56,800.19 -33.22,1692.13 -490.35,2364.34 -507.77,746.82 -1154.67,817.07 -1828.26,1285.36 -293.77,53.64 -570.93,6.81 -864.16,-29.4z"/>
  <path class="fil1" d="M26062.19 17961.56c119.52,-11.71 240.14,0 359.39,43.84 428.27,157.37 590.54,664.6 729.66,1054.75 329.17,924.88 429.36,1932.53 508.04,2904.79 62.08,769.42 81.68,1541.28 141.85,2310.7 -711.97,105.64 -1227.64,89.3 -1914.83,-148.93 -825.23,-385.52 -1508.07,-974.16 -1837.78,-1848.67 -316.1,-837.76 -277.17,-1850.58 106.72,-2658.39 189.5,-398.87 466.94,-753.36 800.46,-1041.41 292.14,-252.39 692.64,-575.83 1106.48,-616.68z"/>
  <path class="fil2" d="M36949.76 78851.01c2383.67,37.03 4791.85,42.74 7175.53,17.15 4.08,167.44 31.58,1706.01 -5.45,2138.37 -26.13,303.58 -44.38,665.41 -273.08,894.11 -122.8,122.8 -293.23,187.05 -463.94,220.26 -475.91,93.11 -4819.35,173.43 -5589.58,60.45 -258.38,-38.12 -522.47,-142.67 -674.68,-355.31 -231.42,-323.45 -156.28,-781.4 -170.71,-1154.4 -5.99,-146.47 -64.26,-1821.72 1.91,-1820.63z"/>
  <path class="fil0" d="M52002.71 37500.33c4635.57,803.45 10130.95,3318.08 13616.75,6500.85 1499.36,1368.95 2758.59,2982.11 3923.6,4638.02 1609.9,2288.11 3000.9,4718.34 4381.28,7148.3 1894.96,3336.33 3625.2,6653.6 5049.14,10222.16 448.42,1123.37 895.75,2160.42 1199.6,3333.06 -338.7,-189.77 -516.76,-275.26 -831.5,-453.32 -431.81,-1412.51 -1042.77,-2688.06 -1632.77,-4032.5 -434.8,-990.49 -833.67,-1997.05 -1300.6,-2973.67 -1617.8,-3299.3 -3398.68,-6508.2 -5342.64,-9626.71 -1166.38,-1895.77 -2383.13,-3884.94 -3859.62,-5557.46 -259.74,-296.77 -526.29,-587.55 -799.37,-872.33 -273.08,-284.79 -552.42,-563.32 -838.03,-835.58 -285.33,-272.54 -576.92,-538.27 -874.51,-797.46 -297.58,-258.93 -600.62,-511.31 -909.63,-756.9 -308.75,-245.58 -622.94,-483.81 -942.58,-715.23 -319.64,-231.42 -644.18,-455.5 -973.88,-672.22 -329.72,-216.72 -664.06,-426.1 -1003.3,-627.84 -338.97,-201.75 -682.29,-395.87 -1030.25,-582.1 -1460.43,-776.5 -3051.53,-1471.59 -4611.61,-2024.01 -749.55,-265.45 -1541.83,-443.51 -2273.4,-752.81 -270.36,-114.35 -689.1,-286.69 -891.13,-500.15 -19.06,-20.14 -37.02,-41.38 -55.54,-62.07z"/>
  <path class="fil0" d="M56250.58 76774.99c911.54,-1.37 1821.99,24.77 2731.9,78.14 909.9,53.09 1817.36,133.41 2722.37,240.95 905.01,107.28 1806.2,241.77 2703.31,402.95 896.84,161.45 1788.24,349.32 2674.18,563.86 728.85,176.97 1524.68,333.79 2215.68,627.3 -1747.12,-35.94 -3494.78,11.98 -5241.9,26.95l-6090.27 6.54 -8804.21 27.23c-1432.11,14.42 -2868.57,121.43 -4299.59,74.33 761.25,-229.8 1564.15,-357.21 2337.38,-547.8 1202.59,-296.23 2388.57,-638.19 3605.33,-877.24 1791.49,-351.5 3625.74,-511.31 5445.83,-623.21z"/>
  <path class="fil0" d="M22878.06 77000.97c3519.29,-207.74 7038.57,310.65 10468.83,1047.13 1056.39,226.79 2126.66,433.71 3149.28,787.93 -1465.6,46.01 -2940.72,3.8 -4407.69,-4.9l-6925.31 -20.42 -8923.19 -10.62c-1556.8,7.9 -3121.97,81.68 -4677.42,19.06 3316.65,-1449.54 7735.49,-1617.79 11315.49,-1818.18z"/>
  <path class="fil3" d="M30905.23 5096.53c0,0 -2065.94,3015.59 -959.46,6228.58 -1585.67,2382.86 -2003.32,4615.42 -2301.72,7173.08 -147.02,-300.85 -914.81,-1139.7 -1120.37,-1287.81 -817.34,-2163.14 -861.99,-6053.25 20.69,-8143.7 805.9,-1909.39 2474.88,-3254.37 4360.85,-3970.15z"/>
  <path class="fil0" d="M48541.69 33677.19c967.9,460.13 2089.63,1288.36 2455.28,2340.93 265.73,764.79 -230.07,1792.58 -561.14,2478.69 -834.76,1731.06 -2419.61,4038.5 -4345.6,4671.24 -752.54,247.21 -1387.19,102.1 -2067.58,-250.21 -1123.91,-640.36 -2086.9,-1539.93 -2900.7,-2538.04 2444.11,-384.44 5044.78,-1342.81 6806.6,-3152.28 218.63,-224.62 423.37,-479.46 522.2,-781.13 232.78,-708.97 96.38,-1994.61 90.94,-2769.2z"/>
  <path class="fil0" d="M33109.75 33340.41c120.89,636 58.81,2107.33 14.98,2793.97 -193.04,-18.51 -347.95,-43.56 -531.47,28.86 -43.56,64.8 -88.48,100.73 -85.22,183.23 11.99,304.66 659.97,988.59 885.95,1225.19 1577.77,1652.91 4534.84,2711.21 6784.55,2773.01 -644.99,975.79 -1899.86,1869.36 -2891.45,2465.62 -155.46,105.37 -353.12,200.66 -525.74,276.62 -544.53,240.14 -1076.26,211.28 -1625.69,7.9 -2042.8,-755.81 -3912.98,-2825.02 -4784.77,-4782.33 -356.13,-800.18 -468.84,-1692.12 -133.42,-2521.44 502.33,-1241.26 1717.17,-1956.22 2892.26,-2450.65z"/>
  <path class="fil0" d="M55352.1 74240.48c2267.96,-40.02 4525.85,296.22 6751.88,689.1 2866.94,505.87 5637.23,1150.32 8432.3,1962.76 -33.49,444.06 -51.73,888.67 -55.27,1334.09 -1457.15,-238.23 -3054.53,-721.23 -4521.49,-1037.33 -2329.22,-502.59 -4659.8,-803.45 -7033.4,-984.5 -759.62,-19.06 -1519.77,-71.06 -2279.94,-61.53 -1150.86,24.77 -2297.64,105.37 -3440.6,241.5 -1142.96,136.41 -2276.4,327.81 -3400.85,574.21 -1592.75,352.85 -3163.7,943.4 -4775.78,1185.98 -462.85,69.7 -942.85,78.69 -1410.33,101.56 919.17,-979.61 2212.15,-1596.01 3431.89,-2113.31 2773.56,-1176.18 5286.29,-1788.78 8301.61,-1892.51z"/>
  <path class="fil0" d="M23423.41 74182.22l104.54 -10.08c654.8,-57.44 1350.16,-18.51 2007.4,-3.26 4290.07,98.83 8688.23,1247.52 12040.62,4017.53 -1358.06,-35.12 -3071.14,-612.86 -4446.07,-882.68 -2128.56,-417.92 -4315.39,-805.9 -6479.89,-950.75 -930.06,-62.34 -1876.72,-36.48 -2808.95,-39.48 -3341.23,-35.39 -6828.12,423.91 -10081.13,1192.79 -1261.73,298.4 -2439.38,795.01 -3795.45,1101.58 168.64,-343.05 346.53,-782.21 514.83,-1136.16 4020.36,-1688.85 8597.12,-2909.42 12944.09,-3289.5z"/>
  <path class="fil0" d="M54521.97 71978.51c4969.37,-338.15 10000.54,1332.74 14742.02,2595.22 -138.86,405.4 -257.56,809.44 -363.2,1224.64 -1279.1,-373.27 -2589.78,-659.7 -3892.02,-939.31 -3786.65,-813.53 -7731.76,-1432.11 -11613.43,-1125.82 -3006.07,388.26 -6318.71,1436.47 -8856.75,3113.35 -645,426.1 -1214.85,950.75 -1811.65,1440l-1633.86 -15.52c250.22,-515.67 659.7,-1011.18 1032.97,-1443 2832.37,-3273.98 8241.44,-4567.77 12395.92,-4849.57z"/>
  <path class="fil0" d="M25250.84 71703.25c3037.11,-255.93 7933.78,1400.81 10631.38,2767.57 1604.45,812.98 3927.41,1971.74 4518.5,3773.85 -654.52,0 -1306.6,0.82 -1960.3,-36.75 -2720.19,-2634.98 -6281.95,-3828.31 -9935.47,-4442.54 -5644.58,-774.32 -11466.4,553.25 -16705.13,2639.6 3.3,-500.15 -21.05,-1001.66 -36.37,-1501.54 778.63,-364.56 1656.97,-592.99 2472.13,-868.24 3667.4,-1237.44 7149.93,-2025.92 11015.26,-2331.95z"/>
  <path class="fil0" d="M46266.65 17371.84c963.54,-13.34 1935.25,301.39 2700.04,951.83 1133.16,964.36 1625.69,2598.22 1228.46,4031.15 -457.41,1650.74 -2042.8,2842.98 -3740.91,2910.23 -470.2,18.78 -943.12,-48.74 -1388.27,-202.3 -456.59,-157.36 -879.14,-402.68 -1246.98,-714.96 -1651.82,-1401.62 -1954.31,-4094.04 -450.05,-5715.37 744.1,-802.1 1808.11,-1245.34 2897.71,-1260.58z"/>
  <path class="fil4" d="M19903.03 63199.08c62.07,-34.31 139.4,0 155.74,69.15 98.02,414.12 1434.29,6171.42 1865.83,8171.47 -1893.06,415.48 -7138.77,1760.47 -7138.77,1760.47 -19.87,-2403.01 11.17,-4790.76 46.83,-7191.05 1.91,-135.04 81.14,-256.75 203.39,-313.92 1636.03,-762.07 3288.68,-1624.33 4866.99,-2496.12z"/>
  <path class="fil0" d="M34259.25 17322.28c7.35,-1.64 14.43,-3.81 22.06,-4.9 870.43,-108.63 1857.66,198.48 2565.27,702.71 856,609.87 1500.17,1583.21 1661.9,2626.81 171.53,1105.93 -83.04,2204.25 -756.34,3102.18 -674.68,899.83 -1585.4,1377.11 -2685.34,1542.65 -1075.44,114.89 -2066.48,-139.68 -2922.76,-808.35 -874.79,-683.38 -1394.27,-1699.74 -1514.6,-2796.7 -112.72,-1026.16 223.53,-2072.2 870.43,-2872.66 692.64,-857.63 1671.43,-1372.21 2759.4,-1491.74z"/>
  <path class="fil5" d="M33789.86 33642.07c352.58,201.48 714.69,384.44 1086.06,548.61 371.37,164.18 750.36,309.02 1136.44,434.26 3642.89,1192.52 7514.77,782.76 10912.62,-937.13 -86.31,1178.36 -80.86,2432.68 -1.91,3612.41 -1642.02,1398.07 -4013.99,2329.49 -6169.77,2422.33 -2517.9,108.36 -5125.1,-951.56 -6966.16,-2632.52 -9.25,-1149.5 -8.17,-2298.72 2.72,-3447.96z"/>
  <path class="fil4" d="M60208.2 62654.01c685.02,315.01 1337.37,751.17 2001.41,1113.56 1349.07,736.75 2698.96,1467.5 4037.95,2221.68 230.61,129.87 370.28,377.08 363.47,641.45 -55.54,2167.22 -271.72,4329.82 -512.94,6482.88l-645.27 -156.28c-2224.67,-637.1 -4459.96,-1064.55 -6729.01,-1501.54 500.15,-2910.51 966.54,-5897.25 1484.38,-8801.76z"/>
  <path class="fil2" d="M8898.65 79445.63c593.78,-151.11 1287.24,-53.64 1898.91,-43.57 1955.15,31.31 3906.03,30.22 5862.25,22.87l19736.98 10.62c-1.64,776.5 0,1565.8 0,2336.3l-930.87 0 -14992.5 1.09c-2130.47,-15.52 -4260.93,-19.33 -6391.4,-11.44 -828.42,0 -1657.03,7.63 -2485.5,14.43 -804.78,6.54 -1626.23,66.43 -2429.44,25.59 -478.72,-24.5 -896.24,-317.18 -1116.93,-741.37 -136.19,-261.65 -169.67,-561.14 -69.62,-841.02 158.3,-442.7 509.68,-669.5 918.13,-773.5z"/>
  <path class="fil2" d="M65687.53 79310.86c1289.99,-28.05 2582.42,-20.42 3872.96,-26.14 755.26,-3.26 1604.45,-80.59 2347.73,52.82 356.94,63.99 738.66,202.02 943.4,522.2 189.22,296.22 180.24,674.13 102.1,1004.93 -88.21,373.28 -359.66,661.33 -706.25,814.34 -251.84,111.08 -2622.45,153.01 -3532.36,129.33 -908.28,-23.96 -1820.63,-7.08 -2729.45,-9.53l-13935.84 -38.66 -7493.26 21.24c136.95,-794.47 133.14,-1543.47 113.81,-2345.56 1957.31,18.24 3922.24,-46.56 5881.18,-53.1l15135.99 -71.88z"/>
  <path class="fil4" d="M79324.97 75115.54c-484.63,927.87 -1404.06,2197.99 -2430.5,2569.9l-411.66 153.83c-14.43,5.17 -26.96,14.7 -35.67,27.22 -5.72,7.9 -8.44,17.43 -8.98,27.23l-1.36 35.12c-1759.65,215.09 -5045.33,-1342.54 -6871.41,-1969.83 139.13,-573.66 272.81,-1132.07 447.06,-1681.5 -1083.61,-331.62 -2245.9,-712.79 -3318.63,-1078.17 167.44,-1882.71 411.39,-3752.89 515.13,-5638.59 25.59,-467.75 124.43,-1060.47 17.15,-1510.79 -111.9,-469.93 -1029.97,-747.64 -1423.94,-965.18 567.67,6.53 1125.27,66.43 1689.39,121.97l-4.35 114.35c599.25,485.17 2740.88,1008.2 3597.7,1328.65 1779.52,665.69 3587.08,1323.48 5338.02,2056.14 989.67,414.12 1982.62,997.31 3003.35,1314.77 561.13,1803.2 811.62,3347.22 -101.29,5094.88z"/>
  <path class="fil4" d="M14234.49 64799.17c69.97,-20.41 115.44,-6.53 132.32,69.98 14.7,66.43 -196.58,8607.36 -207.47,8610.63 -1023.14,309.57 -2072.91,630.83 -3067.5,1021.53 -1.11,661.6 105.23,1323.2 110.52,1989.17 -1666.29,495.25 -4373.11,1390.45 -6094.06,1385.55 -1294.97,-3.81 -2429.15,-455.22 -3335.02,-1374.12 -556.26,-674.67 -936.86,-1358.6 -1255.84,-2173.76 -430.5,-1100.22 -776.42,-2404.91 -254.98,-3538.35 202.19,-439.16 610.23,-947.2 1033.06,-1194.42 663.01,-387.71 1403.41,-650.17 2123.49,-909.09 1494.24,-537.18 2991.4,-1066.19 4486.75,-1600.09 860.25,-307.12 1718.94,-618.58 2576.89,-929.52 426.94,-154.64 853.85,-309.56 1280.66,-464.75 228.51,-83.04 457.1,-166.08 685.67,-248.85 196.35,-71.33 392.72,-142.39 589.1,-213.73 164.69,-59.63 1168.36,-422.28 1196.41,-430.18z"/>
  <path class="fil6" d="M52088.47 17872.8c-14.15,886.49 3.27,1796.4 -43.83,2700.59 -349.05,47.37 -698.63,92.84 -1048.22,136.67 -129.87,-583.73 -322.9,-1152.77 -622.4,-1672.25 -643.09,-1114.92 -1790.41,-1908.02 -3025.12,-2238.56 -1121.73,-300.3 -2255.44,-119.25 -3254.38,460.95 -1319.11,766.15 -1988.89,1952.68 -2371.97,3392.95 -836.39,-244.49 -1656.46,-312.55 -2496.11,-45.74 -70.25,-283.7 -386.34,-1066.74 -430.45,-1163.93 -300.58,-664.33 -764.52,-1261.67 -1331.92,-1719.35 -1067.82,-860.9 -2519.27,-1212.93 -3860.17,-917.8 -1011.46,222.44 -1949.13,787.12 -2570.44,1622.15 -465.3,625.39 -756.62,1360.5 -967.9,2105.69 -600.07,-6.26 -1188.7,26.14 -1785.23,93.38 -65.35,-3127.22 375.18,-6321.7 2205.89,-8949.05 930.33,420.92 2038.98,628.38 3050.72,720.41 4951.4,449.78 9987.74,-1645.3 13733.82,-4786.13 616.14,1051.49 1318.57,2060.49 1996.51,3073.32 932.78,1388.54 1853.57,2784.99 2762.67,4189.33 27.77,1004.11 74.6,1991.07 58.53,2997.36z"/>
  <path class="fil7" d="M34248.36 14076.08c158.46,-9.8 313.92,3.81 460.4,49.83 186.5,58.54 352.04,215.09 310.11,421.19 -101.28,496.6 -811.35,601.7 -1207.49,728.85 -621.04,199.3 -1061.01,754.72 -1695.93,911.82 -334.34,82.76 -353.67,-201.21 -282.34,-449.51 155.19,-540.72 604.7,-937.13 1083.07,-1199.05 370.82,-203.12 864.98,-434.54 1332.19,-463.13z"/>
  <path class="fil7" d="M45854.71 14088.6c74.88,-31.04 156.01,-47.65 236.32,-44.65 560.59,19.88 1104.58,248.03 1588.94,515.95 303.03,167.71 603.88,349.58 858.99,585.91 224.89,208.01 540.72,569.03 430.45,902.55 -36.21,109.45 -115.98,204.2 -217.81,258.65 -49.01,26.14 -104.28,43.57 -159.82,42.2 -356.13,-8.98 -637.1,-518.39 -897.11,-710.61 -329.17,-243.4 -694.82,-370.82 -1092.33,-449.5 -321,-63.44 -777.04,-131.5 -993.77,-409.49 -214.82,-275.26 -24.23,-578.56 246.13,-691.01z"/>
  <path class="fil6" d="M39224.26 21225.74c885.94,-125.51 1606.63,-144.03 2469.43,104.27 86.31,1067.28 446.24,2085 1135.34,2912.96 804.81,967.36 2003.05,1602.28 3266.63,1653.19 1300.88,52.27 2604.48,-448.69 3530.72,-1364.05 842.12,-831.77 1263.85,-1934.98 1354.79,-3102.73 347.14,-109.17 688.55,-172.61 1047.4,-229.79 -84.4,1091.23 -133.14,2203.16 -315.55,3282.15 -438.07,2589.5 -1653.18,5315.68 -3495.06,7207.11 -286.96,294.59 -1323.47,1023.44 -1413.59,1343.35 -1560.07,1073.81 -4456.15,1625.14 -6361.18,1634.95 -3069.51,15.79 -6211.98,-955.1 -8424.67,-3164.52 -2948.35,-2944 -3696.81,-6255.82 -3699.25,-10279.88 558.96,-92.3 1129.9,-68.07 1693.76,-48.47 33.49,1214.57 325.08,2239.38 1120.1,3183.86 770.51,915.08 1955.12,1489.02 3143.56,1586.22 1213.75,99.1 2416.61,-344.14 3331.15,-1134.25 1126.09,-972.8 1502.63,-2137.01 1616.44,-3584.36z"/>
  <path class="fil7" d="M38192.92 24679.14c19.88,-5.45 40.57,-8.17 61.53,-7.35 53.09,1.91 102.65,25.32 147.84,52.82 179.97,109.45 298.4,284.52 446.24,429.36 158.73,155.74 325.36,305.48 511.58,428.55 347.14,229.79 773.78,327.8 1187.07,282.61 458.76,-50.37 799.1,-277.98 1137.79,-574.21 68.34,-59.9 137.49,-119.25 210.19,-173.97 117.89,-88.76 340.6,-252.66 495.25,-163.91 251.84,144.85 56.63,571.48 -74.06,722.87 -598.71,693.18 -1617.25,964.08 -2498.84,793.92 -37.3,-7.08 -74.33,-14.97 -111.08,-23.69 -585.37,-138.86 -1122.55,-473.2 -1505.35,-937.13 -86.31,-104.55 -166.63,-218.63 -203.66,-349.05 -36.76,-130.68 -24.77,-281.24 59.9,-387.43 34.58,-43.56 82.49,-78.68 135.59,-93.38z"/>
  <path class="fil7" d="M44959.78 28184.53c4.9,-4.62 10.08,-9.25 15.25,-13.88 241.23,-214.82 471.83,55.54 440.52,314.74 -32.94,272.27 -252.11,506.68 -432.62,696.73 -869.89,914.81 -2033.54,1408.15 -3266.08,1600.91 -390.7,60.99 -784.4,101.29 -1179.45,118.17 -310.92,13.34 -847.55,99.1 -931.14,-326.71 -90.66,-462.04 680.39,-354.22 924.88,-347.14 721.77,20.7 1448.17,-38.66 2126.38,-299.76 619.4,-238.51 1189.8,-603.34 1664.08,-1067.55 219.99,-215.36 410.85,-469.11 638.19,-675.49z"/>
  <path class="fil3" d="M55829.93 10935.24c0,857.35 -176.71,1650.47 -435.63,2460.45 -134.23,419.01 -275.26,835.85 -404.59,1256.5 -65.89,214 -204.74,506.95 -180.78,737.29 -88.21,350.41 -495.79,843.48 -698.08,1166.65 -503.97,-652.89 -1028.35,-1360.5 -1496.91,-2031.09 -1093.96,-1560.62 -2159.87,-3140.02 -3197.47,-4738.76 -651.8,-999.21 -1328.65,-2083.63 -2058.05,-3036.28 -468.29,364.83 -1000.84,811.62 -1489.83,1185.98 -1095.59,838.57 -2250.81,1508.88 -3500.77,2089.9 -3033.57,1410.87 -6688.71,2200.17 -10007.07,1529.04 -646.63,-130.68 -1264.12,-350.95 -1882.16,-576.38 -217.81,-916.99 -178.88,-1974.46 -16.61,-2897.16 428,-2436.49 2035.72,-4548.99 4031.42,-5947.06 2310.98,-1618.62 5472.79,-2502.11 8280.37,-1988.08 2420.16,443.52 3965.8,1837.51 5335.29,3805.16 228.43,-48.46 461.22,-103.46 694.82,-119.79 899.56,-63.71 3382.07,457.14 4077.16,1050.94 13.07,19.06 25.86,38.4 39.21,57.18 278.53,392.88 780.58,673.58 1097.77,1051.76 43.84,51.45 86.58,103.19 129.06,155.74 1083.07,1344.44 1682.87,3062.42 1682.87,4788.04z"/>
  <path class="fil0" d="M59110.71 59076.45c69.7,-2.45 139.95,-6.81 209.37,5.17 203.66,35.12 432.35,180.24 547.53,351.77 142.39,211.55 105.64,491.71 86.58,733.48 -97.47,1249.97 -376.27,2523.08 -587.27,3761.6 -425.82,2497.75 -883.22,4984.34 -1270.65,7489.44 -2206.98,-105.09 -4386.99,-156.01 -6573.55,212.64 -3134.03,528.19 -6943.55,1868.82 -9246.09,4121.81 -396.69,388.26 -717.15,827.69 -1037.87,1278.83 -99.92,-789.29 -2072.48,-12925.74 -2072.48,-12925.74 692.91,-253.21 1449.81,-416.02 2161.78,-620.77 1952.14,-569.31 3915.43,-1096.95 5889.89,-1583.21 2536.15,-642.55 5079.36,-1254.59 7629.94,-1836.15 1417.95,-332.71 2834.81,-703.26 4262.84,-988.86z"/>
  <path class="fil0" d="M19182.62 53813.31c336.79,-87.94 772.14,102.92 1075.44,212.37 413.03,149.2 814.61,327.53 1226.28,479.73l4093.23 1534.48c1952.68,729.12 3917.88,1424.21 5876.28,2137 979.88,356.4 1957.85,717.42 2931.74,1089.06 924.07,352.58 1880.25,677.94 2773.56,1103.22 355.3,169.07 683.65,382.26 827.13,765.88 84.68,225.16 121.71,466.39 157.92,703.53 82.22,533.09 173.97,1067.55 267.36,1599 0,0.55 722.87,4112.28 722.87,4112.28 350.68,1963.03 669.5,3931.22 955.92,5904.59 165.54,1079.52 368.64,2147.62 453.59,3235.32 11.44,144.85 -171.8,216.72 -261.38,101.83 -3.26,-4.36 -7.08,-8.44 -10.89,-12.53 -337.33,-347.95 -698.08,-669.77 -1081.98,-965.45 -3622.48,-2811.95 -9026.64,-4630.13 -13605.59,-4679.4 -969.26,-10.35 -1937.7,130.41 -2898.79,249.94 -72.15,8.98 -140.22,-36.48 -159.28,-106.73 -401.86,-1478.67 -707.62,-2993.27 -1047.13,-4486.92l-1670.34 -7420.01c-123.07,-558.42 -266.82,-1112.47 -400.77,-1668.43 -172.07,-715.24 -341.15,-1431.84 -481.36,-2154.16 -47.38,-244.22 -98.56,-498.25 -130.96,-749 -29.67,-230.61 -82.76,-505.6 41.66,-717.42 88.75,-151.11 209.1,-232.52 345.5,-268.18z"/>
  <path class="fil4" d="M40284.73 63092.62c-408.4,156.01 -813.53,290.51 -1235.54,404.86 -160.64,-621.58 -219.45,-1274.47 -347.68,-1904.49 -103.46,-508.31 -288.33,-1141.6 -751.44,-1434.02 -869.62,-548.88 -1838.88,-832.58 -2790.17,-1200.14l-5048.33 -1903.4 -6779.65 -2495.03c-1112.47,-409.76 -2217.59,-899.28 -3349.66,-1247.79 -286.97,-88.48 -579.38,-188.14 -879.96,-111.08 -214.55,54.73 -382.26,161.72 -522.47,298.68 -350.95,342.23 -494.16,843.74 -401.86,1325.38 144.03,752.54 356.4,1510.79 517.3,2249.99 381.44,1801.57 772.68,3600.97 1173.46,5398.46 -887.04,628.11 -1884.61,1094.77 -2849.79,1589.75 187.59,-1110.57 337.33,-2227.12 472.65,-3345.04 126.05,-1041.95 338.97,-2127.47 350.13,-3176.5 1.09,-174.8 -29.67,-660.51 -302.49,-600.08 -163.63,36.49 -265.73,347.41 -297.58,487.08 -166.36,724.77 -182.42,1562.8 -270.09,2304.44 -191.13,1553.82 -395.6,3105.99 -612.86,4656.54 -435.35,249.12 -896.29,443.79 -1361.59,628.38 -4.08,-166.63 -4.36,-333.52 -11.71,-499.88 -8.17,-178.06 21.24,-580.74 -273.08,-487.62 -93.93,29.67 -187.86,58.81 -281.79,88.48 -187.59,58.81 -375.18,118.44 -562.5,179.15 -1106.57,358.03 -2188.27,781.67 -3283.04,1173.19l-9298.64 3422.36c317.46,-678.48 616.41,-1404.33 919.44,-2101.88l1622.69 -3657.32c1702.2,-3808.98 3511.4,-7571.67 5617.08,-11176.45 3687,-6313.54 7650.17,-10739.19 14722.77,-13098.63 784.39,-261.65 1593.83,-509.41 2398.38,-700.54 728.03,-172.88 2206.42,-430.72 2930.1,-621.03 188.25,413.96 34.42,356.13 437.26,1200.69 184.6,319.64 347.41,702.44 507.5,982.06 355.58,621.3 799.09,1170.18 1282.09,1697.29 998.12,1089.33 2623.54,2455.28 4186.33,2490.4 1511.07,34.04 3313.73,-1671.16 4323.01,-2670.91 73.23,2521.98 51.73,21854.65 51.73,21854.65z"/>
  <path class="fil4" d="M51534.68 37400.68c162.81,23.69 310.11,53.91 468.03,99.65 18.51,20.69 36.48,41.93 55.54,62.07 202.03,213.46 620.77,385.8 891.13,500.15 731.57,309.3 1523.86,487.36 2273.4,752.81 1560.08,552.43 3151.19,1247.52 4611.61,2024.01 347.95,186.23 691.28,380.35 1030.25,582.1 339.24,201.75 673.58,411.12 1003.3,627.84 329.71,216.72 654.25,440.8 973.88,672.22 319.65,231.42 633.83,469.65 942.58,715.23 309.02,245.59 612.05,497.97 909.63,756.9 297.59,259.19 589.18,524.92 874.51,797.46 285.61,272.27 564.95,550.79 838.03,835.58 273.08,284.78 539.63,575.56 799.37,872.33 1476.49,1672.52 2693.24,3661.68 3859.62,5557.46 1943.96,3118.51 3724.84,6327.42 5342.64,9626.71 466.93,976.62 865.8,1983.18 1300.6,2973.67 590,1344.44 1200.96,2620 1632.77,4032.5 -3468.37,-1618.34 -6465.46,-2770.29 -10107.81,-3903.45 -917.81,-285.6 -1894.42,-680.66 -2843.53,-828.78 -798.55,-124.7 -1128.81,406.76 -1645.57,329.17 -133.96,-20.14 -255.66,-116.53 -316.1,-238.23 -115.43,-231.96 -83.04,-1738.68 -96.38,-2111.14 -72.69,-2041.71 -165.81,-4082.6 -279.61,-6122.67 -19.06,-380.9 -17.43,-762.07 -22.06,-1143.24 -4.63,-374.9 -19.87,-747.91 -55.27,-1121.18 -7.63,-81.41 -38.12,-160.64 -86.59,-226.52 -54.18,-74.05 -157.91,-83.85 -242.85,-80.86 -218.63,7.9 -250.22,273.35 -252.93,441.61 -16.07,921.34 93.38,1882.98 133.13,2806.23 103.46,2396.47 234.15,4807.92 251.84,7205.75 -1172.91,-623.48 -2381.49,-1219.74 -3521.19,-1900.68 144.3,-745.19 450.32,-1739.23 263,-2482.78 -96.38,-384.17 -334.61,-692.09 -675.22,-892.49 -276.62,-162.54 -610.14,-150.84 -919.98,-118.16 -524.66,55.27 -1054.48,214.55 -1568.52,331.89l-2307.44 503.42c-3120.42,680.93 -6222.59,1436.74 -9306.81,2267.41 -1636.85,432.35 -3262,900.38 -4905.66,1309.05 41.66,-2103.79 10.35,-21870.72 10.35,-21870.72 884.85,1077.08 2243.73,2325.13 3601.78,2751.78 884.86,278.25 1737.32,89.84 2536.69,-330.53 2172.94,-1142.96 3829.67,-3786.1 4549.81,-6063.59z"/>
  <path class="fil7" d="M44246.17 56488.85c0,560.86 -454.4,1015.27 -1015.27,1015.27 -560.86,0 -1015.54,-454.41 -1015.54,-1015.27 0,-560.86 454.68,-1015.54 1015.54,-1015.54 560.87,0 1015.27,454.68 1015.27,1015.54z"/>
  <path class="fil8" d="M43548.91 56488.85c0,175.61 -142.39,318 -318.01,318 -175.61,0 -318,-142.39 -318,-318 0,-175.61 142.39,-318.01 318,-318.01 175.62,0 318.01,142.4 318.01,318.01z"/>
  <path class="fil7" d="M44246.17 49401.81c0,560.86 -454.4,1015.54 -1015.27,1015.54 -560.86,0 -1015.54,-454.68 -1015.54,-1015.54 0,-560.86 454.68,-1015.27 1015.54,-1015.27 560.87,0 1015.27,454.41 1015.27,1015.27z"/>
  <path class="fil8" d="M43548.91 49401.81c0,175.61 -142.39,318.01 -318.01,318.01 -175.61,0 -318,-142.4 -318,-318.01 0,-175.61 142.39,-318 318,-318 175.62,0 318.01,142.39 318.01,318z"/>
  <path class="fil7" d="M46935.33 21199.6c0,410.85 -332.98,744.1 -744.1,744.1 -410.85,0 -744.1,-333.25 -744.1,-744.1 0,-411.12 333.25,-744.37 744.1,-744.37 411.12,0 744.1,333.25 744.1,744.37z"/>
  <path class="fil7" d="M35596.34 21199.6c0,410.85 -332.98,744.1 -744.1,744.1 -410.85,0 -744.1,-333.25 -744.1,-744.1 0,-411.12 333.25,-744.37 744.1,-744.37 411.12,0 744.1,333.25 744.1,744.37z"/>
  <path class="fil0" d="M54808.94 15389.48c-23.96,-230.34 114.89,-523.29 180.78,-737.29 129.33,-420.65 270.36,-837.49 404.59,-1256.5 258.92,-809.98 435.63,-1603.1 435.63,-2460.45 0,-1725.61 -599.8,-3443.6 -1682.87,-4788.04 -42.48,-52.55 -85.22,-104.28 -129.06,-155.74 -317.19,-378.18 -819.24,-658.88 -1097.77,-1051.76 -13.34,-18.78 -26.14,-38.12 -39.21,-57.18 0,0 5878.18,2878.11 1927.9,10506.95z"/>
 </g>
</svg>
