<svg xmlns="http://www.w3.org/2000/svg" xmlns:xlink="http://www.w3.org/1999/xlink" width="1139" zoomAndPan="magnify" viewBox="0 0 854.25 194.249992" height="259" preserveAspectRatio="xMidYMid meet" version="1.0"><defs><clipPath id="d1088b0941"><path d="M 7.546875 6.769531 L 74.878906 6.769531 L 74.878906 99 L 7.546875 99 Z M 7.546875 6.769531 " clip-rule="nonzero"/></clipPath><clipPath id="bb6f9bb5b2"><path d="M 15.023438 98.933594 C 13.996094 98.933594 12.796875 98.6875 11.472656 97.972656 C 9.542969 96.933594 6.550781 93.917969 8.207031 85.402344 C 8.539062 83.691406 12.929688 66.824219 13.644531 64.691406 C 24.996094 30.234375 42.871094 12.261719 71.371094 6.820312 C 72.925781 6.523438 74.421875 7.558594 74.667969 9.121094 C 74.902344 10.597656 73.925781 12.007812 72.457031 12.289062 C 46.148438 17.324219 29.574219 34.140625 18.929688 66.445312 C 18.292969 68.359375 13.953125 85.035156 13.675781 86.464844 C 12.828125 90.820312 13.605469 92.792969 14.117188 93.070312 C 14.617188 93.339844 15.011719 93.421875 15.28125 93.316406 C 15.730469 93.136719 16.257812 92.441406 16.519531 91.6875 C 22.378906 71.144531 29.707031 56.457031 40.785156 43.1875 C 41.785156 41.988281 43.582031 41.855469 44.757812 42.882812 C 45.894531 43.878906 46.023438 45.601562 45.054688 46.765625 C 34.496094 59.425781 27.492188 73.511719 21.859375 93.277344 L 21.824219 93.390625 C 21.527344 94.289062 20.324219 97.304688 17.339844 98.492188 C 16.730469 98.734375 15.945312 98.933594 15.023438 98.933594 Z M 15.023438 98.933594 " clip-rule="nonzero"/></clipPath><clipPath id="f727113e62"><path d="M 0.722656 0.769531 L 67.878906 0.769531 L 67.878906 92.976562 L 0.722656 92.976562 Z M 0.722656 0.769531 " clip-rule="nonzero"/></clipPath><clipPath id="e492258480"><path d="M 8.023438 92.933594 C 6.996094 92.933594 5.796875 92.6875 4.472656 91.972656 C 2.542969 90.933594 -0.449219 87.917969 1.207031 79.402344 C 1.539062 77.691406 5.929688 60.824219 6.644531 58.691406 C 17.996094 24.234375 35.871094 6.261719 64.371094 0.820312 C 65.925781 0.523438 67.421875 1.558594 67.667969 3.121094 C 67.902344 4.597656 66.925781 6.007812 65.457031 6.289062 C 39.148438 11.324219 22.574219 28.140625 11.929688 60.445312 C 11.292969 62.359375 6.953125 79.035156 6.675781 80.464844 C 5.828125 84.820312 6.605469 86.792969 7.117188 87.070312 C 7.617188 87.339844 8.011719 87.421875 8.28125 87.316406 C 8.730469 87.136719 9.257812 86.441406 9.519531 85.6875 C 15.378906 65.144531 22.707031 50.457031 33.785156 37.1875 C 34.785156 35.988281 36.582031 35.855469 37.757812 36.882812 C 38.894531 37.878906 39.023438 39.601562 38.054688 40.765625 C 27.496094 53.425781 20.492188 67.511719 14.859375 87.277344 L 14.824219 87.390625 C 14.527344 88.289062 13.324219 91.304688 10.339844 92.492188 C 9.730469 92.734375 8.945312 92.933594 8.023438 92.933594 Z M 8.023438 92.933594 " clip-rule="nonzero"/></clipPath><clipPath id="ddad10912a"><rect x="0" width="68" y="0" height="93"/></clipPath><clipPath id="b7e5ec34c8"><path d="M 1.269531 0.316406 L 81.210938 0.316406 L 81.210938 105.660156 L 1.269531 105.660156 Z M 1.269531 0.316406 " clip-rule="nonzero"/></clipPath><clipPath id="5b7897d0a4"><path d="M 15.5625 51.800781 L 57.816406 51.800781 L 57.816406 123.808594 L 15.5625 123.808594 Z M 15.5625 51.800781 " clip-rule="nonzero"/></clipPath><clipPath id="f9081d4e95"><path d="M 27.148438 123.703125 C 24.238281 123.703125 21.46875 122.519531 19.9375 120.492188 C 15.34375 114.410156 14.691406 99.136719 16.492188 91.8125 L 21.902344 93.140625 C 20.296875 99.675781 21.25 112.980469 24.386719 117.136719 C 24.929688 117.855469 26.617188 118.378906 28.261719 118.007812 C 28.832031 117.878906 29.792969 117.550781 30.078125 116.765625 C 30.515625 95.425781 41.761719 67.953125 52.617188 52.941406 C 53.542969 51.660156 55.355469 51.421875 56.59375 52.402344 C 57.769531 53.332031 57.996094 55.011719 57.117188 56.226562 C 46.695312 70.65625 35.941406 97.519531 35.644531 117.191406 L 35.640625 117.457031 L 35.585938 117.714844 C 34.988281 120.578125 32.707031 122.71875 29.480469 123.445312 C 28.707031 123.617188 27.921875 123.703125 27.148438 123.703125 Z M 27.148438 123.703125 " clip-rule="nonzero"/></clipPath><clipPath id="4dacccef38"><path d="M 0.5625 0.800781 L 42.691406 0.800781 L 42.691406 72.808594 L 0.5625 72.808594 Z M 0.5625 0.800781 " clip-rule="nonzero"/></clipPath><clipPath id="5de8881272"><path d="M 12.148438 72.703125 C 9.238281 72.703125 6.46875 71.519531 4.9375 69.492188 C 0.34375 63.410156 -0.308594 48.136719 1.492188 40.8125 L 6.902344 42.140625 C 5.296875 48.675781 6.25 61.980469 9.386719 66.136719 C 9.929688 66.855469 11.617188 67.378906 13.261719 67.007812 C 13.832031 66.878906 14.792969 66.550781 15.078125 65.765625 C 15.515625 44.425781 26.761719 16.953125 37.617188 1.941406 C 38.542969 0.660156 40.355469 0.421875 41.59375 1.402344 C 42.769531 2.332031 42.996094 4.011719 42.117188 5.226562 C 31.695312 19.65625 20.941406 46.519531 20.644531 66.191406 L 20.640625 66.457031 L 20.585938 66.714844 C 19.988281 69.578125 17.707031 71.71875 14.480469 72.445312 C 13.707031 72.617188 12.921875 72.703125 12.148438 72.703125 Z M 12.148438 72.703125 " clip-rule="nonzero"/></clipPath><clipPath id="1e2abfcdbf"><rect x="0" width="43" y="0" height="73"/></clipPath><clipPath id="6666f6dce1"><path d="M 9.109375 45.34375 L 64.394531 45.34375 L 64.394531 130.515625 L 9.109375 130.515625 Z M 9.109375 45.34375 " clip-rule="nonzero"/></clipPath><clipPath id="4662e2d8a2"><path d="M 30.128906 60.085938 L 72.972656 60.085938 L 72.972656 135.097656 L 30.128906 135.097656 Z M 30.128906 60.085938 " clip-rule="nonzero"/></clipPath><clipPath id="de98ce6d2e"><path d="M 42.402344 135.066406 C 40.515625 135.066406 36.582031 133.539062 36.582031 133.539062 C 30.816406 131.613281 30.53125 124.90625 30.339844 120.445312 C 30.292969 119.308594 30.246094 118.238281 30.128906 117.453125 L 35.632812 116.628906 C 35.796875 117.707031 35.484375 121.65625 35.992188 124.421875 C 36.453125 126.933594 37.933594 129.136719 40.476562 129.367188 C 41.929688 129.5 43.269531 129.472656 43.832031 129.234375 C 44.628906 128.902344 45.171875 128.210938 45.496094 127.125 C 46.351562 123.070312 47.121094 118.878906 47.867188 114.824219 C 51.273438 96.28125 54.789062 77.132812 67.875 61.097656 C 68.871094 59.875 70.695312 59.742188 71.875 60.789062 C 72.992188 61.785156 73.113281 63.480469 72.167969 64.640625 C 59.996094 79.597656 56.617188 98.003906 53.339844 115.828125 C 52.582031 119.953125 51.800781 124.214844 50.921875 128.375 L 50.875 128.554688 C 49.886719 132.078125 47.671875 133.660156 45.988281 134.367188 C 44.878906 134.835938 43.664062 135.066406 42.402344 135.066406 Z M 42.402344 135.066406 " clip-rule="nonzero"/></clipPath><clipPath id="843b99362d"><path d="M 0.128906 0.0859375 L 42.972656 0.0859375 L 42.972656 75.078125 L 0.128906 75.078125 Z M 0.128906 0.0859375 " clip-rule="nonzero"/></clipPath><clipPath id="6851e7066b"><path d="M 12.402344 75.066406 C 10.515625 75.066406 6.582031 73.539062 6.582031 73.539062 C 0.816406 71.613281 0.53125 64.90625 0.339844 60.445312 C 0.292969 59.308594 0.246094 58.238281 0.128906 57.453125 L 5.632812 56.628906 C 5.796875 57.707031 5.484375 61.65625 5.992188 64.421875 C 6.453125 66.933594 7.933594 69.136719 10.476562 69.367188 C 11.929688 69.5 13.269531 69.472656 13.832031 69.234375 C 14.628906 68.902344 15.171875 68.210938 15.496094 67.125 C 16.351562 63.070312 17.121094 58.878906 17.867188 54.824219 C 21.273438 36.28125 24.789062 17.132812 37.875 1.097656 C 38.871094 -0.125 40.695312 -0.257812 41.875 0.789062 C 42.992188 1.785156 43.113281 3.480469 42.167969 4.640625 C 29.996094 19.597656 26.617188 38.003906 23.339844 55.828125 C 22.582031 59.953125 21.800781 64.214844 20.921875 68.375 L 20.875 68.554688 C 19.886719 72.078125 17.671875 73.660156 15.988281 74.367188 C 14.878906 74.835938 13.664062 75.066406 12.402344 75.066406 Z M 12.402344 75.066406 " clip-rule="nonzero"/></clipPath><clipPath id="c92fb8fbf0"><rect x="0" width="43" y="0" height="76"/></clipPath><clipPath id="41d7d1b3cb"><path d="M 23.671875 53.71875 L 78.960938 53.71875 L 78.960938 141.878906 L 23.671875 141.878906 Z M 23.671875 53.71875 " clip-rule="nonzero"/></clipPath><clipPath id="b5bd106cf2"><path d="M 88.460938 6.453125 L 173.628906 6.453125 L 173.628906 103.578125 L 88.460938 103.578125 Z M 88.460938 6.453125 " clip-rule="nonzero"/></clipPath><clipPath id="6e7bda5ea9"><path d="M 82.003906 0 L 179.875 0 L 179.875 109.824219 L 82.003906 109.824219 Z M 82.003906 0 " clip-rule="nonzero"/></clipPath><clipPath id="6125844f4b"><path d="M 45.316406 43.519531 L 109.464844 43.519531 L 109.464844 140.457031 L 45.316406 140.457031 Z M 45.316406 43.519531 " clip-rule="nonzero"/></clipPath><clipPath id="7c88c55088"><path d="M 55.144531 140.277344 C 54.410156 140.277344 53.6875 140.191406 53 140.027344 C 49.261719 139.140625 45.859375 135.851562 45.332031 130.941406 C 45.136719 129.121094 46.730469 127.617188 48.535156 127.902344 C 49.789062 128.101562 50.730469 129.128906 50.871094 130.390625 C 51.136719 132.792969 52.636719 134.21875 54.285156 134.613281 C 55.941406 135.003906 58.03125 134.382812 59.082031 131.527344 C 59.128906 131.398438 59.164062 131.265625 59.191406 131.128906 C 65.105469 102.261719 74.457031 66.65625 94.390625 46.367188 C 97.640625 42.859375 102.480469 43.152344 105.597656 45.269531 C 109.152344 47.679688 110.300781 51.851562 108.460938 55.648438 L 108.351562 55.847656 L 102.265625 66.148438 C 101.484375 67.46875 99.777344 67.90625 98.453125 67.125 L 98.449219 67.121094 C 97.128906 66.339844 96.691406 64.632812 97.472656 63.3125 L 103.390625 53.300781 C 103.460938 53.1875 103.523438 53.066406 103.570312 52.941406 C 104.203125 51.285156 103.027344 50.253906 102.46875 49.875 C 101.613281 49.292969 99.804688 48.699219 98.460938 50.164062 L 98.394531 50.238281 C 79.378906 69.5625 70.332031 104.40625 64.574219 132.605469 L 64.5 132.894531 C 62.816406 138.140625 58.816406 140.277344 55.144531 140.277344 Z M 55.144531 140.277344 " clip-rule="nonzero"/></clipPath><clipPath id="6dc94639d3"><path d="M 0.316406 0.519531 L 64.464844 0.519531 L 64.464844 97.339844 L 0.316406 97.339844 Z M 0.316406 0.519531 " clip-rule="nonzero"/></clipPath><clipPath id="a12965407c"><path d="M 10.144531 97.277344 C 9.410156 97.277344 8.6875 97.191406 8 97.027344 C 4.261719 96.140625 0.859375 92.851562 0.332031 87.941406 C 0.136719 86.121094 1.730469 84.617188 3.535156 84.902344 C 4.789062 85.101562 5.730469 86.128906 5.871094 87.390625 C 6.136719 89.792969 7.636719 91.21875 9.285156 91.613281 C 10.941406 92.003906 13.03125 91.382812 14.082031 88.527344 C 14.128906 88.398438 14.164062 88.265625 14.191406 88.128906 C 20.105469 59.261719 29.457031 23.65625 49.390625 3.367188 C 52.640625 -0.140625 57.480469 0.152344 60.597656 2.269531 C 64.152344 4.679688 65.300781 8.851562 63.460938 12.648438 L 63.351562 12.847656 L 57.265625 23.148438 C 56.484375 24.46875 54.777344 24.90625 53.453125 24.125 L 53.449219 24.121094 C 52.128906 23.339844 51.691406 21.632812 52.472656 20.3125 L 58.390625 10.300781 C 58.460938 10.1875 58.523438 10.066406 58.570312 9.941406 C 59.203125 8.285156 58.027344 7.253906 57.46875 6.875 C 56.613281 6.292969 54.804688 5.699219 53.460938 7.164062 L 53.394531 7.238281 C 34.378906 26.5625 25.332031 61.40625 19.574219 89.605469 L 19.5 89.894531 C 17.816406 95.140625 13.816406 97.277344 10.144531 97.277344 Z M 10.144531 97.277344 " clip-rule="nonzero"/></clipPath><clipPath id="846bd0781f"><rect x="0" width="65" y="0" height="98"/></clipPath><clipPath id="ecfe19f0e8"><path d="M 38.859375 37.242188 L 115.8125 37.242188 L 115.8125 147.070312 L 38.859375 147.070312 Z M 38.859375 37.242188 " clip-rule="nonzero"/></clipPath><clipPath id="71410ed76c"><path d="M 149.0625 32.511719 L 189.207031 32.511719 L 189.207031 112 L 149.0625 112 Z M 149.0625 32.511719 " clip-rule="nonzero"/></clipPath><clipPath id="93019c02e0"><path d="M 150.117188 111.136719 C 149 110.109375 148.917969 108.378906 149.925781 107.246094 C 159.285156 96.746094 179.933594 71.378906 181.632812 58.832031 C 181.847656 57.308594 182.144531 55.757812 182.457031 54.113281 C 183.585938 48.207031 184.859375 41.511719 181.355469 39.273438 C 179.699219 38.214844 178.371094 37.859375 177.40625 38.21875 C 175.886719 38.785156 174.496094 41.164062 173.265625 45.289062 L 167.929688 43.699219 C 169.066406 39.886719 171.082031 34.632812 175.464844 33.003906 C 178.15625 32.003906 181.144531 32.535156 184.351562 34.582031 C 191.035156 38.851562 189.3125 47.890625 187.925781 55.15625 C 187.625 56.730469 187.339844 58.222656 187.144531 59.59375 C 185.058594 75.03125 161.054688 103.066406 154.074219 110.9375 C 153.042969 112.101562 151.257812 112.191406 150.117188 111.136719 Z M 150.117188 111.136719 " clip-rule="nonzero"/></clipPath><clipPath id="8db0146e36"><path d="M 0.0625 0.511719 L 40.207031 0.511719 L 40.207031 80 L 0.0625 80 Z M 0.0625 0.511719 " clip-rule="nonzero"/></clipPath><clipPath id="ff6fe4e8ac"><path d="M 1.117188 79.136719 C 0 78.109375 -0.0820312 76.378906 0.925781 75.246094 C 10.285156 64.746094 30.933594 39.378906 32.632812 26.832031 C 32.847656 25.308594 33.144531 23.757812 33.457031 22.113281 C 34.585938 16.207031 35.859375 9.511719 32.355469 7.273438 C 30.699219 6.214844 29.371094 5.859375 28.40625 6.21875 C 26.886719 6.785156 25.496094 9.164062 24.265625 13.289062 L 18.929688 11.699219 C 20.066406 7.886719 22.082031 2.632812 26.464844 1.003906 C 29.15625 0.00390625 32.144531 0.535156 35.351562 2.582031 C 42.035156 6.851562 40.3125 15.890625 38.925781 23.15625 C 38.625 24.730469 38.339844 26.222656 38.144531 27.59375 C 36.058594 43.03125 12.054688 71.066406 5.074219 78.9375 C 4.042969 80.101562 2.257812 80.191406 1.117188 79.136719 Z M 1.117188 79.136719 " clip-rule="nonzero"/></clipPath><clipPath id="c4ad688acf"><rect x="0" width="41" y="0" height="80"/></clipPath><clipPath id="1171eed856"><path d="M 142.765625 26.058594 L 195.8125 26.058594 L 195.8125 118.699219 L 142.765625 118.699219 Z M 142.765625 26.058594 " clip-rule="nonzero"/></clipPath><clipPath id="553fe3f5a7"><path d="M 161.035156 46.265625 L 199.878906 46.265625 L 199.878906 119.878906 L 161.035156 119.878906 Z M 161.035156 46.265625 " clip-rule="nonzero"/></clipPath><clipPath id="34729eb8e2"><path d="M 162.058594 118.996094 C 160.949219 117.953125 160.890625 116.210938 161.917969 115.089844 C 175.363281 100.453125 185.351562 85.222656 191.628906 69.785156 C 193.234375 65.835938 193.820312 61.769531 194.035156 59.414062 L 193.785156 59.335938 L 194.195312 56.925781 C 194.59375 54.589844 193.949219 52.9375 192.378906 52.277344 C 190.972656 51.683594 188.875 52.007812 187.582031 53.777344 L 183.085938 50.496094 C 185.777344 46.808594 190.488281 45.433594 194.546875 47.148438 C 197.652344 48.460938 200.625 51.914062 199.710938 57.679688 C 199.714844 58.023438 199.691406 58.375 199.671875 58.730469 C 199.605469 59.78125 199.496094 60.882812 199.34375 62 C 198.851562 65.589844 197.992188 68.914062 196.785156 71.882812 C 190.257812 87.9375 179.914062 103.726562 166.019531 118.851562 C 164.972656 119.996094 163.1875 120.0625 162.058594 118.996094 Z M 162.058594 118.996094 " clip-rule="nonzero"/></clipPath><clipPath id="ca2c23a5b8"><path d="M 0.0351562 0.382812 L 38.878906 0.382812 L 38.878906 73.878906 L 0.0351562 73.878906 Z M 0.0351562 0.382812 " clip-rule="nonzero"/></clipPath><clipPath id="17a0d331e3"><path d="M 1.058594 72.996094 C -0.0507812 71.953125 -0.109375 70.210938 0.917969 69.089844 C 14.363281 54.453125 24.351562 39.222656 30.628906 23.785156 C 32.234375 19.835938 32.820312 15.769531 33.035156 13.414062 L 32.785156 13.335938 L 33.195312 10.925781 C 33.59375 8.589844 32.949219 6.9375 31.378906 6.277344 C 29.972656 5.683594 27.875 6.007812 26.582031 7.777344 L 22.085938 4.496094 C 24.777344 0.808594 29.488281 -0.566406 33.546875 1.148438 C 36.652344 2.460938 39.625 5.914062 38.710938 11.679688 C 38.714844 12.023438 38.691406 12.375 38.671875 12.730469 C 38.605469 13.78125 38.496094 14.882812 38.34375 16 C 37.851562 19.589844 36.992188 22.914062 35.785156 25.882812 C 29.257812 41.9375 18.914062 57.726562 5.019531 72.851562 C 3.972656 73.996094 2.1875 74.0625 1.058594 72.996094 Z M 1.058594 72.996094 " clip-rule="nonzero"/></clipPath><clipPath id="3a840af527"><rect x="0" width="39" y="0" height="74"/></clipPath><clipPath id="21ce7c0576"><path d="M 154.730469 39.960938 L 206.28125 39.960938 L 206.28125 125.878906 L 154.730469 125.878906 Z M 154.730469 39.960938 " clip-rule="nonzero"/></clipPath><clipPath id="e71ce9b6d2"><path d="M 46.292969 63.648438 L 210.65625 63.648438 L 210.65625 192.902344 L 46.292969 192.902344 Z M 46.292969 63.648438 " clip-rule="nonzero"/></clipPath><clipPath id="919a1dc832"><path d="M 248.257812 18.285156 L 320.730469 18.285156 L 320.730469 110.179688 L 248.257812 110.179688 Z M 248.257812 18.285156 " clip-rule="nonzero"/></clipPath><clipPath id="3a680576cc"><path d="M 325.414062 43.941406 L 376.964844 43.941406 L 376.964844 104.457031 L 325.414062 104.457031 Z M 325.414062 43.941406 " clip-rule="nonzero"/></clipPath><clipPath id="df04993edf"><path d="M 319.230469 37.664062 L 383.480469 37.664062 L 383.480469 110.882812 L 319.230469 110.882812 Z M 319.230469 37.664062 " clip-rule="nonzero"/></clipPath><clipPath id="c5f33967c9"><path d="M 381.683594 37.664062 L 440.707031 37.664062 L 440.707031 110.882812 L 381.683594 110.882812 Z M 381.683594 37.664062 " clip-rule="nonzero"/></clipPath><clipPath id="0edd9196ae"><path d="M 443.933594 23.84375 L 455.890625 23.84375 L 455.890625 104.53125 L 443.933594 104.53125 Z M 443.933594 23.84375 " clip-rule="nonzero"/></clipPath><clipPath id="1617d2b239"><path d="M 437.75 17.566406 L 462.402344 17.566406 L 462.402344 110.957031 L 437.75 110.957031 Z M 437.75 17.566406 " clip-rule="nonzero"/></clipPath><clipPath id="1faae9b4d1"><path d="M 468.871094 17.910156 L 519.671875 17.910156 L 519.671875 104.574219 L 468.871094 104.574219 Z M 468.871094 17.910156 " clip-rule="nonzero"/></clipPath><clipPath id="1660ee6ed4"><path d="M 462.59375 11.632812 L 526.097656 11.632812 L 526.097656 111 L 462.59375 111 Z M 462.59375 11.632812 " clip-rule="nonzero"/></clipPath><clipPath id="1e3891202d"><path d="M 561.75 18.28125 L 611.804688 18.28125 L 611.804688 110.925781 L 561.75 110.925781 Z M 561.75 18.28125 " clip-rule="nonzero"/></clipPath><clipPath id="874df94f22"><path d="M 610.359375 11.632812 L 632.773438 11.632812 L 632.773438 111 L 610.359375 111 Z M 610.359375 11.632812 " clip-rule="nonzero"/></clipPath><clipPath id="04995dbd61"><path d="M 640.339844 21.1875 L 692.636719 21.1875 L 692.636719 104.867188 L 640.339844 104.867188 Z M 640.339844 21.1875 " clip-rule="nonzero"/></clipPath><clipPath id="00933d84a2"><path d="M 634.0625 15.003906 L 699.0625 15.003906 L 699.0625 110.632812 L 634.0625 110.632812 Z M 634.0625 15.003906 " clip-rule="nonzero"/></clipPath><clipPath id="e91139ab6a"><path d="M 699.988281 37.664062 L 741.078125 37.664062 L 741.078125 110.882812 L 699.988281 110.882812 Z M 699.988281 37.664062 " clip-rule="nonzero"/></clipPath><clipPath id="0e53bb3645"><path d="M 733.550781 37.664062 L 798.550781 37.664062 L 798.550781 110.882812 L 733.550781 110.882812 Z M 733.550781 37.664062 " clip-rule="nonzero"/></clipPath><clipPath id="db6631915c"><path d="M 794.023438 38.382812 L 851.550781 38.382812 L 851.550781 110.105469 L 794.023438 110.105469 Z M 794.023438 38.382812 " clip-rule="nonzero"/></clipPath><clipPath id="9ae1a79969"><path d="M 254.398438 128.917969 L 276.8125 128.917969 L 276.8125 164.78125 L 254.398438 164.78125 Z M 254.398438 128.917969 " clip-rule="nonzero"/></clipPath><clipPath id="4bf9986b8c"><path d="M 280.660156 137.484375 L 300.457031 137.484375 L 300.457031 164.828125 L 280.660156 164.828125 Z M 280.660156 137.484375 " clip-rule="nonzero"/></clipPath><clipPath id="ff57360a4d"><path d="M 299.761719 142.316406 C 299.761719 143.332031 298.960938 144.078125 297.839844 144.078125 C 297.199219 144.078125 296.714844 143.867188 295.703125 143.117188 C 294.042969 141.835938 292.761719 141.355469 290.890625 141.355469 C 288.164062 141.355469 286.242188 142.691406 286.242188 144.613281 C 286.242188 146.324219 287.84375 147.5 292.011719 148.996094 C 298 151.132812 300.457031 153.378906 300.457031 156.851562 C 300.457031 161.5 296.394531 164.816406 290.675781 164.816406 C 285.601562 164.816406 280.738281 162.304688 280.738281 159.683594 C 280.738281 158.613281 281.539062 157.761719 282.554688 157.761719 C 283.089844 157.761719 283.730469 158.082031 284.851562 158.882812 C 287.042969 160.433594 288.699219 161.019531 290.835938 161.019531 C 293.777344 161.019531 296.023438 159.417969 296.023438 157.386719 C 296.023438 155.570312 294.3125 154.179688 289.875 152.46875 C 284.105469 150.226562 281.859375 148.140625 281.859375 145.042969 C 281.859375 140.765625 285.707031 137.558594 290.835938 137.558594 C 295.328125 137.558594 299.761719 139.910156 299.761719 142.316406 Z M 299.761719 142.316406 " clip-rule="nonzero"/></clipPath><clipPath id="5ef3319328"><path d="M 0.660156 0.484375 L 20.457031 0.484375 L 20.457031 27.828125 L 0.660156 27.828125 Z M 0.660156 0.484375 " clip-rule="nonzero"/></clipPath><clipPath id="4eb4e67875"><path d="M 19.761719 5.316406 C 19.761719 6.332031 18.960938 7.078125 17.839844 7.078125 C 17.199219 7.078125 16.714844 6.867188 15.703125 6.117188 C 14.042969 4.835938 12.761719 4.355469 10.890625 4.355469 C 8.164062 4.355469 6.242188 5.691406 6.242188 7.613281 C 6.242188 9.324219 7.84375 10.5 12.011719 11.996094 C 18 14.132812 20.457031 16.378906 20.457031 19.851562 C 20.457031 24.5 16.394531 27.816406 10.675781 27.816406 C 5.601562 27.816406 0.738281 25.304688 0.738281 22.683594 C 0.738281 21.613281 1.539062 20.761719 2.554688 20.761719 C 3.089844 20.761719 3.730469 21.082031 4.851562 21.882812 C 7.042969 23.433594 8.699219 24.019531 10.835938 24.019531 C 13.777344 24.019531 16.023438 22.417969 16.023438 20.386719 C 16.023438 18.570312 14.3125 17.179688 9.875 15.46875 C 4.105469 13.226562 1.859375 11.140625 1.859375 8.042969 C 1.859375 3.765625 5.707031 0.558594 10.835938 0.558594 C 15.328125 0.558594 19.761719 2.910156 19.761719 5.316406 Z M 19.761719 5.316406 " clip-rule="nonzero"/></clipPath><clipPath id="50605658f6"><rect x="0" width="21" y="0" height="28"/></clipPath><clipPath id="a2908b7b03"><path d="M 306.214844 128.582031 L 311.445312 128.582031 L 311.445312 164.441406 L 306.214844 164.441406 Z M 306.214844 128.582031 " clip-rule="nonzero"/></clipPath><clipPath id="5803b8f97f"><path d="M 317.828125 137.484375 L 337.089844 137.484375 L 337.089844 164.839844 L 317.828125 164.839844 Z M 317.828125 137.484375 " clip-rule="nonzero"/></clipPath><clipPath id="314650248e"><path d="M 337.015625 140.925781 C 337.015625 141.941406 336.15625 142.796875 335.144531 142.796875 C 334.660156 142.796875 334.179688 142.636719 333.328125 142.210938 C 331.882812 141.566406 331.136719 141.355469 329.90625 141.355469 C 325.308594 141.355469 322.210938 145.308594 322.210938 151.1875 C 322.210938 157.066406 325.308594 161.019531 329.90625 161.019531 C 331.242188 161.019531 332.152344 160.753906 333.539062 160.007812 C 334.339844 159.578125 334.714844 159.472656 335.144531 159.472656 C 336.15625 159.472656 336.851562 160.21875 336.851562 161.234375 C 336.851562 163.265625 333.859375 164.816406 329.960938 164.816406 C 322.691406 164.816406 317.828125 159.417969 317.828125 151.292969 C 317.828125 142.957031 322.636719 137.558594 329.960938 137.558594 C 334.023438 137.558594 337.015625 139.003906 337.015625 140.925781 Z M 337.015625 140.925781 " clip-rule="nonzero"/></clipPath><clipPath id="c19dcba908"><path d="M 0.828125 0.484375 L 20.089844 0.484375 L 20.089844 27.839844 L 0.828125 27.839844 Z M 0.828125 0.484375 " clip-rule="nonzero"/></clipPath><clipPath id="14e7d9e9c5"><path d="M 20.015625 3.925781 C 20.015625 4.941406 19.15625 5.796875 18.144531 5.796875 C 17.660156 5.796875 17.179688 5.636719 16.328125 5.210938 C 14.882812 4.566406 14.136719 4.355469 12.90625 4.355469 C 8.308594 4.355469 5.210938 8.308594 5.210938 14.1875 C 5.210938 20.066406 8.308594 24.019531 12.90625 24.019531 C 14.242188 24.019531 15.152344 23.753906 16.539062 23.007812 C 17.339844 22.578125 17.714844 22.472656 18.144531 22.472656 C 19.15625 22.472656 19.851562 23.21875 19.851562 24.234375 C 19.851562 26.265625 16.859375 27.816406 12.960938 27.816406 C 5.691406 27.816406 0.828125 22.417969 0.828125 14.292969 C 0.828125 5.957031 5.636719 0.558594 12.960938 0.558594 C 17.023438 0.558594 20.015625 2.003906 20.015625 3.925781 Z M 20.015625 3.925781 " clip-rule="nonzero"/></clipPath><clipPath id="1f587a08e7"><rect x="0" width="21" y="0" height="28"/></clipPath><clipPath id="7c454b7d53"><path d="M 340.960938 127.367188 L 364.121094 127.367188 L 364.121094 164.722656 L 340.960938 164.722656 Z M 340.960938 127.367188 " clip-rule="nonzero"/></clipPath><clipPath id="46cae593c4"><path d="M 370.949219 125.886719 L 375.34375 125.886719 L 375.34375 164.824219 L 370.949219 164.824219 Z M 370.949219 125.886719 " clip-rule="nonzero"/></clipPath><clipPath id="16294780c2"><path d="M 375.34375 162.464844 C 375.34375 163.90625 374.492188 164.816406 373.15625 164.816406 C 371.824219 164.816406 370.96875 163.90625 370.96875 162.464844 L 370.96875 128.253906 C 370.96875 126.8125 371.824219 125.90625 373.15625 125.90625 C 374.492188 125.90625 375.34375 126.8125 375.34375 128.253906 Z M 375.34375 162.464844 " clip-rule="nonzero"/></clipPath><clipPath id="edc5005925"><path d="M 0.949219 0.886719 L 5.34375 0.886719 L 5.34375 39.824219 L 0.949219 39.824219 Z M 0.949219 0.886719 " clip-rule="nonzero"/></clipPath><clipPath id="c6608060fd"><path d="M 5.34375 37.464844 C 5.34375 38.90625 4.492188 39.816406 3.15625 39.816406 C 1.824219 39.816406 0.96875 38.90625 0.96875 37.464844 L 0.96875 3.253906 C 0.96875 1.8125 1.824219 0.90625 3.15625 0.90625 C 4.492188 0.90625 5.34375 1.8125 5.34375 3.253906 Z M 5.34375 37.464844 " clip-rule="nonzero"/></clipPath><clipPath id="df43a250c1"><rect x="0" width="6" y="0" height="40"/></clipPath><clipPath id="391a89c889"><path d="M 382.203125 137.558594 L 405.363281 137.558594 L 405.363281 164.457031 L 382.203125 164.457031 Z M 382.203125 137.558594 " clip-rule="nonzero"/></clipPath><clipPath id="2f1488c2d5"><path d="M 411.113281 137.574219 L 434.277344 137.574219 L 434.277344 174.929688 L 411.113281 174.929688 Z M 411.113281 137.574219 " clip-rule="nonzero"/></clipPath><clipPath id="564d7550ee"><path d="M 441.054688 137.558594 L 464.214844 137.558594 L 464.214844 164.457031 L 441.054688 164.457031 Z M 441.054688 137.558594 " clip-rule="nonzero"/></clipPath><clipPath id="65ff56a800"><path d="M 484.332031 128.582031 L 511.320312 128.582031 L 511.320312 164.8125 L 484.332031 164.8125 Z M 484.332031 128.582031 " clip-rule="nonzero"/></clipPath><clipPath id="50f4645e3c"><path d="M 511.214844 159.734375 C 511.214844 162.292969 505.722656 164.800781 500.175781 164.800781 C 494.945312 164.800781 490.785156 162.773438 487.957031 158.773438 C 485.613281 155.574219 484.332031 151.25 484.332031 146.664062 C 484.332031 135.996094 490.839844 128.582031 500.175781 128.582031 C 505.242188 128.582031 510.46875 131.300781 510.46875 133.859375 C 510.46875 134.980469 509.667969 135.886719 508.707031 135.886719 C 508.070312 135.886719 507.535156 135.621094 506.523438 134.769531 C 504.441406 133.007812 502.734375 132.367188 500.175781 132.367188 C 493.558594 132.367188 489.027344 138.128906 489.027344 146.558594 C 489.027344 155.199219 493.453125 161.015625 500.066406 161.015625 C 502.414062 161.015625 504.28125 160.425781 507.054688 158.773438 C 508.441406 157.972656 508.921875 157.757812 509.507812 157.757812 C 510.46875 157.757812 511.214844 158.613281 511.214844 159.734375 Z M 511.214844 159.734375 " clip-rule="nonzero"/></clipPath><clipPath id="618beaef97"><path d="M 0.332031 0.582031 L 27.21875 0.582031 L 27.21875 36.8125 L 0.332031 36.8125 Z M 0.332031 0.582031 " clip-rule="nonzero"/></clipPath><clipPath id="abbd710707"><path d="M 27.214844 31.734375 C 27.214844 34.292969 21.722656 36.800781 16.175781 36.800781 C 10.945312 36.800781 6.785156 34.773438 3.957031 30.773438 C 1.613281 27.574219 0.332031 23.25 0.332031 18.664062 C 0.332031 7.996094 6.839844 0.582031 16.175781 0.582031 C 21.242188 0.582031 26.46875 3.300781 26.46875 5.859375 C 26.46875 6.980469 25.667969 7.886719 24.707031 7.886719 C 24.070312 7.886719 23.535156 7.621094 22.523438 6.769531 C 20.441406 5.007812 18.734375 4.367188 16.175781 4.367188 C 9.558594 4.367188 5.027344 10.128906 5.027344 18.558594 C 5.027344 27.199219 9.453125 33.015625 16.066406 33.015625 C 18.414062 33.015625 20.28125 32.425781 23.054688 30.773438 C 24.441406 29.972656 24.921875 29.757812 25.507812 29.757812 C 26.46875 29.757812 27.214844 30.613281 27.214844 31.734375 Z M 27.214844 31.734375 " clip-rule="nonzero"/></clipPath><clipPath id="211fbb35db"><rect x="0" width="28" y="0" height="37"/></clipPath><clipPath id="7e40751a1c"><path d="M 517.300781 125.886719 L 521.679688 125.886719 L 521.679688 164.824219 L 517.300781 164.824219 Z M 517.300781 125.886719 " clip-rule="nonzero"/></clipPath><clipPath id="a4b007594f"><path d="M 521.679688 162.464844 C 521.679688 163.90625 520.824219 164.816406 519.488281 164.816406 C 518.15625 164.816406 517.300781 163.90625 517.300781 162.464844 L 517.300781 128.253906 C 517.300781 126.8125 518.15625 125.90625 519.488281 125.90625 C 520.824219 125.90625 521.679688 126.8125 521.679688 128.253906 Z M 521.679688 162.464844 " clip-rule="nonzero"/></clipPath><clipPath id="0b3e8d6d36"><path d="M 0.300781 0.886719 L 4.679688 0.886719 L 4.679688 39.824219 L 0.300781 39.824219 Z M 0.300781 0.886719 " clip-rule="nonzero"/></clipPath><clipPath id="4d4c70799a"><path d="M 4.679688 37.464844 C 4.679688 38.90625 3.824219 39.816406 2.488281 39.816406 C 1.15625 39.816406 0.300781 38.90625 0.300781 37.464844 L 0.300781 3.253906 C 0.300781 1.8125 1.15625 0.90625 2.488281 0.90625 C 3.824219 0.90625 4.679688 1.8125 4.679688 3.253906 Z M 4.679688 37.464844 " clip-rule="nonzero"/></clipPath><clipPath id="965a793540"><rect x="0" width="5" y="0" height="40"/></clipPath><clipPath id="f7974646a6"><path d="M 526.328125 127.367188 L 537.53125 127.367188 L 537.53125 164.722656 L 526.328125 164.722656 Z M 526.328125 127.367188 " clip-rule="nonzero"/></clipPath><clipPath id="bfcc7ed4e2"><path d="M 541.875 137.476562 L 563 137.476562 L 563 164.851562 L 541.875 164.851562 Z M 541.875 137.476562 " clip-rule="nonzero"/></clipPath><clipPath id="5018e3b30c"><path d="M 546.367188 141.085938 C 548.398438 138.683594 550.695312 137.558594 553.6875 137.558594 C 559.296875 137.558594 562.984375 141.566406 562.984375 147.660156 L 562.984375 162.464844 C 562.984375 163.90625 562.128906 164.816406 560.792969 164.816406 C 559.460938 164.816406 558.605469 163.90625 558.605469 162.464844 L 558.605469 147.925781 C 558.605469 144.027344 556.09375 141.355469 552.40625 141.355469 C 548.769531 141.355469 546.257812 144.027344 546.257812 147.925781 L 546.257812 162.464844 C 546.257812 163.90625 545.402344 164.816406 544.066406 164.816406 C 542.730469 164.816406 541.875 163.90625 541.875 162.464844 L 541.875 139.910156 C 541.875 138.46875 542.730469 137.558594 544.066406 137.558594 C 545.402344 137.558594 546.257812 138.46875 546.257812 139.910156 L 546.257812 140.980469 Z M 546.367188 141.085938 " clip-rule="nonzero"/></clipPath><clipPath id="b6bf1aec39"><path d="M 0.875 0.476562 L 22 0.476562 L 22 27.851562 L 0.875 27.851562 Z M 0.875 0.476562 " clip-rule="nonzero"/></clipPath><clipPath id="8772c15bb7"><path d="M 5.367188 4.085938 C 7.398438 1.683594 9.695312 0.558594 12.6875 0.558594 C 18.296875 0.558594 21.984375 4.566406 21.984375 10.660156 L 21.984375 25.464844 C 21.984375 26.90625 21.128906 27.816406 19.792969 27.816406 C 18.460938 27.816406 17.605469 26.90625 17.605469 25.464844 L 17.605469 10.925781 C 17.605469 7.027344 15.09375 4.355469 11.40625 4.355469 C 7.769531 4.355469 5.257812 7.027344 5.257812 10.925781 L 5.257812 25.464844 C 5.257812 26.90625 4.402344 27.816406 3.066406 27.816406 C 1.730469 27.816406 0.875 26.90625 0.875 25.464844 L 0.875 2.910156 C 0.875 1.46875 1.730469 0.558594 3.066406 0.558594 C 4.402344 0.558594 5.257812 1.46875 5.257812 2.910156 L 5.257812 3.980469 Z M 5.367188 4.085938 " clip-rule="nonzero"/></clipPath><clipPath id="6b244acbe9"><rect x="0" width="22" y="0" height="28"/></clipPath><clipPath id="65f4d59d25"><path d="M 570.410156 128.582031 L 575.640625 128.582031 L 575.640625 164.441406 L 570.410156 164.441406 Z M 570.410156 128.582031 " clip-rule="nonzero"/></clipPath><clipPath id="322f5efee0"><path d="M 582.027344 137.484375 L 601.289062 137.484375 L 601.289062 164.839844 L 582.027344 164.839844 Z M 582.027344 137.484375 " clip-rule="nonzero"/></clipPath><clipPath id="fd07de62db"><path d="M 601.210938 140.925781 C 601.210938 141.941406 600.355469 142.796875 599.339844 142.796875 C 598.859375 142.796875 598.378906 142.636719 597.523438 142.210938 C 596.082031 141.566406 595.332031 141.355469 594.105469 141.355469 C 589.507812 141.355469 586.410156 145.308594 586.410156 151.1875 C 586.410156 157.066406 589.507812 161.019531 594.105469 161.019531 C 595.441406 161.019531 596.347656 160.753906 597.738281 160.003906 C 598.539062 159.578125 598.914062 159.46875 599.339844 159.46875 C 600.355469 159.46875 601.050781 160.21875 601.050781 161.234375 C 601.050781 163.265625 598.058594 164.816406 594.160156 164.816406 C 586.890625 164.816406 582.027344 159.417969 582.027344 151.292969 C 582.027344 142.957031 586.835938 137.558594 594.160156 137.558594 C 598.21875 137.558594 601.210938 139.003906 601.210938 140.925781 Z M 601.210938 140.925781 " clip-rule="nonzero"/></clipPath><clipPath id="229c5cc34a"><path d="M 0.0273438 0.484375 L 19.289062 0.484375 L 19.289062 27.839844 L 0.0273438 27.839844 Z M 0.0273438 0.484375 " clip-rule="nonzero"/></clipPath><clipPath id="606bd9f421"><path d="M 19.210938 3.925781 C 19.210938 4.941406 18.355469 5.796875 17.339844 5.796875 C 16.859375 5.796875 16.378906 5.636719 15.523438 5.210938 C 14.082031 4.566406 13.332031 4.355469 12.105469 4.355469 C 7.507812 4.355469 4.410156 8.308594 4.410156 14.1875 C 4.410156 20.066406 7.507812 24.019531 12.105469 24.019531 C 13.441406 24.019531 14.347656 23.753906 15.738281 23.003906 C 16.539062 22.578125 16.914062 22.46875 17.339844 22.46875 C 18.355469 22.46875 19.050781 23.21875 19.050781 24.234375 C 19.050781 26.265625 16.058594 27.816406 12.160156 27.816406 C 4.890625 27.816406 0.0273438 22.417969 0.0273438 14.292969 C 0.0273438 5.957031 4.835938 0.558594 12.160156 0.558594 C 16.21875 0.558594 19.210938 2.003906 19.210938 3.925781 Z M 19.210938 3.925781 " clip-rule="nonzero"/></clipPath><clipPath id="b1a567c938"><rect x="0" width="20" y="0" height="28"/></clipPath><clipPath id="50c24a78e8"><path d="M 605.160156 137.558594 L 628.320312 137.558594 L 628.320312 164.457031 L 605.160156 164.457031 Z M 605.160156 137.558594 " clip-rule="nonzero"/></clipPath></defs><g clip-path="url(#d1088b0941)"><g clip-path="url(#bb6f9bb5b2)"><g transform="matrix(1, 0, 0, 1, 7, 6)"><g clip-path="url(#ddad10912a)"><g clip-path="url(#f727113e62)"><g clip-path="url(#e492258480)"><path fill="#013345" d="M 0.722656 0.769531 L 67.703125 0.769531 L 67.703125 93 L 0.722656 93 Z M 0.722656 0.769531 " fill-opacity="1" fill-rule="nonzero"/></g></g></g></g></g></g><g clip-path="url(#b7e5ec34c8)"><path stroke-linecap="butt" transform="matrix(0.746818, 0, 0, 0.749028, 15.001086, 6.53219)" fill="none" stroke-linejoin="miter" d="M -0.0014539 123.549513 C -1.371852 123.549513 -2.972394 123.220963 -4.745542 122.266601 C -7.329423 120.874171 -11.325546 116.842904 -9.113033 105.453141 C -8.668438 103.174145 -2.799786 80.618868 -1.8426 77.766212 C 13.331161 31.701295 37.229441 7.670147 75.339064 0.395092 C 77.415584 -0.0012552 79.413645 1.380744 79.743168 3.471997 C 80.057 5.443302 78.754599 7.331166 76.78792 7.706652 C 41.612623 14.439337 19.456108 36.921603 5.223843 80.113004 C 4.371267 82.668399 -1.429388 104.968137 -1.800755 106.876861 C -2.93578 112.696905 -1.894905 115.340957 -1.209706 115.706013 C -0.540198 116.07107 -0.0171455 116.180587 0.343761 116.034564 C 0.945272 115.799885 1.651393 114.871599 1.996608 113.859871 C 9.831938 86.397191 19.628716 66.762366 34.44157 49.015404 C 35.780585 47.41437 38.181397 47.231842 39.750555 48.608627 C 41.277869 49.943691 41.450477 52.248762 40.148075 53.802859 C 26.030881 70.725836 16.668237 89.557537 9.136278 115.987629 L 9.094433 116.138866 C 8.696913 117.338338 7.091141 121.37482 3.100249 122.960208 C 2.284287 123.283544 1.232951 123.549513 -0.0014539 123.549513 Z M -0.0014539 123.549513 " stroke="#013345" stroke-width="1.72" stroke-opacity="1" stroke-miterlimit="10"/></g><g clip-path="url(#5b7897d0a4)"><g clip-path="url(#f9081d4e95)"><g transform="matrix(1, 0, 0, 1, 15, 51)"><g clip-path="url(#1e2abfcdbf)"><g clip-path="url(#4dacccef38)"><g clip-path="url(#5de8881272)"><path fill="#013345" d="M 0.5625 0.800781 L 42.652344 0.800781 L 42.652344 72.644531 L 0.5625 72.644531 Z M 0.5625 0.800781 " fill-opacity="1" fill-rule="nonzero"/></g></g></g></g></g></g><g clip-path="url(#6666f6dce1)"><path stroke-linecap="butt" transform="matrix(0.75036, 0, 0, 0.750221, 27.202627, 51.441379)" fill="none" stroke-linejoin="miter" d="M 0.000663563 96.617439 C -3.8933 96.617439 -7.594647 95.034572 -9.640539 92.327035 C -15.778217 84.199218 -16.652797 63.783351 -14.247702 53.989358 L -7.011594 55.764877 C -9.161603 64.496683 -7.886174 82.288322 -3.695478 87.838773 C -2.966661 88.802031 -0.712536 89.499742 1.484326 89.005096 C 2.249583 88.833272 3.535424 88.390693 3.91545 87.344126 C 4.498503 58.816063 19.53295 22.097701 34.041607 2.030689 C 35.280595 0.317651 37.706513 0.0000365019 39.361968 1.31215 C 40.928924 2.551369 41.230862 4.800707 40.05955 6.420022 C 26.123534 25.711221 11.750229 61.617322 11.354586 87.911668 L 11.34938 88.26573 L 11.276498 88.614586 C 10.480006 92.441585 7.429388 95.305325 3.118958 96.27379 C 2.082997 96.50289 1.036624 96.617439 0.000663563 96.617439 Z M 0.000663563 96.617439 " stroke="#013345" stroke-width="1.72" stroke-opacity="1" stroke-miterlimit="10"/></g><g clip-path="url(#4662e2d8a2)"><g clip-path="url(#de98ce6d2e)"><g transform="matrix(1, 0, 0, 1, 30, 60)"><g clip-path="url(#c92fb8fbf0)"><g clip-path="url(#843b99362d)"><g clip-path="url(#6851e7066b)"><path fill="#013345" d="M 0.128906 0.0859375 L 42.804688 0.0859375 L 42.804688 75.097656 L 0.128906 75.097656 Z M 0.128906 0.0859375 " fill-opacity="1" fill-rule="nonzero"/></g></g></g></g></g></g><g clip-path="url(#41d7d1b3cb)"><path stroke-linecap="butt" transform="matrix(0.743099, 0, 0, 0.749602, 42.288987, 59.847294)" fill="none" stroke-linejoin="miter" d="M 0.000101962 100.788348 C -2.528373 100.788348 -7.790334 98.745597 -7.790334 98.745597 C -15.50192 96.171314 -15.88566 87.197802 -16.137981 81.225882 C -16.206319 79.704241 -16.264142 78.271189 -16.421844 77.218547 L -9.0572 76.119005 C -8.841675 77.56248 -9.256955 82.846534 -8.57884 86.546414 C -7.958549 89.907573 -5.982028 92.857055 -2.575683 93.16451 C -0.630703 93.341687 1.156577 93.30521 1.913542 92.987333 C 2.980654 92.539178 3.706079 91.616814 4.137129 90.168128 C 5.28309 84.738163 6.313404 79.131021 7.312178 73.706267 C 11.869741 48.891013 16.574492 23.26804 34.084575 1.808734 C 35.419778 0.17766 37.858889 0.000483106 39.435901 1.402269 C 40.934062 2.731099 41.097019 4.997927 39.830154 6.556046 C 23.544882 26.566666 19.01886 51.19953 14.634768 75.05073 C 13.625481 80.569284 12.57414 86.270226 11.396638 91.840891 L 11.338814 92.07539 C 10.014124 96.791435 7.049343 98.907141 4.799473 99.855561 C 3.317083 100.480893 1.692761 100.788348 0.000101962 100.788348 Z M 0.000101962 100.788348 " stroke="#013345" stroke-width="1.72" stroke-opacity="1" stroke-miterlimit="10"/></g><g clip-path="url(#b5bd106cf2)"><path fill="#013345" d="M 125.183594 28.761719 L 137.292969 28.761719 C 140.316406 28.761719 142.78125 26.296875 142.78125 23.269531 C 142.78125 18.496094 138.9375 14.523438 134.1875 14.351562 C 125.589844 15.054688 124.789062 19.355469 125.183594 28.761719 M 136.324219 102.652344 C 135.230469 101.585938 135.203125 99.839844 136.253906 98.730469 C 146.597656 87.8125 166.441406 64.4375 167.929688 44.378906 L 167.9375 44.300781 C 168.160156 42.101562 167.234375 34.761719 166.015625 33.523438 C 164.503906 32.03125 162.140625 31.292969 160.265625 31.734375 C 158.878906 32.058594 157.90625 32.972656 157.367188 34.457031 C 156.859375 36.46875 156.511719 38.085938 156.207031 39.515625 C 155.6875 41.945312 155.277344 43.863281 154.417969 46.042969 C 147.394531 63.480469 130.4375 78.964844 116.808594 91.40625 L 115.636719 92.476562 C 113.96875 94 112.257812 95.460938 110.542969 96.824219 C 106.882812 99.722656 101.703125 99.957031 97.90625 97.238281 C 92.925781 93.667969 92.296875 86.792969 95.90625 82.167969 C 97.757812 79.789062 99.359375 77.875 100.664062 76.476562 C 102.710938 74.277344 105.527344 71.09375 105.554688 71.0625 L 105.746094 70.867188 C 113.484375 63.675781 117.382812 58.625 119.679688 43.457031 C 120.058594 40.492188 120.015625 37.402344 119.878906 34.34375 L 112.875 34.34375 C 105.90625 34.34375 100.234375 28.667969 100.234375 21.695312 L 100.238281 21.5625 C 100.367188 18.808594 99.710938 16.707031 98.230469 15.136719 C 96.683594 13.492188 94.144531 12.417969 90.945312 12.023438 C 89.519531 11.851562 88.441406 10.65625 88.460938 9.21875 L 88.460938 9.207031 C 88.480469 7.546875 89.941406 6.28125 91.589844 6.476562 C 96.144531 7.023438 99.804688 8.667969 102.289062 11.304688 C 104.808594 13.984375 105.996094 17.496094 105.8125 21.75 C 105.84375 25.621094 109 28.761719 112.875 28.761719 L 119.597656 28.761719 C 119.21875 19.40625 120.015625 9.839844 133.902344 8.773438 L 134.039062 8.765625 L 134.175781 8.765625 C 141.996094 8.933594 148.359375 15.4375 148.359375 23.269531 C 148.359375 29.375 143.394531 34.34375 137.292969 34.34375 L 125.460938 34.34375 C 125.601562 37.578125 125.636719 40.878906 125.207031 44.199219 L 125.199219 44.261719 C 122.566406 61.664062 117.328125 67.710938 109.640625 74.867188 C 109.128906 75.441406 106.65625 78.230469 104.742188 80.285156 C 103.515625 81.601562 101.96875 83.457031 100.148438 85.796875 C 98.644531 87.730469 98.824219 90.484375 100.5625 92.203125 C 102.292969 93.910156 105.039062 94.058594 106.957031 92.542969 C 108.609375 91.238281 110.265625 89.828125 111.875 88.355469 L 113.050781 87.28125 C 126.261719 75.222656 142.699219 60.214844 149.238281 43.972656 C 149.917969 42.242188 150.269531 40.609375 150.753906 38.347656 C 151.074219 36.839844 151.441406 35.132812 151.992188 32.960938 L 152.058594 32.738281 C 153.21875 29.363281 155.683594 27.074219 158.996094 26.296875 C 162.75 25.417969 167.046875 26.695312 169.9375 29.554688 C 173.4375 33.015625 173.585938 43.378906 173.492188 44.792969 C 171.875 66.589844 151.09375 91.171875 140.292969 102.574219 C 139.222656 103.703125 137.4375 103.738281 136.324219 102.652344 " fill-opacity="1" fill-rule="nonzero"/></g><g clip-path="url(#6e7bda5ea9)"><path stroke-linecap="butt" transform="matrix(0.746887, 0, 0, 0.747701, 125.083826, 81.08258)" fill="none" stroke-linejoin="miter" d="M -0.00240354 -70.048762 L 16.174108 -70.048762 C 20.216928 -70.048762 23.501393 -73.334876 23.501393 -77.37852 C 23.506623 -83.746997 18.370724 -89.049708 12.026687 -89.279579 C 0.541521 -88.339197 -0.530638 -82.597641 -0.00240354 -70.048762 Z M 14.882288 28.550315 C 13.423107 27.129293 13.381267 24.799235 14.782917 23.320745 C 28.605911 8.750045 55.10652 -22.444524 57.093935 -49.208847 L 57.104395 -49.313334 C 57.402508 -52.244192 56.168218 -62.03984 54.536446 -63.695958 C 52.522881 -65.686434 49.363937 -66.668611 46.858748 -66.083484 C 45.007314 -65.649863 43.705035 -64.427366 42.988519 -62.452564 C 42.308614 -59.762026 41.848371 -57.604371 41.435198 -55.697485 C 40.739602 -52.45839 40.195678 -49.898461 39.04507 -46.9885 C 29.667609 -23.719264 7.016309 -3.056977 -11.184228 13.545994 L -12.753239 14.977465 C -14.976006 17.009735 -17.266763 18.958416 -19.55752 20.771264 C -24.442377 24.642504 -31.361719 24.955965 -36.429627 21.330269 C -43.082237 16.560442 -43.924273 7.391715 -39.107407 1.216538 C -36.628369 -1.95464 -34.494513 -4.509345 -32.752909 -6.374436 C -30.017599 -9.310519 -26.251971 -13.557912 -26.21536 -13.599707 L -25.959088 -13.860924 C -15.624531 -23.458047 -10.420642 -30.197453 -7.350609 -50.436569 C -6.843295 -54.396623 -6.900825 -58.518631 -7.083877 -62.598845 L -16.440417 -62.598845 C -25.749887 -62.598845 -33.322984 -70.168922 -33.322984 -79.478707 L -33.317754 -79.65111 C -33.145162 -83.329049 -34.023809 -86.134523 -36.000764 -88.229486 C -38.066629 -90.428935 -41.455695 -91.860406 -45.728637 -92.382841 C -47.637601 -92.612712 -49.075862 -94.211362 -49.049712 -96.128697 L -49.049712 -96.139145 C -49.023562 -98.359492 -47.067527 -100.046956 -44.86568 -99.785739 C -38.788375 -99.05433 -33.898288 -96.860105 -30.577213 -93.338896 C -27.214298 -89.770668 -25.629596 -85.079205 -25.875408 -79.405566 C -25.833568 -74.238688 -21.618156 -70.048762 -16.440417 -70.048762 L -7.46044 -70.048762 C -7.967753 -82.534949 -6.900825 -95.298026 11.644894 -96.719048 L 11.827945 -96.734721 L 12.010997 -96.729496 C 22.455385 -96.510074 30.954199 -87.827211 30.954199 -77.37852 C 30.954199 -69.22854 24.322509 -62.598845 16.174108 -62.598845 L 0.368929 -62.598845 C 0.557211 -58.283536 0.604281 -53.879412 0.0289767 -49.443943 L 0.0185166 -49.365578 C -3.49084 -26.143361 -10.488632 -18.076971 -20.760429 -8.526867 C -21.440335 -7.758888 -24.745719 -4.033929 -27.303209 -1.296372 C -28.945441 0.464232 -31.006076 2.935348 -33.438045 6.059507 C -35.44638 8.640333 -35.205798 12.318273 -32.88366 14.606536 C -30.577213 16.889575 -26.905726 17.082876 -24.348236 15.066279 C -22.13593 13.321347 -19.923623 11.440583 -17.774077 9.476229 L -16.205065 8.044758 C 1.435857 -8.051451 23.396792 -28.076369 32.125728 -49.746955 C 33.040985 -52.06134 33.506458 -54.239892 34.154983 -57.259564 C 34.583846 -59.270937 35.07547 -61.548752 35.807675 -64.448264 L 35.896586 -64.740827 C 37.444678 -69.249438 40.739602 -72.300456 45.158986 -73.334876 C 50.174593 -74.515578 55.911946 -72.807217 59.776945 -68.993445 C 64.4526 -64.375123 64.651342 -50.54628 64.520591 -48.660291 C 62.360585 -19.571134 34.609996 13.232533 20.185548 28.451052 C 18.752517 29.955664 16.367619 30.002683 14.882288 28.550315 Z M 14.882288 28.550315 " stroke="#013345" stroke-width="1.72" stroke-opacity="1" stroke-miterlimit="10"/></g><g clip-path="url(#6125844f4b)"><g clip-path="url(#7c88c55088)"><g transform="matrix(1, 0, 0, 1, 45, 43)"><g clip-path="url(#846bd0781f)"><g clip-path="url(#6dc94639d3)"><g clip-path="url(#a12965407c)"><path fill="#013345" d="M 0.316406 0.699219 L 64.285156 0.699219 L 64.285156 97.277344 L 0.316406 97.277344 Z M 0.316406 0.699219 " fill-opacity="1" fill-rule="nonzero"/></g></g></g></g></g></g><g clip-path="url(#ecfe19f0e8)"><path stroke-linecap="butt" transform="matrix(0.747379, 0, 0, 0.748949, 55.140056, 42.863496)" fill="none" stroke-linejoin="miter" d="M 0.000760712 130.343745 C -0.98184 130.343745 -1.94876 130.229001 -2.868641 130.009944 C -7.875722 128.820779 -12.422861 124.418779 -13.128452 117.85229 C -13.389782 115.416587 -11.262557 113.40335 -8.847869 113.784092 C -7.164904 114.050089 -5.910521 115.427018 -5.722363 117.116885 C -5.361728 120.329718 -3.354715 122.238642 -1.149091 122.765422 C 1.06176 123.286986 3.863216 122.457699 5.269171 118.634636 C 5.33189 118.46252 5.378929 118.285188 5.415516 118.102641 C 13.323357 79.475619 25.841058 31.841189 52.512384 4.693789 C 56.855687 -0.000286203 63.331441 0.396102 67.502266 3.222979 C 72.258469 6.451459 73.800316 12.032193 71.333362 17.112225 L 71.192243 17.383438 L 63.043978 31.15794 C 61.998659 32.926042 59.714636 33.515409 57.942819 32.467066 L 57.937593 32.467066 C 56.171003 31.418722 55.585624 29.134273 56.630943 27.366171 L 64.554465 13.97241 C 64.643317 13.815941 64.726943 13.659472 64.789662 13.492572 C 65.641597 11.275925 64.063165 9.893781 63.315761 9.387864 C 62.171136 8.605518 59.751222 7.812741 57.953272 9.779037 L 57.86442 9.872918 C 32.426571 35.732056 20.316545 82.349436 12.61254 120.079368 L 12.513235 120.470541 C 10.260571 127.485575 4.913762 130.343745 0.000760712 130.343745 Z M 0.000760712 130.343745 " stroke="#013345" stroke-width="1.72" stroke-opacity="1" stroke-miterlimit="10"/></g><g clip-path="url(#71410ed76c)"><g clip-path="url(#93019c02e0)"><g transform="matrix(1, 0, 0, 1, 149, 32)"><g clip-path="url(#c4ad688acf)"><g clip-path="url(#8db0146e36)"><g clip-path="url(#ff6fe4e8ac)"><path fill="#013345" d="M 0.21875 0.511719 L 40.207031 0.511719 L 40.207031 79.859375 L 0.21875 79.859375 Z M 0.21875 0.511719 " fill-opacity="1" fill-rule="nonzero"/></g></g></g></g></g></g><g clip-path="url(#1171eed856)"><path stroke-linecap="butt" transform="matrix(0.749221, 0, 0, 0.749533, 150.127264, 33.069965)" fill="none" stroke-linejoin="miter" d="M 0.0021925 104.492578 C -1.494153 103.116722 -1.603642 100.802782 -0.253281 99.286213 C 12.270142 85.23059 39.908223 51.287591 42.176203 34.49589 C 42.468173 32.458164 42.864418 30.378744 43.281518 28.179459 C 44.793505 20.273497 46.498401 11.320008 41.806027 8.323351 C 39.590184 6.905802 37.812296 6.426337 36.5245 6.911014 C 34.491138 7.666693 32.624616 10.850966 30.982285 16.370026 L 23.83945 14.243703 C 25.361865 9.141569 28.062586 2.111152 33.92284 -0.0724989 C 37.52554 -1.411874 41.524485 -0.697888 45.820613 2.043401 C 54.762192 7.760501 52.452501 19.856571 50.601621 29.576162 C 50.200162 31.68685 49.819558 33.677673 49.558871 35.517359 C 46.764302 56.170838 14.642398 93.694191 5.299361 104.232 C 3.917718 105.790261 1.529821 105.904916 0.0021925 104.492578 Z M 0.0021925 104.492578 " stroke="#013345" stroke-width="1.72" stroke-opacity="1" stroke-miterlimit="10"/></g><g clip-path="url(#553fe3f5a7)"><g clip-path="url(#34729eb8e2)"><g transform="matrix(1, 0, 0, 1, 161, 46)"><g clip-path="url(#3a840af527)"><g clip-path="url(#ca2c23a5b8)"><g clip-path="url(#17a0d331e3)"><path fill="#013345" d="M 0.183594 0.417969 L 38.878906 0.417969 L 38.878906 73.726562 L 0.183594 73.726562 Z M 0.183594 0.417969 " fill-opacity="1" fill-rule="nonzero"/></g></g></g></g></g></g><g clip-path="url(#21ce7c0576)"><path stroke-linecap="butt" transform="matrix(0.745818, 0, 0, 0.744169, 162.034981, 46.4702)" fill="none" stroke-linejoin="miter" d="M 0.000234611 97.012661 C -1.481988 95.616389 -1.560551 93.285771 -0.188317 91.789766 C 17.807856 72.199975 31.174048 51.822813 39.575055 31.162197 C 41.722445 25.876313 42.508076 20.432954 42.790902 17.28347 L 42.460938 17.178487 L 43.010879 13.950266 C 43.53987 10.827028 42.675677 8.617139 40.575425 7.730035 C 38.695149 6.937415 35.88783 7.373093 34.159443 9.740455 L 28.141515 5.346925 C 31.744939 0.417982 38.045695 -1.424466 43.47702 0.869409 C 47.635623 2.62787 51.610913 7.247114 50.390567 14.96335 C 50.390567 15.420025 50.364379 15.892448 50.332954 16.36487 C 50.249154 17.776889 50.102503 19.246648 49.898239 20.742653 C 49.238309 25.545617 48.086051 29.996888 46.47289 33.970487 C 37.73668 55.449968 23.899111 76.577758 5.305858 96.823692 C 3.902199 98.351191 1.508645 98.440427 0.000234611 97.012661 Z M 0.000234611 97.012661 " stroke="#013345" stroke-width="1.72" stroke-opacity="1" stroke-miterlimit="10"/></g><path fill="#013345" d="M 105.210938 186.320312 L 52.742188 139.332031 L 56.453125 135.195312 L 104.894531 178.570312 C 109.269531 174.382812 117.808594 167.261719 128.199219 158.59375 C 147.0625 142.851562 170.542969 123.265625 179.859375 112.167969 C 185.445312 105.515625 191.476562 95.386719 197.78125 82.058594 C 199.085938 79.300781 198.722656 76.636719 196.914062 75.726562 C 196.785156 75.660156 196.390625 75.460938 195.328125 76.589844 C 194.074219 77.925781 192.964844 80.105469 192.546875 80.925781 L 187.585938 78.40625 C 188.464844 76.679688 189.679688 74.480469 191.273438 72.785156 C 194.675781 69.164062 197.839844 69.964844 199.425781 70.765625 C 203.960938 73.054688 205.414062 78.933594 202.808594 84.433594 C 196.300781 98.191406 190.015625 108.722656 184.121094 115.738281 C 174.488281 127.210938 150.800781 146.976562 131.765625 162.855469 C 120.148438 172.546875 110.113281 180.917969 107.070312 184.273438 Z M 105.210938 186.320312 " fill-opacity="1" fill-rule="nonzero"/><g clip-path="url(#e71ce9b6d2)"><path stroke-linecap="butt" transform="matrix(0.746788, 0, 0, 0.745908, 105.212782, 69.164893)" fill="none" stroke-linejoin="miter" d="M -0.00247019 157.06413 L -70.261682 94.069404 L -65.292485 88.523522 L -0.42616 146.674112 C 5.432262 141.06015 16.866645 131.513273 30.780396 119.892581 C 56.039608 98.787856 87.481547 72.530016 99.956846 57.65197 C 107.436795 48.733521 115.513048 35.154227 123.955451 17.285908 C 125.702516 13.588654 125.216058 10.017085 122.794228 8.796886 C 122.621614 8.707859 122.09331 8.440777 120.670551 9.954242 C 118.991485 11.745263 117.505957 14.667456 116.946268 15.767206 L 110.303237 12.389403 C 111.480152 10.074691 113.10691 7.126313 115.241049 4.853497 C 119.797018 -0.00111377 124.033912 1.072452 126.15759 2.146017 C 132.230472 5.214843 134.176304 13.096385 130.687405 20.469946 C 121.973003 38.914325 113.556753 53.03302 105.663576 62.4385 C 92.764588 77.819289 61.04542 104.318027 35.556056 125.606044 C 19.999855 138.598805 6.5621 149.821491 2.487359 154.319992 Z M -0.00247019 157.06413 " stroke="#013345" stroke-width="1.72" stroke-opacity="1" stroke-miterlimit="10"/></g><path fill="#013345" d="M 264.308594 95.382812 L 278.394531 95.382812 C 294.144531 95.382812 303.8125 83.375 303.8125 63.875 C 303.8125 44.496094 294.027344 32.964844 277.675781 32.964844 L 264.308594 32.964844 Z M 254.523438 29.871094 C 254.523438 26.425781 256.433594 24.523438 259.773438 24.523438 L 279.109375 24.523438 C 300.46875 24.523438 314.316406 39.976562 314.316406 64.113281 C 314.316406 88.25 300.949219 103.824219 280.421875 103.824219 L 259.773438 103.824219 C 256.433594 103.824219 254.523438 101.921875 254.523438 98.472656 Z M 254.523438 29.871094 " fill-opacity="1" fill-rule="nonzero"/><g clip-path="url(#919a1dc832)"><path stroke-linecap="butt" transform="matrix(0.749223, 0, 0, 0.746387, 264.310225, 32.963002)" fill="none" stroke-linejoin="miter" d="M -0.00217788 83.629263 L 18.798541 83.629263 C 39.820309 83.629263 52.724296 67.54135 52.724296 41.4155 C 52.724296 15.451889 39.663897 0.00246808 17.839214 0.00246808 L -0.00217788 0.00246808 Z M -13.062577 -4.142499 C -13.062577 -8.758484 -10.513062 -11.30722 -6.055321 -11.30722 L 19.752654 -11.30722 C 48.261342 -11.30722 66.744022 9.396679 66.744022 41.734746 C 66.744022 74.072812 48.902631 94.938951 21.504468 94.938951 L -6.055321 94.938951 C -10.513062 94.938951 -13.062577 92.390215 -13.062577 87.768996 Z M -13.062577 -4.142499 " stroke="#013345" stroke-width="1.66" stroke-opacity="1" stroke-miterlimit="10"/></g><g clip-path="url(#3a680576cc)"><path fill="#013345" d="M 335.125 74.035156 C 335.125 87.421875 341.515625 95.953125 351.34375 95.953125 C 361.171875 95.953125 367.5625 87.304688 367.5625 74.152344 C 367.5625 61 361.171875 52.351562 351.34375 52.351562 C 341.515625 52.351562 335.125 61 335.125 74.035156 M 367.679688 48.796875 C 367.679688 45.953125 369.574219 43.941406 372.179688 43.941406 C 374.902344 43.941406 376.796875 45.953125 376.796875 48.796875 L 376.796875 99.507812 C 376.796875 102.351562 374.902344 104.367188 372.179688 104.367188 C 369.574219 104.367188 367.679688 102.351562 367.679688 99.507812 L 367.679688 95.480469 L 367.445312 95.480469 C 362.828125 101.757812 357.972656 104.367188 351.105469 104.367188 C 336.308594 104.367188 325.414062 91.570312 325.414062 74.152344 C 325.414062 56.617188 336.308594 43.941406 351.226562 43.941406 C 357.617188 43.941406 361.996094 46.074219 367.445312 51.878906 L 367.679688 51.878906 Z M 367.679688 48.796875 " fill-opacity="1" fill-rule="nonzero"/></g><g clip-path="url(#df04993edf)"><path stroke-linecap="butt" transform="matrix(0.747811, 0, 0, 0.745807, 335.246607, 74.31368)" fill="none" stroke-linejoin="miter" d="M -0.000686162 -0.315839 C -0.000686162 17.680613 8.602549 29.150995 21.823427 29.150995 C 35.044306 29.150995 43.647541 17.523485 43.647541 -0.15871 C 43.647541 -17.840906 35.044306 -29.468416 21.823427 -29.468416 C 8.602549 -29.468416 -0.000686162 -17.840906 -0.000686162 -0.315839 Z M 43.804248 -34.245123 C 43.804248 -38.068583 46.353355 -40.776431 49.858377 -40.776431 C 53.520106 -40.776431 56.069212 -38.068583 56.069212 -34.245123 L 56.069212 33.927702 C 56.069212 37.751162 53.520106 40.45901 49.858377 40.45901 C 46.353355 40.45901 43.804248 37.751162 43.804248 33.927702 L 43.804248 28.517243 L 43.48561 28.517243 C 37.274774 36.955044 30.745301 40.45901 21.504789 40.45901 C 1.592505 40.45901 -13.059634 23.258676 -13.059634 -0.15871 C -13.059634 -23.733225 1.592505 -40.776431 21.661496 -40.776431 C 30.264731 -40.776431 36.156929 -37.911455 43.48561 -30.107405 L 43.804248 -30.107405 Z M 43.804248 -34.245123 " stroke="#013345" stroke-width="1.66" stroke-opacity="1" stroke-miterlimit="10"/></g><path fill="#013345" d="M 424.722656 47.699219 C 425.558594 45.085938 427.105469 43.898438 429.722656 43.898438 C 432.460938 43.898438 434.367188 45.800781 434.367188 48.414062 C 434.367188 49.484375 434.25 50.078125 433.296875 52.453125 L 416.269531 100.214844 C 415.078125 103.539062 414.007812 104.492188 411.148438 104.492188 C 408.292969 104.492188 407.21875 103.539062 406.03125 100.214844 L 388.882812 52.453125 L 388.527344 51.503906 C 388.167969 50.316406 387.929688 49.363281 387.929688 48.414062 C 387.929688 45.800781 389.835938 43.898438 392.453125 43.898438 C 395.074219 43.898438 396.625 45.085938 397.574219 47.699219 L 411.03125 88.691406 L 411.269531 88.691406 Z M 424.722656 47.699219 " fill-opacity="1" fill-rule="nonzero"/><g clip-path="url(#c5f33967c9)"><path stroke-linecap="butt" transform="matrix(0.747494, 0, 0, 0.745861, 424.722761, 100.689557)" fill="none" stroke-linejoin="miter" d="M -0.000140716 -71.045848 C 1.11818 -74.549559 3.187595 -76.141678 6.688877 -76.141678 C 10.35216 -76.141678 12.902348 -73.591145 12.902348 -70.087435 C 12.902348 -68.652432 12.745574 -67.856372 11.47048 -64.672134 L -11.308762 -0.636463 C -12.90263 3.820423 -14.334498 5.098309 -18.15978 5.098309 C -21.979836 5.098309 -23.41693 3.820423 -25.005572 -0.636463 L -47.946814 -64.672134 L -48.422362 -65.944782 C -48.903135 -67.536901 -49.221908 -68.814786 -49.221908 -70.087435 C -49.221908 -73.591145 -46.67172 -76.141678 -43.170437 -76.141678 C -39.663928 -76.141678 -37.589288 -74.549559 -36.319419 -71.045848 L -18.316554 -16.086306 L -17.99778 -16.086306 Z M -0.000140716 -71.045848 " stroke="#013345" stroke-width="1.66" stroke-opacity="1" stroke-miterlimit="10"/></g><g clip-path="url(#0edd9196ae)"><path fill="#013345" d="M 454.554688 99.230469 C 454.554688 102.4375 452.6875 104.453125 449.769531 104.453125 C 446.851562 104.453125 444.984375 102.4375 444.984375 99.230469 L 444.984375 49.140625 C 444.984375 45.9375 446.851562 43.917969 449.769531 43.917969 C 452.6875 43.917969 454.554688 45.9375 454.554688 49.140625 Z M 455.71875 29.914062 C 455.71875 33.238281 453.152344 35.847656 449.769531 35.847656 C 446.5 35.847656 443.933594 33.238281 443.933594 29.914062 C 443.933594 26.46875 446.5 23.859375 449.769531 23.859375 C 453.152344 23.859375 455.71875 26.46875 455.71875 29.914062 " fill-opacity="1" fill-rule="nonzero"/></g><g clip-path="url(#1617d2b239)"><path stroke-linecap="butt" transform="matrix(0.749842, 0, 0, 0.746815, 454.884728, 29.045952)" fill="none" stroke-linejoin="miter" d="M -0.0025539 94.140586 C -0.0025539 98.440094 -2.549965 101.149516 -6.52997 101.149516 C -10.515184 101.149516 -13.062595 98.440094 -13.062595 94.140586 L -13.062595 26.917621 C -13.062595 22.618113 -10.515184 19.90869 -6.52997 19.90869 C -2.549965 19.90869 -0.0025539 22.618113 -0.0025539 26.917621 Z M 1.591532 1.115342 C 1.591532 5.576997 -1.914415 9.081462 -6.52997 9.081462 C -10.994451 9.081462 -14.495188 5.576997 -14.495188 1.115342 C -14.495188 -3.50323 -10.994451 -7.007695 -6.52997 -7.007695 C -1.914415 -7.007695 1.591532 -3.50323 1.591532 1.115342 Z M 1.591532 1.115342 " stroke="#013345" stroke-width="1.66" stroke-opacity="1" stroke-miterlimit="10"/></g><g clip-path="url(#1faae9b4d1)"><path fill="#013345" d="M 478.570312 74.238281 C 478.570312 87.546875 484.960938 96.105469 494.78125 96.105469 C 504.480469 96.105469 510.871094 87.429688 510.871094 74.359375 C 510.871094 60.929688 504.480469 52.375 494.660156 52.375 C 484.960938 52.375 478.570312 61.050781 478.570312 74.238281 M 509.921875 23.140625 C 509.921875 19.933594 511.816406 17.914062 514.773438 17.914062 C 517.730469 17.914062 519.625 19.933594 519.625 23.140625 L 519.625 99.3125 C 519.625 102.519531 517.730469 104.542969 514.773438 104.542969 C 511.816406 104.542969 509.921875 102.519531 509.921875 99.3125 L 509.921875 96.34375 L 509.6875 96.34375 C 506.492188 102.046875 501.757812 104.542969 494.304688 104.542969 C 479.515625 104.542969 468.871094 91.945312 468.871094 74.238281 C 468.871094 56.773438 479.515625 43.9375 493.832031 43.9375 C 500.339844 43.9375 505.78125 46.671875 509.6875 52.019531 L 509.921875 52.019531 Z M 509.921875 23.140625 " fill-opacity="1" fill-rule="nonzero"/></g><g clip-path="url(#1660ee6ed4)"><path stroke-linecap="butt" transform="matrix(0.745362, 0, 0, 0.747269, 478.558075, 48.236677)" fill="none" stroke-linejoin="miter" d="M 0.000696352 34.884367 C 0.000696352 52.725371 8.600759 64.194214 21.823158 64.194214 C 34.883094 64.194214 43.488398 52.563322 43.488398 35.041188 C 43.488398 17.043363 34.883094 5.57452 21.660695 5.57452 C 8.600759 5.57452 0.000696352 17.200184 0.000696352 34.884367 Z M 42.209656 -33.609824 C 42.209656 -37.911947 44.756658 -40.619723 48.739624 -40.619723 C 52.72259 -40.619723 55.269592 -37.911947 55.269592 -33.609824 L 55.269592 68.496337 C 55.269592 72.793233 52.72259 75.501009 48.739624 75.501009 C 44.756658 75.501009 42.209656 72.793233 42.209656 68.496337 L 42.209656 64.513083 L 41.88997 64.513083 C 37.59256 72.155494 31.219814 75.501009 21.183787 75.501009 C 1.274197 75.501009 -13.064481 58.616613 -13.064481 34.884367 C -13.064481 11.465762 1.274197 -5.737503 20.549657 -5.737503 C 29.306942 -5.737503 36.633503 -2.073118 41.88997 5.098829 L 42.209656 5.098829 Z M 42.209656 -33.609824 " stroke="#013345" stroke-width="1.66" stroke-opacity="1" stroke-miterlimit="10"/></g><path fill="#013345" d="M 577.648438 99.328125 C 577.648438 102.539062 575.753906 104.5625 572.800781 104.5625 C 569.84375 104.5625 567.953125 102.539062 567.953125 99.328125 L 567.953125 29.875 C 567.953125 26.425781 569.84375 24.523438 573.15625 24.523438 L 600.820312 24.523438 C 603.777344 24.523438 605.550781 26.1875 605.550781 29.042969 C 605.550781 32.015625 603.777344 33.679688 600.820312 33.679688 L 577.648438 33.679688 L 577.648438 59.605469 L 598.101562 59.605469 C 601.058594 59.605469 602.832031 61.269531 602.832031 64.125 C 602.832031 67.097656 601.058594 68.765625 598.101562 68.765625 L 577.648438 68.765625 Z M 577.648438 99.328125 " fill-opacity="1" fill-rule="nonzero"/><g clip-path="url(#1e3891202d)"><path stroke-linecap="butt" transform="matrix(0.742241, 0, 0, 0.746617, 577.648399, 29.75513)" fill="none" stroke-linejoin="miter" d="M 0.0000524674 93.184285 C 0.0000524674 97.484932 -2.552395 100.195072 -6.531056 100.195072 C -10.51498 100.195072 -13.062165 97.484932 -13.062165 93.184285 L -13.062165 0.160551 C -13.062165 -4.459244 -10.51498 -7.007195 -6.052143 -7.007195 L 31.218858 -7.007195 C 35.202781 -7.007195 37.592083 -4.778392 37.592083 -0.953851 C 37.592083 3.027649 35.202781 5.256451 31.218858 5.256451 L 0.0000524674 5.256451 L 0.0000524674 39.980778 L 27.555964 39.980778 C 31.539887 39.980778 33.929189 42.20958 33.929189 46.034122 C 33.929189 50.015622 31.539887 52.249656 27.555964 52.249656 L 0.0000524674 52.249656 Z M 0.0000524674 93.184285 " stroke="#013345" stroke-width="1.66" stroke-opacity="1" stroke-miterlimit="10"/></g><path fill="#013345" d="M 626.363281 99.421875 C 626.363281 102.636719 624.460938 104.660156 621.484375 104.660156 C 618.507812 104.660156 616.605469 102.636719 616.605469 99.421875 L 616.605469 23.117188 C 616.605469 19.902344 618.507812 17.878906 621.484375 17.878906 C 624.460938 17.878906 626.363281 19.902344 626.363281 23.117188 Z M 626.363281 99.421875 " fill-opacity="1" fill-rule="nonzero"/><g clip-path="url(#874df94f22)"><path stroke-linecap="butt" transform="matrix(0.747077, 0, 0, 0.74734, 626.3629, 23.115828)" fill="none" stroke-linejoin="miter" d="M 0.000510686 102.103495 C 0.000510686 106.405209 -2.545873 109.112728 -6.530152 109.112728 C -10.514432 109.112728 -13.060815 106.405209 -13.060815 102.103495 L -13.060815 0.0018185 C -13.060815 -4.299895 -10.514432 -7.007414 -6.530152 -7.007414 C -2.545873 -7.007414 0.000510686 -4.299895 0.000510686 0.0018185 Z M 0.000510686 102.103495 " stroke="#013345" stroke-width="1.66" stroke-opacity="1" stroke-miterlimit="10"/></g><g clip-path="url(#04995dbd61)"><path fill="#013345" d="M 662.167969 35.253906 C 660.019531 36.085938 659.425781 36.328125 658.351562 36.328125 C 655.964844 36.328125 654.058594 34.179688 654.058594 31.558594 C 654.058594 29.890625 655.367188 28.582031 657.992188 27.507812 L 670.875 22.265625 C 672.664062 21.429688 673.617188 21.191406 674.574219 21.191406 C 676.839844 21.191406 678.867188 23.335938 678.867188 25.957031 C 678.867188 27.628906 677.554688 28.9375 674.929688 30.011719 Z M 650.121094 74.222656 C 650.121094 87.6875 656.5625 96.269531 666.460938 96.269531 C 676.363281 96.269531 682.804688 87.570312 682.804688 74.339844 C 682.804688 61.113281 676.363281 52.414062 666.460938 52.414062 C 656.5625 52.414062 650.121094 61.113281 650.121094 74.222656 M 692.582031 74.339844 C 692.582031 91.980469 681.609375 104.730469 666.460938 104.730469 C 651.3125 104.730469 640.339844 91.980469 640.339844 74.582031 C 640.339844 56.703125 651.195312 43.953125 666.460938 43.953125 C 681.609375 43.953125 692.582031 56.703125 692.582031 74.339844 " fill-opacity="1" fill-rule="nonzero"/></g><g clip-path="url(#00933d84a2)"><path stroke-linecap="butt" transform="matrix(0.75022, 0, 0, 0.744713, 662.201317, 90.388625)" fill="none" stroke-linejoin="miter" d="M 0.00241055 -74.066295 C -2.866541 -72.95429 -3.663182 -72.634326 -5.095055 -72.634326 C -8.281621 -72.634326 -10.832957 -75.503509 -10.832957 -79.007374 C -10.832957 -81.23663 -9.078263 -82.988562 -5.574081 -84.420531 L 11.629213 -91.433506 C 14.019138 -92.545512 15.289599 -92.865475 16.565267 -92.865475 C 19.590423 -92.865475 22.30317 -89.996292 22.30317 -86.492427 C 22.30317 -84.263172 20.548476 -82.511239 17.044294 -81.07927 Z M -16.086627 -21.980396 C -16.086627 -3.978502 -7.48498 7.487739 5.735106 7.487739 C 18.955192 7.487739 27.556839 -4.141107 27.556839 -21.823037 C 27.556839 -39.504967 18.955192 -51.128567 5.735106 -51.128567 C -7.48498 -51.128567 -16.086627 -39.504967 -16.086627 -21.980396 Z M 40.620721 -21.823037 C 40.620721 1.754618 25.963556 18.796621 5.735106 18.796621 C -14.493343 18.796621 -29.150508 1.754618 -29.150508 -21.503073 C -29.150508 -45.395447 -14.654754 -62.442695 5.735106 -62.442695 C 25.963556 -62.442695 40.620721 -45.395447 40.620721 -21.823037 Z M 40.620721 -21.823037 " stroke="#013345" stroke-width="1.66" stroke-opacity="1" stroke-miterlimit="10"/></g><path fill="#013345" d="M 716.101562 54.117188 C 719.40625 47.9375 724.601562 43.898438 729.441406 43.898438 C 732.511719 43.898438 734.753906 45.917969 734.753906 48.886719 C 734.753906 51.738281 732.863281 53.402344 728.730469 54.234375 C 720.585938 55.78125 715.746094 61.957031 715.863281 71.105469 L 715.863281 99.265625 C 715.863281 102.472656 713.972656 104.492188 711.023438 104.492188 C 708.070312 104.492188 706.179688 102.472656 706.179688 99.265625 L 706.179688 49.125 C 706.179688 45.917969 708.070312 43.898438 711.023438 43.898438 C 713.972656 43.898438 715.863281 45.917969 715.863281 49.125 L 715.863281 54.117188 Z M 716.101562 54.117188 " fill-opacity="1" fill-rule="nonzero"/><g clip-path="url(#e91139ab6a)"><path stroke-linecap="butt" transform="matrix(0.741186, 0, 0, 0.745892, 716.100153, 94.273725)" fill="none" stroke-linejoin="miter" d="M 0.00190226 -53.836901 C 4.460551 -62.121859 11.47001 -67.536932 17.999875 -67.536932 C 22.142307 -67.536932 25.167443 -64.829396 25.167443 -60.849264 C 25.167443 -57.026243 22.616632 -54.795275 17.040686 -53.67979 C 6.052172 -51.605932 -0.477692 -43.326212 -0.319584 -31.061122 L -0.319584 6.69252 C -0.319584 10.992109 -2.870395 13.699646 -6.849449 13.699646 C -10.833773 13.699646 -13.384584 10.992109 -13.384584 6.69252 L -13.384584 -60.529806 C -13.384584 -64.829396 -10.833773 -67.536932 -6.849449 -67.536932 C -2.870395 -67.536932 -0.319584 -64.829396 -0.319584 -60.529806 L -0.319584 -53.836901 Z M 0.00190226 -53.836901 " stroke="#013345" stroke-width="1.66" stroke-opacity="1" stroke-miterlimit="10"/></g><path fill="#013345" d="M 782.363281 70.632812 C 781.886719 59.109375 775.789062 52.335938 765.871094 52.335938 C 755.953125 52.335938 750.457031 58.515625 749.621094 70.632812 Z M 749.621094 77.996094 C 749.980469 84.292969 751.414062 87.976562 754.757812 91.300781 C 757.984375 94.511719 762.167969 96.054688 767.425781 96.054688 C 773.519531 96.054688 777.824219 94.511719 783.199219 90.234375 C 785.472656 88.453125 786.425781 87.976562 787.5 87.976562 C 789.292969 87.976562 790.96875 89.878906 790.96875 92.132812 C 790.96875 97.835938 777.824219 104.488281 766.710938 104.488281 C 750.574219 104.488281 739.820312 92.488281 739.820312 74.433594 C 739.820312 56.730469 751.054688 43.902344 766.351562 43.902344 C 780.929688 43.902344 792.164062 56.375 792.164062 72.535156 C 792.164062 76.570312 790.730469 77.996094 786.664062 77.996094 Z M 749.621094 77.996094 " fill-opacity="1" fill-rule="nonzero"/><g clip-path="url(#0e53bb3645)"><path stroke-linecap="butt" transform="matrix(0.75022, 0, 0, 0.745797, 782.364142, 77.757757)" fill="none" stroke-linejoin="miter" d="M -0.0011469 -9.553465 C -0.636377 -25.004638 -8.764205 -34.086786 -21.984291 -34.086786 C -35.204377 -34.086786 -42.530356 -25.800767 -43.644613 -9.553465 Z M -43.644613 0.319573 C -43.165587 8.762723 -41.254688 13.701861 -36.79766 18.159131 C -32.496837 22.464509 -26.920345 24.533395 -19.911981 24.533395 C -11.789361 24.533395 -6.051458 22.464509 1.11311 16.729243 C 4.143472 14.340858 5.413934 13.701861 6.845806 13.701861 C 9.235731 13.701861 11.469451 16.252614 11.469451 19.274759 C 11.469451 26.92178 -6.051458 35.841559 -20.864827 35.841559 C -42.374152 35.841559 -56.708495 19.751388 -56.708495 -4.457196 C -56.708495 -28.194389 -41.733714 -45.39495 -21.343854 -45.39495 C -1.912045 -45.39495 13.062735 -28.671019 13.062735 -7.002712 C 13.062735 -1.592182 11.151836 0.319573 5.731549 0.319573 Z M -43.644613 0.319573 " stroke="#013345" stroke-width="1.66" stroke-opacity="1" stroke-miterlimit="10"/></g><path fill="#013345" d="M 840.347656 95.296875 C 843.441406 95.296875 845.222656 96.839844 845.222656 99.570312 C 845.222656 102.183594 843.441406 103.726562 840.347656 103.726562 L 805.019531 103.726562 C 801.925781 103.726562 800.261719 102.539062 800.261719 100.164062 C 800.261719 98.738281 800.738281 97.671875 802.285156 95.296875 L 830.59375 53.039062 L 806.328125 53.039062 C 803.117188 53.039062 801.332031 51.496094 801.332031 48.882812 C 801.332031 46.152344 803.117188 44.613281 806.328125 44.613281 L 839.277344 44.613281 C 842.25 44.613281 844.035156 45.917969 844.035156 48.171875 C 844.035156 49.476562 843.441406 50.902344 842.011719 53.039062 L 813.347656 95.058594 L 813.703125 95.296875 Z M 840.347656 95.296875 " fill-opacity="1" fill-rule="nonzero"/><g clip-path="url(#db6631915c)"><path stroke-linecap="butt" transform="matrix(0.746727, 0, 0, 0.745211, 840.346531, 53.039259)" fill="none" stroke-linejoin="miter" d="M 0.00150725 56.705559 C 4.144585 56.705559 6.529993 58.776071 6.529993 62.440091 C 6.529993 65.946857 4.144585 68.017369 0.00150725 68.017369 L -47.309092 68.017369 C -51.452169 68.017369 -53.680643 66.423861 -53.680643 63.236845 C -53.680643 61.323587 -53.042442 59.892575 -50.970903 56.705559 L -13.060696 -0.000263569 L -45.556654 -0.000263569 C -49.856666 -0.000263569 -52.247306 -2.070776 -52.247306 -5.577542 C -52.247306 -9.241562 -49.856666 -11.306832 -45.556654 -11.306832 L -1.43183 -11.306832 C 2.549082 -11.306832 4.939721 -9.55607 4.939721 -6.53155 C 4.939721 -4.780788 4.144585 -2.86753 2.229981 -0.000263569 L -36.156261 56.385809 L -35.680226 56.705559 Z M 0.00150725 56.705559 " stroke="#013345" stroke-width="1.66" stroke-opacity="1" stroke-miterlimit="10"/></g><g clip-path="url(#9ae1a79969)"><path fill="#013345" d="M 258.730469 147.386719 L 265.171875 147.386719 C 269.339844 147.386719 272.402344 144.300781 272.402344 140.042969 C 272.402344 135.574219 269.445312 132.699219 264.960938 132.699219 L 258.730469 132.699219 Z M 258.730469 162.390625 C 258.730469 163.828125 257.882812 164.730469 256.566406 164.730469 C 255.246094 164.730469 254.398438 163.828125 254.398438 162.390625 L 254.398438 131.316406 C 254.398438 129.773438 255.246094 128.921875 256.722656 128.921875 L 265.328125 128.921875 C 271.980469 128.921875 276.730469 133.550781 276.730469 140.042969 C 276.730469 146.375 271.875 151.164062 265.433594 151.164062 L 258.730469 151.164062 Z M 258.730469 162.390625 " fill-opacity="1" fill-rule="nonzero"/></g><g clip-path="url(#4bf9986b8c)"><g clip-path="url(#ff57360a4d)"><g transform="matrix(1, 0, 0, 1, 280, 137)"><g clip-path="url(#50605658f6)"><g clip-path="url(#5ef3319328)"><g clip-path="url(#4eb4e67875)"><path fill="#013345" d="M 0.738281 0.558594 L 20.457031 0.558594 L 20.457031 27.828125 L 0.738281 27.828125 Z M 0.738281 0.558594 " fill-opacity="1" fill-rule="nonzero"/></g></g></g></g></g></g><g clip-path="url(#a2908b7b03)"><path fill="#013345" d="M 310.921875 162.015625 C 310.921875 163.433594 310.09375 164.328125 308.800781 164.328125 C 307.507812 164.328125 306.679688 163.433594 306.679688 162.015625 L 306.679688 139.8125 C 306.679688 138.394531 307.507812 137.5 308.800781 137.5 C 310.09375 137.5 310.921875 138.394531 310.921875 139.8125 Z M 311.441406 131.289062 C 311.441406 132.765625 310.300781 133.921875 308.800781 133.921875 C 307.351562 133.921875 306.214844 132.765625 306.214844 131.289062 C 306.214844 129.765625 307.351562 128.609375 308.800781 128.609375 C 310.300781 128.609375 311.441406 129.765625 311.441406 131.289062 " fill-opacity="1" fill-rule="nonzero"/></g><g clip-path="url(#5803b8f97f)"><g clip-path="url(#314650248e)"><g transform="matrix(1, 0, 0, 1, 317, 137)"><g clip-path="url(#1f587a08e7)"><g clip-path="url(#c19dcba908)"><g clip-path="url(#14e7d9e9c5)"><path fill="#013345" d="M 0.828125 0.558594 L 20.015625 0.558594 L 20.015625 27.839844 L 0.828125 27.839844 Z M 0.828125 0.558594 " fill-opacity="1" fill-rule="nonzero"/></g></g></g></g></g></g><g clip-path="url(#7c454b7d53)"><path fill="#013345" d="M 350.636719 133.632812 C 349.6875 134.003906 349.421875 134.109375 348.945312 134.109375 C 347.890625 134.109375 347.042969 133.152344 347.042969 131.988281 C 347.042969 131.246094 347.625 130.660156 348.789062 130.183594 L 354.5 127.851562 C 355.289062 127.480469 355.714844 127.375 356.136719 127.375 C 357.140625 127.375 358.042969 128.328125 358.042969 129.496094 C 358.042969 130.238281 357.460938 130.820312 356.296875 131.296875 Z M 345.296875 150.972656 C 345.296875 156.964844 348.152344 160.78125 352.542969 160.78125 C 356.929688 160.78125 359.785156 156.910156 359.785156 151.023438 C 359.785156 145.136719 356.929688 141.265625 352.542969 141.265625 C 348.152344 141.265625 345.296875 145.136719 345.296875 150.972656 M 364.121094 151.023438 C 364.121094 158.875 359.257812 164.546875 352.542969 164.546875 C 345.828125 164.546875 340.960938 158.875 340.960938 151.128906 C 340.960938 143.175781 345.773438 137.503906 352.542969 137.503906 C 359.257812 137.503906 364.121094 143.175781 364.121094 151.023438 " fill-opacity="1" fill-rule="nonzero"/></g><g clip-path="url(#46cae593c4)"><g clip-path="url(#16294780c2)"><g transform="matrix(1, 0, 0, 1, 370, 125)"><g clip-path="url(#df43a250c1)"><g clip-path="url(#edc5005925)"><g clip-path="url(#c6608060fd)"><path fill="#013345" d="M 0.96875 0.90625 L 5.34375 0.90625 L 5.34375 39.808594 L 0.96875 39.808594 Z M 0.96875 0.90625 " fill-opacity="1" fill-rule="nonzero"/></g></g></g></g></g></g><g clip-path="url(#391a89c889)"><path fill="#013345" d="M 386.535156 150.898438 C 386.535156 156.832031 389.390625 160.613281 393.78125 160.613281 C 398.167969 160.613281 401.023438 156.78125 401.023438 150.949219 C 401.023438 145.121094 398.167969 141.289062 393.78125 141.289062 C 389.390625 141.289062 386.535156 145.121094 386.535156 150.898438 M 405.359375 150.949219 C 405.359375 158.722656 400.496094 164.34375 393.78125 164.34375 C 387.066406 164.34375 382.203125 158.722656 382.203125 151.054688 C 382.203125 143.179688 387.011719 137.5625 393.78125 137.5625 C 400.496094 137.5625 405.359375 143.179688 405.359375 150.949219 " fill-opacity="1" fill-rule="nonzero"/></g><g clip-path="url(#2f1488c2d5)"><path fill="#013345" d="M 415.519531 150.984375 C 415.519531 156.949219 418.417969 160.753906 422.875 160.753906 C 427.277344 160.753906 430.230469 156.84375 430.230469 151.035156 C 430.230469 145.230469 427.277344 141.324219 422.875 141.324219 C 418.417969 141.324219 415.519531 145.175781 415.519531 150.984375 M 429.75 139.738281 C 429.75 138.472656 430.714844 137.574219 432.109375 137.574219 C 433.347656 137.574219 434.203125 138.472656 434.203125 139.738281 L 434.203125 162.28125 C 434.203125 169.886719 429.480469 174.847656 422.230469 174.847656 C 417.347656 174.847656 411.867188 172.261719 411.867188 169.992188 C 411.867188 168.828125 412.621094 168.035156 413.695312 168.035156 C 414.339844 168.035156 414.980469 168.300781 416.269531 169.09375 C 418.582031 170.519531 420.296875 171.097656 422.445312 171.097656 C 427.011719 171.097656 429.75 168.035156 429.75 163.023438 L 429.75 160.699219 L 429.640625 160.699219 C 427.976562 163.339844 425.777344 164.5 422.714844 164.5 C 416.054688 164.5 411.117188 158.796875 411.117188 151.035156 C 411.117188 143.328125 416.054688 137.574219 422.609375 137.574219 C 425.398438 137.574219 427.921875 138.789062 429.640625 140.898438 L 429.75 140.898438 Z M 429.75 139.738281 " fill-opacity="1" fill-rule="nonzero"/></g><g clip-path="url(#564d7550ee)"><path fill="#013345" d="M 445.390625 150.898438 C 445.390625 156.832031 448.246094 160.613281 452.632812 160.613281 C 457.023438 160.613281 459.878906 156.78125 459.878906 150.949219 C 459.878906 145.121094 457.023438 141.289062 452.632812 141.289062 C 448.246094 141.289062 445.390625 145.121094 445.390625 150.898438 M 464.210938 150.949219 C 464.210938 158.722656 459.347656 164.34375 452.632812 164.34375 C 445.917969 164.34375 441.054688 158.722656 441.054688 151.054688 C 441.054688 143.179688 445.863281 137.5625 452.632812 137.5625 C 459.347656 137.5625 464.210938 143.179688 464.210938 150.949219 " fill-opacity="1" fill-rule="nonzero"/></g><g clip-path="url(#65ff56a800)"><g clip-path="url(#50f4645e3c)"><g transform="matrix(1, 0, 0, 1, 484, 128)"><g clip-path="url(#211fbb35db)"><g clip-path="url(#618beaef97)"><g clip-path="url(#abbd710707)"><path fill="#013345" d="M 0.332031 0.582031 L 27.214844 0.582031 L 27.214844 36.8125 L 0.332031 36.8125 Z M 0.332031 0.582031 " fill-opacity="1" fill-rule="nonzero"/></g></g></g></g></g></g><g clip-path="url(#7e40751a1c)"><g clip-path="url(#a4b007594f)"><g transform="matrix(1, 0, 0, 1, 517, 125)"><g clip-path="url(#965a793540)"><g clip-path="url(#0b3e8d6d36)"><g clip-path="url(#4d4c70799a)"><path fill="#013345" d="M 0.300781 0.90625 L 4.679688 0.90625 L 4.679688 39.808594 L 0.300781 39.808594 Z M 0.300781 0.90625 " fill-opacity="1" fill-rule="nonzero"/></g></g></g></g></g></g><g clip-path="url(#f7974646a6)"><path fill="#013345" d="M 534.105469 162.214844 C 534.105469 163.648438 533.246094 164.550781 531.90625 164.550781 C 530.5625 164.550781 529.707031 163.648438 529.707031 162.214844 L 529.707031 139.835938 C 529.707031 138.402344 530.5625 137.503906 531.90625 137.503906 C 533.246094 137.503906 534.105469 138.402344 534.105469 139.835938 Z M 529.921875 133.632812 C 529.007812 134.054688 528.6875 134.109375 528.257812 134.109375 C 527.238281 134.109375 526.328125 133.152344 526.328125 132.039062 C 526.328125 131.242188 526.863281 130.660156 528.097656 130.183594 L 533.835938 127.851562 C 534.695312 127.480469 535.125 127.371094 535.554688 127.371094 C 536.574219 127.371094 537.484375 128.328125 537.484375 129.496094 C 537.484375 130.238281 536.894531 130.820312 535.714844 131.296875 Z M 529.921875 133.632812 " fill-opacity="1" fill-rule="nonzero"/></g><g clip-path="url(#bfcc7ed4e2)"><g clip-path="url(#5018e3b30c)"><g transform="matrix(1, 0, 0, 1, 541, 137)"><g clip-path="url(#6b244acbe9)"><g clip-path="url(#b6bf1aec39)"><g clip-path="url(#8772c15bb7)"><path fill="#013345" d="M 0.875 0.558594 L 21.984375 0.558594 L 21.984375 27.851562 L 0.875 27.851562 Z M 0.875 0.558594 " fill-opacity="1" fill-rule="nonzero"/></g></g></g></g></g></g><g clip-path="url(#65f4d59d25)"><path fill="#013345" d="M 575.117188 162.015625 C 575.117188 163.433594 574.289062 164.328125 572.996094 164.328125 C 571.703125 164.328125 570.875 163.433594 570.875 162.015625 L 570.875 139.8125 C 570.875 138.394531 571.703125 137.5 572.996094 137.5 C 574.289062 137.5 575.117188 138.394531 575.117188 139.8125 Z M 575.632812 131.289062 C 575.632812 132.765625 574.496094 133.921875 572.996094 133.921875 C 571.546875 133.921875 570.410156 132.765625 570.410156 131.289062 C 570.410156 129.765625 571.546875 128.609375 572.996094 128.609375 C 574.496094 128.609375 575.632812 129.765625 575.632812 131.289062 " fill-opacity="1" fill-rule="nonzero"/></g><g clip-path="url(#322f5efee0)"><g clip-path="url(#fd07de62db)"><g transform="matrix(1, 0, 0, 1, 582, 137)"><g clip-path="url(#b1a567c938)"><g clip-path="url(#229c5cc34a)"><g clip-path="url(#606bd9f421)"><path fill="#013345" d="M 0.0273438 0.558594 L 19.210938 0.558594 L 19.210938 27.839844 L 0.0273438 27.839844 Z M 0.0273438 0.558594 " fill-opacity="1" fill-rule="nonzero"/></g></g></g></g></g></g><g clip-path="url(#50c24a78e8)"><path fill="#013345" d="M 609.496094 150.898438 C 609.496094 156.832031 612.351562 160.613281 616.742188 160.613281 C 621.128906 160.613281 623.984375 156.78125 623.984375 150.949219 C 623.984375 145.121094 621.128906 141.289062 616.742188 141.289062 C 612.351562 141.289062 609.496094 145.121094 609.496094 150.898438 M 628.320312 150.949219 C 628.320312 158.722656 623.457031 164.34375 616.742188 164.34375 C 610.027344 164.34375 605.160156 158.722656 605.160156 151.054688 C 605.160156 143.179688 609.972656 137.5625 616.742188 137.5625 C 623.457031 137.5625 628.320312 143.179688 628.320312 150.949219 " fill-opacity="1" fill-rule="nonzero"/></g></svg>