<?xml version="1.0" encoding="UTF-8"?>
<!DOCTYPE svg PUBLIC "-//W3C//DTD SVG 1.1//EN" "http://www.w3.org/Graphics/SVG/1.1/DTD/svg11.dtd">
<!-- Creator: CorelDRAW -->
<svg xmlns="http://www.w3.org/2000/svg" xml:space="preserve" width="79.7604mm" height="81.1908mm" version="1.1" style="shape-rendering:geometricPrecision; text-rendering:geometricPrecision; image-rendering:optimizeQuality; fill-rule:evenodd; clip-rule:evenodd"
viewBox="0 0 3016 3070.09"
 xmlns:xlink="http://www.w3.org/1999/xlink"
 xmlns:xodm="http://www.corel.com/coreldraw/odm/2003">
 <defs>
  <style type="text/css">
   <![CDATA[
    .str0 {stroke:#90AEB9;stroke-width:94.53;stroke-linecap:round;stroke-miterlimit:22.9256}
    .fil0 {fill:none}
    .fil1 {fill:#90AEB9}
   ]]>
  </style>
 </defs>
 <g id="Layer_x0020_1">
  <metadata id="CorelCorpID_0Corel-Layer"/>
  <g id="_2418694075312">
   <path class="fil0 str0" d="M2968.72 2915.74c-107.07,-44.61 -214.14,-89.22 -372.69,-134.73 -158.55,-45.5 -368.6,-91.9 -733.81,-96.78 -365.21,-4.87 -885.59,31.77 -1173.16,40.95 -287.56,9.18 -342.31,-9.12 -370.96,-33.56 -28.65,-24.44 -31.2,-55.03 5.77,-141.71 36.96,-86.68 113.44,-229.43 238.99,-467.15 125.55,-237.72 300.17,-570.4 388.76,-764.14 88.59,-193.74 91.13,-248.55 92.41,-416.8 1.27,-168.25 1.27,-449.94 -12.11,-593.98 -13.39,-144.03 -40.15,-150.41 -57.99,-163.79 -17.85,-13.39 -26.77,-33.78 -26.77,-52.26 0,-18.48 8.92,-35.05 144.67,-41.42 135.75,-6.38 398.32,-2.55 539.8,7.65 141.49,10.19 161.88,26.76 164.43,43.33 2.55,16.57 -12.75,33.14 -30.59,45.25 -17.84,12.11 -38.24,19.75 -49.07,164.43 -10.83,144.67 -12.11,426.36 -10.19,595.94 1.92,169.58 7.03,227.06 101.99,427.81 94.96,200.75 279.77,544.79 389.71,761.74 109.94,216.95 145.01,306.81 -118.2,404.32 -263.21,97.51 -824.7,202.66 -1213.15,290.93 -388.45,88.27 -603.87,159.65 -819.28,231.03"/>
   <path class="fil1" d="M1134.35 1328.59c-134.12,142.92 -263.12,421.42 -371.59,644.23 -108.47,222.81 -196.42,389.91 -244.79,485.93 -48.37,96.01 -57.17,120.93 -49.84,133.39 7.33,12.46 30.78,12.46 148.05,13.19 117.27,0.73 328.35,2.2 592.93,-35.91 264.58,-38.11 582.67,-115.8 744.65,-166.37 161.97,-50.57 167.83,-74.02 165.64,-98.94 -2.2,-24.92 -12.46,-51.3 -96.75,-238.93 -84.29,-187.63 -242.6,-536.5 -334.21,-712.4 -91.61,-175.9 -116.53,-178.83 -198.62,-176.63 -82.09,2.2 -221.34,9.53 -355.47,152.45z"/>
  </g>
 </g>
</svg>
