<?xml version="1.0" encoding="UTF-8"?>
<!DOCTYPE svg PUBLIC "-//W3C//DTD SVG 1.1//EN" "http://www.w3.org/Graphics/SVG/1.1/DTD/svg11.dtd">
<!-- Creator: CorelDRAW -->
<svg xmlns="http://www.w3.org/2000/svg" xml:space="preserve" width="1080px" height="1920px" version="1.1" style="shape-rendering:geometricPrecision; text-rendering:geometricPrecision; image-rendering:optimizeQuality; fill-rule:evenodd; clip-rule:evenodd"
viewBox="0 0 133924.8 46804.5"
 xmlns:xlink="http://www.w3.org/1999/xlink"
 xmlns:xodm="http://www.corel.com/coreldraw/odm/2003">
 <defs>
  <style type="text/css">
   <![CDATA[
    .fil0 {fill:#05A3D4;fill-rule:nonzero}
   ]]>
  </style>
 </defs>
 <g id="Layer_x0020_1">
  <metadata id="CorelCorpID_0Corel-Layer"/>
  <path class="fil0" d="M469.9 30688c1062.7,-869 2074.9,-1737.7 3351.3,-2284.5 1210.7,-520.3 2456.5,-899.4 3759.4,-1108.8 2727.3,-434.3 5470.2,-306.7 8168.9,282.2 5800.8,1267.7 10885.4,4458.2 16344.4,6638.8 2623.8,1047.5 5390.7,1935.8 8226,2119 2595.2,167.1 4795.7,-190 7256.3,-1153.2 330.9,-130.5 915,-401.5 1382.6,-641.5 559.9,-289 1104.5,-602.1 1633.4,-941.6 1047.4,-668.2 1810.2,-1257.1 2725.2,-2101.1 928.4,-855.6 1735.3,-1730.9 2460.9,-2670.1 -1279.1,-2235.9 -2229.5,-4689.9 -2974.5,-7044.7 -919.3,-2903.6 -1503.9,-5904.5 -1792.7,-8936 -271,-2859.6 -376.9,-5882.4 807.3,-8563.6 1086.9,-2460.4 3686.5,-4471.6 6473.1,-4268.7 2778.4,202.9 4575.1,2348.3 5375.6,4857.6 775.8,2440.6 800.4,5205.5 743,7743.3 -63.9,2828.5 -434.4,5670.7 -1149,8409 -716.4,2751.7 -1823.1,5415.1 -3313.5,7831.5 1397.7,1931.5 3170.6,3499.2 5467.7,4222.4 2202.6,692.3 4301.6,396.7 6134.1,-807.2 692.2,-454.1 1492.3,-1214.5 2160.5,-2015 564.6,-677 1241.4,-1748.5 1746.4,-2692 1086.9,-2026.6 1755.1,-4105.5 2513.5,-6367.8 789,-2347.9 1620.4,-4722.8 2852.8,-6878.9 1254.6,-2196.2 2985.7,-4160.5 5203.6,-5415.2 2266.7,-1280.8 4912.2,-1790.3 7500.8,-1655.7 3847.4,198.6 7500.7,1543.2 10847.6,3415.2 463.3,-1106.7 1040.7,-2160.5 1750.7,-3126.2 1457.6,-1977.8 3334,-3503.5 5615.7,-4434 2396.6,-976.9 5038,-1109.2 7571.3,-692.3 5155.2,846.5 9523,4365.5 12089.3,8825.8 634.8,1104.5 1164.2,2262.1 1629.4,3448.5 451.8,1150.8 678.8,2387.6 884.1,3605 123.3,740.6 -981.2,1384.6 -1333.9,561.9 -498.4,-1159.6 -1096.1,-2264.3 -1649.2,-3395.3 -560,-1142.1 -1201.6,-2251.3 -1927.2,-3296.3 -1338.1,-1935.8 -2978.7,-3734.9 -4971.7,-5013.6 -3922.7,-2516.1 -9258.2,-3080.4 -13194,-291.3 -1851.8,1312 -3097.7,3256.6 -3873.7,5397.6 341.7,227.1 683.6,458.5 1018.5,694.3 4286.1,3016.6 8034.5,6674.2 11211.5,10839.1 1552.1,2035.1 2945.9,4193.7 4156.1,6449 1175.4,2191.8 2333,4526.6 2991.9,6934.4 624.1,2270.7 851.3,5037.9 -515.9,7099.3 -1538.8,2324.2 -4352.4,3016.5 -6938.5,2220.4 -2595.2,-800.5 -4685.1,-2605.9 -6497.7,-4559.6 -1834.3,-1979.8 -3461.5,-4173.6 -4817.6,-6508.4 -2603.5,-4489.1 -4345.6,-9622 -4680.7,-14818.8 -143.1,-2222.4 -13.2,-4559.6 489.7,-6801.8 -1812.6,-1056.4 -3710.7,-1944.9 -5728.2,-2544.5 -2220.3,-661.4 -4678.8,-1023.1 -6865.8,-624.2 -2304.1,421.4 -4174.1,1492.9 -5697.3,3249.9 -1389,1603 -2383.6,3819 -3126.7,5838.5 -1671.1,4544.4 -2797.7,9277.9 -5992.5,13067.9 -1481.7,1755.2 -3450.8,3166.3 -5686.2,3765.9 -2723.3,727.6 -5589.5,200.9 -8056.7,-1089 -1734.9,-906.2 -3181.3,-2173.9 -4407.3,-3648.9 -804.9,961.4 -1684.6,1862.9 -2643.6,2689.9 -3929.1,3382.2 -8913.9,5516.2 -14152.7,5384.3 -6085.2,-154.6 -11608.6,-2934.9 -17005.9,-5457.2 -4890.4,-2286.5 -9875.5,-4310.4 -15259.4,-3723.9 -871.1,94.8 -2187.4,410.2 -3205.9,789.5 -544.8,202.5 -871.1,339.2 -1444.4,623.7 -458.5,227.1 -1036.3,493.8 -1417.5,806.8 -659.4,540.5 -1587.6,646.4 -2233.5,0 -557.9,-557.6 -663.7,-1688.5 0,-2233.4l10.8 -6.4zm108545.9 665.7c1085,2249.1 2401.1,4416.3 3964.4,6365.5 1529.9,1907 3243.1,3869.3 5404,5064.5 957,529 1966.8,881.7 2972.1,806.8 262.3,-19.8 712.1,-165.3 994.3,-332.9 374.8,-224.7 626.1,-504.8 820.2,-837.7 46.4,-79.2 90.4,-163.3 132.5,-246.9 17.4,-42.1 46.2,-105.8 50.6,-121.3 88.1,-253.6 154.1,-513.9 203,-776.3 -9.2,13.4 39.6,-396.7 44,-482.6 13,-300 6.6,-601.9 -13.2,-902 -35.2,-529 -90.7,-822.2 -229.4,-1411.1 -136.7,-573.1 -308.7,-1137.8 -509.2,-1693.3 -1638.2,-4515.6 -4262,-8830.3 -7308.9,-12536.6 -2718.9,-3307.4 -5880.5,-6246.2 -9397.5,-8686.9 -101,667.8 -171.9,1333.9 -204.7,1988.6 -242.6,4735.8 992.2,9478.6 3080.2,13806.6l-2.4 -4.4zm-48157.6 -21117.9c-30.9,-678.9 -77.3,-1358.1 -143.4,-2032.9 -11.2,-118.8 -24.2,-235.7 -37.7,-352.6 -4.3,-31 -6.3,-57.2 -8.7,-81.7 -2,-13 -6.7,-35.2 -13.1,-72.5 -48.8,-302 -101.4,-602 -169.9,-899.7 -96.8,-432.2 -291,-1089.3 -407.9,-1382.5 0,6.7 -167.6,-344 -149.8,-313.1 -53,-103.5 -108.1,-204.8 -167.7,-304.3 -57.4,-99.1 -123.5,-191.8 -183,-290.8 -26.6,-44 -44,-73.1 -55,-94.9 -19.8,-15.4 -44,-37.6 -79.3,-72.8 -77.2,-74.9 -161.3,-159 -233.8,-238.1 -26.6,-31 -42,-48.4 -59.4,-68.2 -9.2,-6.8 -15.6,-9.2 -29,-17.8 -114.5,-81.7 -240.2,-145.5 -357,-222.8 -17.8,-11 -73,-37.2 -114.6,-55.1 -95.1,-30.8 -191.8,-59.4 -286.9,-88 -37.2,-13.4 -68.2,-22.1 -94.7,-28.9 -143.5,-15.4 -288.8,-13 -429.9,-8.7 -55.1,0 -110.3,6.8 -165.3,11.2 -4.4,1.9 -28.5,8.6 -85.9,19.8 -899.6,218.3 -1680.2,754 -2165.4,1514.5 -1356,2127.7 -1053.7,5062.5 -822.3,7578 266.8,2912.7 884.1,5794.3 1781.4,8577 428,1324.7 941.5,2716.1 1567.6,4069.8 2390.4,-4667.3 3146.4,-9948.1 2910.7,-15140.5l0 -4.4zm0 0z"/>
 </g>
</svg>
