<?xml version="1.0" encoding="UTF-8"?>
<!DOCTYPE svg PUBLIC "-//W3C//DTD SVG 1.1//EN" "http://www.w3.org/Graphics/SVG/1.1/DTD/svg11.dtd">
<!-- Creator: CorelDRAW -->
<svg xmlns="http://www.w3.org/2000/svg" xml:space="preserve" width="1080px" height="1920px" version="1.1" style="shape-rendering:geometricPrecision; text-rendering:geometricPrecision; image-rendering:optimizeQuality; fill-rule:evenodd; clip-rule:evenodd"
viewBox="0 0 84816.1 21462.8"
 xmlns:xlink="http://www.w3.org/1999/xlink"
 xmlns:xodm="http://www.corel.com/coreldraw/odm/2003">
 <defs>
  <style type="text/css">
   <![CDATA[
    .fil1 {fill:none;fill-rule:nonzero}
    .fil0 {fill:#05A3D4;fill-rule:nonzero}
   ]]>
  </style>
   <clipPath id="id0" style="clip-rule:nonzero">
    <path d="M0 0l84816.1 0 0 21462.8 -84816.1 0 0 -21462.8zm0 0z"/>
   </clipPath>
 </defs>
 <g id="Layer_x0020_1">
  <metadata id="CorelCorpID_0Corel-Layer"/>
  <g>
  </g>
  <g style="clip-path:url(#id0)">
   <g id="_815409856">
    <path class="fil0" d="M84147.8 8374.7c-423.5,-116 -988.4,144 -1074.2,609.6 -78.7,430 -340.4,910.6 -521.5,1271.9 -173.5,343.1 -469.4,825.2 -723.3,1201.5 -63.8,94.3 -130.2,187.4 -197.8,280.6 -7.3,11.6 -13.9,19.2 -18.9,25.5 -29.4,35.9 -58.7,72.6 -88.1,108.5 -158,192.4 -325.3,377.5 -498.8,555.9 -161.9,166.2 -330.3,325.4 -503.8,478.3 -86.9,78.1 -176.2,153.4 -263.9,228.4 -35.9,30.9 -234.9,187.8 -247.7,200.5 -386.3,288.3 -793.6,551 -1215.4,784.4 -208.2,116.2 -420,224.4 -634,326.4 -107.4,51.4 -215.6,100.9 -325.3,149.5 -8.9,3.9 -15.5,6.2 -21.7,8.9 -66.4,26.7 -132.8,53.7 -200.5,79.2 -480.6,186.2 -974.4,340.3 -1477,461.7 -230.7,56 -462.9,104.3 -696.7,146.4 -101.9,18.2 -202.4,34.9 -304.8,49.9 -2.2,-1.1 -220.6,25.5 -265,30.5 -5191.9,509.2 -10027.5,-1941.5 -14651.5,-3943.9 -2497.7,-1081.8 -5080.5,-2083.3 -7735.2,-2589.4 72.7,-1154.4 -52.1,-2319.3 -414.5,-3408.4 -759.2,-2274.5 -2456.9,-3900.7 -4676.5,-4746.4 -2169.7,-826.8 -4589.5,-784.7 -6842,-368.6 -5043.9,932.3 -9312,4015.4 -13279,7087 -3896.8,3016.6 -7859,6274.8 -12674.1,7679.2 -4012,1169.5 -8549,748.7 -11757.2,-2142 -734.9,-660.7 -1322.9,-1421 -1771.8,-2301.1 -278.3,-543.2 -1246,-156.9 -1003.8,423.4 783.1,1871.5 2111,3520.9 3839.6,4603.8 1748.7,1094.6 3743.8,1725.9 5792.3,1918.3 4820.6,452.9 9563.1,-1832.9 13433.2,-4481 4083,-2793.7 7724.8,-6230 12100.3,-8588.7 2028,-1093 4228.6,-1954.2 6524.4,-2259 2010.6,-266.6 4110.1,-123.6 5830.9,841.9 1655.5,928.8 2611,2625.2 2756.6,4444.3 26.7,341.8 29.4,678.3 13.9,1012.6 -1396.6,-110.9 -2811.4,-63.8 -4241.3,210.5 -3965.7,760.4 -8218.6,3616.3 -8441.9,8010.8 -49.5,974.7 160.6,2029.4 712,2847 693.9,1027 1762.6,1621.6 2986.1,1763 2568.9,298.6 4620.1,-1506.5 6251.7,-3245 1696.4,-1809 3224.5,-3785.9 4142.9,-6107.6 142.9,-360.9 265.4,-734.9 368.6,-1113.4 2201.8,440 4371.6,1256.4 6422.8,2153.1 4657.1,2035.7 9356.4,4547.4 14558.3,4663.3 2248.6,49.9 4458.1,-414.5 6464.5,-1438.7 1754,-895.6 3433.9,-2294.7 4371.6,-4055.2 235.7,-444 449,-928.5 588,-1410.7 129.9,-446.5 136.4,-959.3 214,-1377.7 85.5,-462.8 -127.4,-941.1 -609.6,-1074l5.1 -5zm-35517.5 5120.3c-586.8,912.9 -1266.5,1753.7 -1992.3,2560 -743.8,826.4 -1515.4,1697.7 -2418.7,2354.5 -807.4,588.4 -1788,1003 -2695.2,882.7 -193.9,-25.4 -473.2,-103.1 -604.6,-160.6 -117.5,-52.2 -230.7,-121 -336.5,-191.3 -9.3,-6.5 -47.6,-34.4 -70.4,-51 -68.8,-58.8 -135.2,-119.8 -197.8,-185 -5,-5 -105.9,-128.7 -126.4,-149.2 -45.5,-66.5 -90.4,-134 -131.3,-204 -16.6,-28.2 -115.9,-251.5 -122.5,-251.5 -63.7,-179.7 -107,-362 -151.8,-547.1 -7.3,-30.5 -12.8,-52.5 -17.8,-67.6 0,-17.8 -1.1,-39.8 -3.9,-70.3 -7.2,-105.9 -15,-211.7 -17.7,-318.8 -11.6,-530.8 16.6,-727 153,-1242.5 219.4,-824.1 627.8,-1539.6 1207,-2186.3 1251,-1396.8 2874.8,-2239.8 4678.7,-2706.8 1391.7,-359.8 2802.2,-445.2 4210.5,-342 -302,997.6 -774.2,1956.9 -1364.5,2876.8l2.2 0zm0 0z"/>
   </g>
  </g>
  <path class="fil1" d="M0 0l84816.1 0 0 21462.8 -84816.1 0 0 -21462.8zm0 0z"/>
 </g>
</svg>
