<svg xmlns="http://www.w3.org/2000/svg" xmlns:xlink="http://www.w3.org/1999/xlink" width="1284" zoomAndPan="magnify" viewBox="0 0 962.88 343.499995" height="458" preserveAspectRatio="xMidYMid meet" version="1.0"><defs><clipPath id="91c2f8097f"><path d="M 0.640625 0 L 951 0 L 951 331.765625 L 0.640625 331.765625 Z M 0.640625 0 " clip-rule="nonzero"/></clipPath><clipPath id="95c53f2a00"><path d="M 11.507812 10.867188 L 961.875 10.867188 L 961.875 342.636719 L 11.507812 342.636719 Z M 11.507812 10.867188 " clip-rule="nonzero"/></clipPath></defs><g clip-path="url(#91c2f8097f)"><path fill="#ececec" d="M 3.976562 217.757812 C 11.519531 211.589844 18.703125 205.425781 27.757812 201.546875 C 36.351562 197.855469 45.191406 195.164062 54.433594 193.679688 C 73.789062 190.597656 93.25 191.503906 112.398438 195.683594 C 153.5625 204.675781 189.640625 227.316406 228.378906 242.789062 C 246.996094 250.222656 266.628906 256.527344 286.75 257.824219 C 305.164062 259.011719 320.777344 256.476562 338.238281 249.644531 C 340.585938 248.71875 344.730469 246.792969 348.046875 245.089844 C 352.023438 243.039062 355.886719 240.820312 359.640625 238.410156 C 367.070312 233.667969 372.484375 229.488281 378.976562 223.5 C 385.566406 217.429688 391.289062 211.21875 396.4375 204.554688 C 387.363281 188.6875 380.617188 171.273438 375.332031 154.566406 C 368.808594 133.960938 364.660156 112.667969 362.613281 91.15625 C 360.6875 70.867188 359.9375 49.417969 368.339844 30.390625 C 376.050781 12.933594 394.5 -1.339844 414.273438 0.101562 C 433.988281 1.539062 446.738281 16.765625 452.417969 34.570312 C 457.921875 51.886719 458.097656 71.507812 457.6875 89.515625 C 457.234375 109.585938 454.605469 129.753906 449.535156 149.183594 C 444.453125 168.710938 436.597656 187.609375 426.023438 204.753906 C 435.941406 218.460938 448.523438 229.585938 464.820312 234.71875 C 480.449219 239.628906 495.34375 237.53125 508.347656 228.988281 C 513.261719 225.765625 518.9375 220.371094 523.679688 214.691406 C 527.683594 209.886719 532.488281 202.285156 536.070312 195.589844 C 543.785156 181.207031 548.523438 166.457031 553.90625 150.402344 C 559.503906 133.742188 565.40625 116.890625 574.148438 101.59375 C 583.050781 86.007812 595.335938 72.070312 611.074219 63.167969 C 627.15625 54.078125 645.929688 50.464844 664.296875 51.417969 C 691.597656 52.828125 717.523438 62.367188 741.269531 75.652344 C 744.558594 67.796875 748.65625 60.320312 753.695312 53.46875 C 764.035156 39.433594 777.351562 28.609375 793.542969 22.003906 C 810.546875 15.074219 829.292969 14.136719 847.265625 17.09375 C 883.847656 23.101562 914.839844 48.070312 933.050781 79.71875 C 937.554688 87.558594 941.3125 95.769531 944.613281 104.191406 C 947.820312 112.355469 949.429688 121.132812 950.886719 129.769531 C 951.761719 135.027344 943.925781 139.59375 941.421875 133.757812 C 937.886719 125.527344 933.644531 117.691406 929.71875 109.664062 C 925.746094 101.5625 921.191406 93.691406 916.042969 86.273438 C 906.546875 72.539062 894.90625 59.773438 880.765625 50.699219 C 852.929688 32.84375 815.070312 28.839844 787.140625 48.632812 C 774.003906 57.941406 765.160156 71.742188 759.65625 86.933594 C 762.078125 88.542969 764.507812 90.1875 766.882812 91.859375 C 797.296875 113.265625 823.894531 139.21875 846.4375 168.773438 C 857.449219 183.214844 867.339844 198.53125 875.929688 214.535156 C 884.269531 230.085938 892.484375 246.652344 897.160156 263.738281 C 901.585938 279.851562 903.199219 299.488281 893.496094 314.113281 C 882.578125 330.605469 862.613281 335.519531 844.261719 329.871094 C 825.847656 324.191406 811.019531 311.378906 798.15625 297.515625 C 785.140625 283.46875 773.59375 267.902344 763.972656 251.332031 C 745.496094 219.480469 733.136719 183.058594 730.757812 146.179688 C 729.742188 130.410156 730.664062 113.828125 734.234375 97.917969 C 721.371094 90.421875 707.902344 84.117188 693.585938 79.859375 C 677.832031 75.167969 660.386719 72.601562 644.867188 75.433594 C 628.519531 78.421875 615.25 86.023438 604.441406 98.492188 C 594.585938 109.867188 587.527344 125.589844 582.253906 139.921875 C 570.394531 172.167969 562.402344 205.757812 539.730469 232.648438 C 529.21875 245.105469 515.246094 255.117188 499.382812 259.371094 C 480.058594 264.535156 459.722656 260.796875 442.214844 251.644531 C 429.902344 245.214844 419.640625 236.21875 410.941406 225.753906 C 405.230469 232.574219 398.988281 238.972656 392.183594 244.839844 C 364.300781 268.839844 328.929688 283.980469 291.757812 283.046875 C 248.578125 281.949219 209.382812 262.21875 171.085938 244.324219 C 136.382812 228.097656 101.011719 213.738281 62.804688 217.898438 C 56.625 218.570312 47.285156 220.808594 40.058594 223.5 C 36.191406 224.9375 33.875 225.90625 29.808594 227.925781 C 26.554688 229.539062 22.453125 231.429688 19.75 233.652344 C 15.070312 237.484375 8.484375 238.238281 3.902344 233.652344 C -0.0585938 229.695312 -0.808594 221.667969 3.902344 217.804688 Z M 774.203125 222.480469 C 781.902344 238.441406 791.242188 253.820312 802.335938 267.648438 C 813.191406 281.183594 825.347656 295.105469 840.679688 303.585938 C 847.472656 307.339844 854.636719 309.84375 861.769531 309.3125 C 863.632812 309.171875 866.824219 308.140625 868.828125 306.949219 C 871.484375 305.355469 873.269531 303.367188 874.648438 301.003906 C 874.976562 300.445312 875.289062 299.847656 875.585938 299.253906 C 875.710938 298.953125 875.914062 298.503906 875.945312 298.394531 C 876.570312 296.59375 877.039062 294.746094 877.386719 292.882812 C 877.320312 292.980469 877.667969 290.070312 877.699219 289.460938 C 877.789062 287.332031 877.746094 285.1875 877.605469 283.058594 C 877.355469 279.304688 876.960938 277.226562 875.976562 273.046875 C 875.007812 268.980469 873.785156 264.972656 872.363281 261.03125 C 860.738281 228.988281 842.121094 198.371094 820.5 172.074219 C 801.207031 148.605469 778.773438 127.75 753.816406 110.433594 C 753.101562 115.171875 752.597656 119.898438 752.363281 124.542969 C 750.644531 158.148438 759.40625 191.800781 774.222656 222.511719 Z M 432.484375 72.632812 C 432.265625 67.8125 431.9375 62.996094 431.46875 58.207031 C 431.386719 57.363281 431.296875 56.535156 431.199219 55.703125 C 431.167969 55.484375 431.15625 55.296875 431.136719 55.125 C 431.125 55.03125 431.089844 54.875 431.046875 54.609375 C 430.699219 52.46875 430.324219 50.339844 429.839844 48.226562 C 429.152344 45.160156 427.773438 40.496094 426.945312 38.417969 C 426.945312 38.464844 425.757812 35.976562 425.882812 36.195312 C 425.507812 35.460938 425.117188 34.742188 424.691406 34.035156 C 424.285156 33.332031 423.816406 32.675781 423.394531 31.972656 C 423.207031 31.660156 423.082031 31.453125 423.003906 31.296875 C 422.863281 31.1875 422.691406 31.03125 422.441406 30.78125 C 421.894531 30.25 421.296875 29.652344 420.78125 29.09375 C 420.59375 28.871094 420.484375 28.75 420.359375 28.609375 C 420.296875 28.558594 420.25 28.542969 420.15625 28.480469 C 419.34375 27.902344 418.449219 27.449219 417.621094 26.902344 C 417.496094 26.824219 417.105469 26.636719 416.808594 26.511719 C 416.132812 26.292969 415.449219 26.089844 414.773438 25.886719 C 414.507812 25.789062 414.289062 25.730469 414.101562 25.679688 C 413.082031 25.570312 412.050781 25.589844 411.050781 25.617188 C 410.660156 25.617188 410.265625 25.667969 409.878906 25.699219 C 409.847656 25.710938 409.675781 25.757812 409.269531 25.839844 C 402.882812 27.386719 397.34375 31.1875 393.902344 36.585938 C 384.28125 51.683594 386.425781 72.507812 388.066406 90.359375 C 389.960938 111.027344 394.339844 131.472656 400.707031 151.21875 C 403.746094 160.617188 407.386719 170.492188 411.832031 180.097656 C 428.792969 146.980469 434.15625 109.507812 432.484375 72.664062 Z M 432.484375 72.632812 Z M 432.484375 72.632812 " fill-opacity="1" fill-rule="nonzero"/></g><g clip-path="url(#95c53f2a00)"><path fill="#05a3d4" d="M 14.847656 228.394531 C 22.386719 222.238281 29.570312 216.078125 38.628906 212.203125 C 47.21875 208.515625 56.0625 205.828125 65.304688 204.34375 C 84.660156 201.265625 104.125 202.167969 123.273438 206.34375 C 164.4375 215.328125 200.519531 237.945312 239.257812 253.402344 C 257.875 260.828125 277.511719 267.125 297.632812 268.421875 C 316.046875 269.605469 331.664062 267.074219 349.125 260.246094 C 351.472656 259.324219 355.617188 257.402344 358.933594 255.699219 C 362.90625 253.652344 366.773438 251.433594 370.527344 249.027344 C 377.957031 244.289062 383.371094 240.117188 389.863281 234.132812 C 396.453125 228.066406 402.179688 221.863281 407.328125 215.207031 C 398.25 199.359375 391.507812 181.960938 386.21875 165.269531 C 379.695312 144.6875 375.546875 123.417969 373.5 101.929688 C 371.574219 81.660156 370.824219 60.234375 379.226562 41.226562 C 386.941406 23.789062 405.386719 9.53125 425.160156 10.96875 C 444.878906 12.40625 457.628906 27.613281 463.308594 45.402344 C 468.8125 62.703125 468.988281 82.300781 468.582031 100.289062 C 468.125 120.339844 465.496094 140.484375 460.425781 159.894531 C 455.34375 179.398438 447.488281 198.28125 436.914062 215.40625 C 446.832031 229.097656 459.414062 240.210938 475.714844 245.335938 C 491.34375 250.246094 506.238281 248.148438 519.242188 239.617188 C 524.152344 236.398438 529.832031 231.007812 534.574219 225.332031 C 538.582031 220.535156 543.382812 212.9375 546.964844 206.25 C 554.679688 191.886719 559.421875 177.148438 564.804688 161.113281 C 570.402344 144.472656 576.300781 127.636719 585.046875 112.355469 C 593.949219 96.785156 606.234375 82.863281 621.972656 73.96875 C 638.058594 64.890625 656.832031 61.277344 675.199219 62.234375 C 702.5 63.640625 728.425781 73.171875 752.175781 86.441406 C 755.464844 78.597656 759.5625 71.125 764.601562 64.28125 C 774.945312 50.261719 788.257812 39.445312 804.449219 32.851562 C 821.457031 25.925781 840.199219 24.988281 858.175781 27.945312 C 894.761719 33.945312 925.753906 58.886719 943.964844 90.503906 C 948.46875 98.332031 952.226562 106.539062 955.527344 114.949219 C 958.734375 123.105469 960.34375 131.871094 961.800781 140.503906 C 962.675781 145.75 954.839844 150.316406 952.335938 144.484375 C 948.800781 136.265625 944.558594 128.433594 940.632812 120.417969 C 936.660156 112.324219 932.105469 104.460938 926.957031 97.050781 C 917.460938 83.332031 905.820312 70.578125 891.675781 61.515625 C 863.839844 43.679688 825.980469 39.679688 798.050781 59.449219 C 784.910156 68.75 776.066406 82.535156 770.5625 97.710938 C 772.984375 99.320312 775.414062 100.960938 777.789062 102.632812 C 808.203125 124.015625 834.804688 149.941406 857.347656 179.460938 C 868.363281 193.886719 878.253906 209.1875 886.839844 225.175781 C 895.179688 240.710938 903.394531 257.261719 908.070312 274.328125 C 912.5 290.425781 914.113281 310.039062 904.410156 324.652344 C 893.492188 341.125 873.523438 346.035156 855.171875 340.390625 C 836.757812 334.714844 821.925781 321.917969 809.066406 308.070312 C 796.046875 294.035156 784.5 278.484375 774.878906 261.9375 C 756.402344 230.117188 744.039062 193.730469 741.664062 156.894531 C 740.648438 141.140625 741.570312 124.574219 745.136719 108.683594 C 732.273438 101.195312 718.804688 94.894531 704.488281 90.644531 C 688.734375 85.957031 671.289062 83.394531 655.769531 86.222656 C 639.417969 89.207031 626.148438 96.804688 615.339844 109.257812 C 605.480469 120.621094 598.425781 136.328125 593.152344 150.644531 C 581.292969 182.855469 573.296875 216.40625 550.628906 243.273438 C 540.113281 255.714844 526.140625 265.714844 510.277344 269.964844 C 490.953125 275.125 470.613281 271.390625 453.105469 262.246094 C 440.792969 255.824219 430.53125 246.839844 421.828125 236.382812 C 416.117188 243.199219 409.875 249.585938 403.070312 255.449219 C 375.1875 279.425781 339.816406 294.550781 302.640625 293.617188 C 259.457031 292.519531 220.261719 272.8125 181.960938 254.933594 C 147.257812 238.726562 111.882812 224.378906 73.679688 228.535156 C 67.496094 229.207031 58.15625 231.445312 50.929688 234.132812 C 47.0625 235.566406 44.746094 236.539062 40.679688 238.554688 C 37.425781 240.164062 33.324219 242.054688 30.621094 244.273438 C 25.941406 248.105469 19.355469 248.855469 14.769531 244.273438 C 10.8125 240.320312 10.0625 232.304688 14.769531 228.441406 Z M 785.113281 233.113281 C 792.8125 249.058594 802.148438 264.417969 813.242188 278.234375 C 824.101562 291.753906 836.257812 305.664062 851.589844 314.136719 C 858.382812 317.882812 865.546875 320.386719 872.683594 319.855469 C 874.542969 319.714844 877.734375 318.683594 879.738281 317.496094 C 882.398438 315.902344 884.179688 313.914062 885.558594 311.554688 C 885.886719 310.996094 886.199219 310.398438 886.5 309.804688 C 886.621094 309.507812 886.828125 309.054688 886.859375 308.945312 C 887.484375 307.148438 887.953125 305.304688 888.296875 303.445312 C 888.234375 303.539062 888.578125 300.632812 888.609375 300.023438 C 888.703125 297.894531 888.65625 295.757812 888.515625 293.628906 C 888.265625 289.878906 887.875 287.800781 886.890625 283.625 C 885.917969 279.5625 884.699219 275.5625 883.277344 271.625 C 871.652344 239.617188 853.03125 209.03125 831.410156 182.761719 C 812.117188 159.316406 789.679688 138.484375 764.722656 121.183594 C 764.007812 125.917969 763.503906 130.640625 763.269531 135.28125 C 761.550781 168.847656 770.3125 202.46875 785.128906 233.144531 Z M 443.375 83.425781 C 443.15625 78.613281 442.828125 73.796875 442.359375 69.015625 C 442.277344 68.171875 442.1875 67.34375 442.089844 66.515625 C 442.058594 66.292969 442.046875 66.109375 442.027344 65.933594 C 442.015625 65.84375 441.980469 65.6875 441.933594 65.421875 C 441.589844 63.28125 441.214844 61.15625 440.730469 59.042969 C 440.042969 55.980469 438.664062 51.324219 437.835938 49.246094 C 437.835938 49.292969 436.644531 46.804688 436.773438 47.023438 C 436.394531 46.292969 436.003906 45.574219 435.582031 44.867188 C 435.175781 44.164062 434.707031 43.507812 434.285156 42.808594 C 434.09375 42.496094 433.972656 42.289062 433.894531 42.132812 C 433.753906 42.023438 433.582031 41.867188 433.332031 41.617188 C 432.78125 41.085938 432.1875 40.492188 431.671875 39.929688 C 431.484375 39.710938 431.375 39.585938 431.25 39.445312 C 431.183594 39.398438 431.140625 39.382812 431.042969 39.320312 C 430.230469 38.742188 429.339844 38.289062 428.511719 37.742188 C 428.382812 37.664062 427.992188 37.476562 427.699219 37.351562 C 427.023438 37.132812 426.335938 36.929688 425.660156 36.726562 C 425.398438 36.632812 425.179688 36.570312 424.988281 36.523438 C 423.972656 36.414062 422.941406 36.429688 421.9375 36.460938 C 421.546875 36.460938 421.15625 36.507812 420.765625 36.539062 C 420.734375 36.554688 420.5625 36.601562 420.15625 36.679688 C 413.773438 38.226562 408.234375 42.023438 404.789062 47.414062 C 395.167969 62.496094 397.3125 83.300781 398.957031 101.132812 C 400.847656 121.777344 405.230469 142.203125 411.597656 161.929688 C 414.632812 171.316406 418.277344 181.179688 422.71875 190.777344 C 439.683594 157.691406 445.046875 120.261719 443.375 83.453125 Z M 443.375 83.425781 Z M 443.375 83.425781 " fill-opacity="1" fill-rule="nonzero"/></g></svg>