<?xml version="1.0" encoding="UTF-8"?>
<!DOCTYPE svg PUBLIC "-//W3C//DTD SVG 1.1//EN" "http://www.w3.org/Graphics/SVG/1.1/DTD/svg11.dtd">
<!-- Creator: CorelDRAW -->
<svg xmlns="http://www.w3.org/2000/svg" xml:space="preserve" width="1080px" height="1920px" version="1.1" style="shape-rendering:geometricPrecision; text-rendering:geometricPrecision; image-rendering:optimizeQuality; fill-rule:evenodd; clip-rule:evenodd"
viewBox="0 0 66760.7 54806.8"
 xmlns:xlink="http://www.w3.org/1999/xlink"
 xmlns:xodm="http://www.corel.com/coreldraw/odm/2003">
 <defs>
  <style type="text/css">
   <![CDATA[
    .fil1 {fill:none;fill-rule:nonzero}
    .fil0 {fill:#05A3D4;fill-rule:nonzero}
   ]]>
  </style>
   <clipPath id="id0" style="clip-rule:nonzero">
    <path d="M0 0l66760.7 0 0 54806.8 -66760.7 0 0 -54806.8zm0 0z"/>
   </clipPath>
 </defs>
 <g id="Layer_x0020_1">
  <metadata id="CorelCorpID_0Corel-Layer"/>
  <g>
  </g>
  <g style="clip-path:url(#id0)">
   <g id="_691569240">
    <path class="fil0" d="M20665.2 42729.7l173 -2352c20.8,-313.1 -251.9,-478.6 -576.7,-351.6 -155.5,61.5 -315.2,117.3 -468.7,191.9 -307.4,138.6 -609.3,292.4 -918.6,422.9 -1494,654.9 -3031.5,1183.9 -4612,1587.5 -1097.2,266.9 -2219.4,328.5 -3324.4,520.8 -56.5,5.5 -112.7,5.5 -169.2,0 -1583.4,-30.9 -3132.2,-242.3 -4600.4,-878.2 -2336.5,-1010.8 -3929.8,-2769.3 -4951.8,-5052.2 -324.5,-719 -580.4,-1461.4 -767.9,-2227.6 -187.8,-766.2 -304,-1542.9 -348.9,-2330.3 -103,-1573.5 -79.4,-3144.5 71.4,-4714.1 171.9,-1509.3 469.7,-2993.3 893.5,-4452.3 1344.9,-4804.2 3535.9,-9224 6414.3,-13288 1537.5,-2158.1 3165.1,-4227.7 5079.1,-6064.8 810.7,-768.7 1683.3,-1489.2 2557.5,-2192.7 617.1,-499.5 1292.5,-901.8 2025.3,-1206.7 310.1,-135.7 632.8,-222.7 969,-260.4 336.1,-38.1 670.6,-25.7 1003,37.7 40.7,8.5 81.1,19.2 120.9,31.8 39.7,12.7 78.8,27.8 117.2,44.5 38.3,16.8 75.7,35.6 112,56.6 35.9,20.5 71.3,43.2 105.2,67.9 33.9,24.2 66.5,50.3 97.7,78 31.2,28.2 60.9,57.6 89,88.4 28.1,30.8 54.5,63.4 79.2,97 25,33.9 47.6,68.6 68.8,104.9 21.3,36 40.1,73.3 57.6,111.4 17.2,37.9 32.2,77.1 45.3,116.7 13.3,39.8 24.2,79.9 33.2,121 8.9,40.8 15.8,81.9 20.2,123.4 4.5,41.7 7.2,83.2 7.2,125.4 0.4,41.8 -1.7,83.2 -5.9,125.1 -4,41.4 -10.3,82.8 -18.8,123.6 -8.6,41.1 -18.8,81.6 -31.5,121.4 -65.5,216.1 -162,417.3 -290.3,603.3 -353.5,434.5 -735.9,845.7 -1122.5,1251 -93.5,61.1 -195.9,86.8 -307.3,77.1 -128.8,0 -176.8,-192.3 -90,-422.8 97.9,-261.4 261,-511.3 191.7,-803.5 -17,-76.7 -163,-191.9 -224.6,-180.6 -218.7,39.7 -423,117.2 -613,232.7 -1110.5,772.7 -2121.3,1659 -3032.4,2659.5 -1162.3,1261 -2254,2580.5 -3275.1,3958.3 -1021,1377.8 -1965.6,2805.9 -2834,4284.8 -868.2,1478.8 -1655.3,2999.8 -2360.8,4562.9 -705.5,1562.8 -1326,3159.2 -1860.9,4788.4 -736.7,2251.2 -1202.9,4557.2 -1399,6918 -168.9,1921.6 144.3,3808.5 734.2,5643.7 252.6,754.9 608,1457.7 1066.4,2108.4 1143.5,1663.9 2730.9,2578.7 4694.6,2999.4 1537.4,326.9 3030.7,142.2 4512.2,-153.8 2497.9,-499.6 4819.3,-1489.1 7071.5,-2655.5 126.1,-61.6 244.3,-136 354.7,-222.1 110.6,-86.2 211,-183.3 301.4,-290.1 90.6,-107.3 169,-222.7 235.5,-346.1 66.8,-123.3 119.9,-252.6 159.7,-386.8 136.3,-428.7 293.9,-851.6 461.2,-1266.4 1512.4,-3753.1 3651.1,-7075.6 6669.9,-9809.9 1036.4,-963.2 2189.4,-1757.8 3458.9,-2383.1 381.4,-185.4 781,-312.9 1199.3,-383.5 418.1,-70.3 837.4,-80.2 1258.5,-29.4 155,12 305.3,44.5 451.3,97.7 145.9,53.1 282.4,124.3 408.8,214.3 126.7,90.2 238.8,195.4 336.7,316 98.1,120.3 178.2,251.9 240.6,394.1 114.8,227.1 188.5,467.3 221.4,719.5 33.2,252.6 23.2,503.3 -29.1,752.5 -122.8,550.3 -298.9,1082.7 -528.4,1597.4 -229.6,514.6 -508.5,1001.2 -836.1,1459.9 -704.7,1019.2 -1487.1,1974.8 -2346.4,2867 -2310.1,2399.5 -4862.4,4505 -7657.8,6316.6 -1164.3,768.5 -1345.1,697.7 -1729.2,2498.3 -315.3,1487 -588,2972.8 -545.8,4502.3 33.5,1187.3 239.1,2343.9 616.6,3470.2 73.1,235.1 158.7,465.4 256.7,691.2 98.3,225.4 208.3,445.1 330.7,658.5 122,213.8 255.5,420.1 400.2,619.2 144.6,198.7 299.8,389.3 465.2,571.5 165.6,181.9 340.3,354.4 524.6,517.4 184.4,163.1 377.3,315.2 578.1,457.1 201.1,142.1 409.5,272.4 624.6,391.6 215.3,119.2 436.3,226.2 663.4,321.1 613.7,284.1 1249.3,504.3 1906.8,662 657.5,157.6 1324.3,248.7 1999.7,274.1 1403.1,26.8 2811.4,50 4210.3,-36.6 1063.7,-90.2 2117.2,-246.5 3161.3,-468.8 3431.9,-649.7 6739.2,-1729.6 9980.8,-3009.4 2246.4,-887.8 4448.7,-1873.7 6639.5,-2882.4 2240.5,-1039.5 4502.3,-2037 6750.8,-3061.1 141.5,-83.6 265.8,-188.1 372.7,-313.2 28.8,-29.1 21,-107.6 0,-157.6 -21.2,-50.1 -53.8,-111.7 -90.4,-117.2 -271.4,-57.6 -545.5,-96 -822.3,-115.4 -1345.3,-48 -2690.5,-92.3 -4035.8,-115.2 -680.4,-21.6 -1336.3,-160 -1967.7,-415.3 -306.7,-136.7 -585,-318.3 -834,-543.8 -117.2,-123 -193,-267.5 -226.5,-434.1 -117.2,-407.4 180.6,-862.7 576.4,-847.7 617.4,2.1 1231.1,51.4 1841,148 832.6,130.5 1670,219 2511.5,265.2 1960,169.3 3922,267.3 5888,309.4 111.4,0 224.8,19.2 336.2,32.6 76.1,12.7 150.3,31.6 223,56.9 73,25.3 142.8,56.5 210.4,93.9 67.5,37.3 131.2,80.1 191.1,128.1 60,48.3 115.6,101.4 166.6,159.3 50.8,57.5 96.7,119.6 136.7,185 40.5,65.9 74.8,134.4 103.5,206 28.4,71.6 50.7,144.9 66.5,220.3 16.1,75.3 25.3,151.5 28.5,228.5 8.5,393.4 -46.7,777.8 -165.6,1153 -327.2,958.5 -738.8,1879.8 -1233.5,2763.5 -699.6,1344.8 -1399,2690.1 -2079.1,4047 -526.7,1054.9 -1043.7,2113.7 -1237.7,3297.2 -13.7,55.5 -35.2,107.3 -65.5,155.5 -29.7,48.3 -66.8,90.8 -110.2,127.5 -43.6,36.6 -91.6,65.5 -144.3,86.6 -52.8,21.3 -107.6,34.1 -164.1,37.7 -55.6,11.8 -111.4,16.2 -167.9,13.5 -56.5,-2.8 -111.7,-12.7 -165.6,-29.5 -54.1,-16.8 -105.1,-40.1 -153.1,-69.9 -47.9,-29.8 -91.5,-65.1 -130.5,-105.9 -61.7,-58.5 -115.6,-123.8 -161.1,-195.6 -45.5,-71.9 -81.5,-148.4 -108.3,-229.3 -26.3,-80.8 -42.4,-163.8 -48.3,-248.4 -5.8,-85 -1,-169.3 14.1,-253.2 128.1,-661.7 296,-1313 503.6,-1954.1 384.2,-1112.6 824.1,-2207.9 1251.1,-3307.2 384.1,-993.7 787.7,-1983.2 1179.6,-2974.8 73.1,-192.2 32.6,-449.6 -69.1,-459.2 -160.1,-14.4 -318.7,-6.8 -476.7,23 -108.3,30.4 -210.7,74.7 -307.4,132.6 -151.7,73 -303.4,148 -451.5,226.8 -1683.4,901.1 -3372.6,1791 -5046.2,2713.5 -1136.4,615.6 -2303.1,1168.4 -3499.3,1658.4 -3314.7,1387.3 -6641.2,2745.9 -10058,3870 -2291.6,772.4 -4631.5,1348.7 -7019.8,1729.4 -1786.1,250.1 -3579.8,321.7 -5380.4,215.2 -1128.1,-27.4 -2235.4,-191.9 -3322.7,-493.8 -1300.7,-384.4 -2534.6,-920.3 -3600.8,-1783.2 -331,-262.1 -641.9,-545.7 -933,-851.3 -291,-305.7 -559.2,-630.2 -805,-973.5 -245.2,-343.4 -465.9,-701.8 -661.3,-1075.9 -195.3,-374.2 -363.4,-760 -504.6,-1157.8 -442.8,-1165.7 -682.2,-2372.1 -718.6,-3618.3 0,-674.7 0,-1345.2 0,-2023.6l-34.5 -11.7zm13962.6 -18034.4c-86.6,-61.7 -182.6,-192.3 -257.6,-175.1 -276.2,23.7 -542.7,87.7 -799.3,192.2 -1001.3,521.2 -1902.4,1179.1 -2703.9,1973.7 -1051.5,1014.2 -2011.3,2108.6 -2879.5,3283.5 -868.4,1175 -1632.7,2414 -2293.4,3717 -55.8,98.1 -91.2,203.2 -105.8,315.3 -13.4,108.9 13.3,206.9 80.8,293.9 43.5,29.9 91.5,47.7 143.9,53.5 52.4,5.9 103.1,-1.4 152.2,-20.9 557.1,-372.8 1116.2,-743.6 1648.4,-1153 1797.6,-1348.6 3430.9,-2873.1 4900.5,-4573.6 553.7,-632.2 1049.5,-1307.6 1487,-2025.4 311.5,-470.8 521.6,-983.4 630.5,-1537.1 10.3,-114.8 8.9,-229.6 -3.8,-344zm0 0z"/>
   </g>
  </g>
  <path class="fil1" d="M0 0l66760.7 0 0 54806.8 -66760.7 0 0 -54806.8zm0 0z"/>
 </g>
</svg>
