<?xml version="1.0" encoding="UTF-8"?>
<!DOCTYPE svg PUBLIC "-//W3C//DTD SVG 1.1//EN" "http://www.w3.org/Graphics/SVG/1.1/DTD/svg11.dtd">
<!-- Creator: CorelDRAW -->
<svg xmlns="http://www.w3.org/2000/svg" xml:space="preserve" width="1080px" height="1920px" version="1.1" style="shape-rendering:geometricPrecision; text-rendering:geometricPrecision; image-rendering:optimizeQuality; fill-rule:evenodd; clip-rule:evenodd"
viewBox="0 0 29099.5 11142"
 xmlns:xlink="http://www.w3.org/1999/xlink"
 xmlns:xodm="http://www.corel.com/coreldraw/odm/2003">
 <defs>
  <style type="text/css">
   <![CDATA[
    .fil1 {fill:none;fill-rule:nonzero}
    .fil0 {fill:#05A3D4}
   ]]>
  </style>
   <clipPath id="id0" style="clip-rule:nonzero">
    <path d="M0 0l29099.5 0 0 11142 -29099.5 0 0 -11142zm0 0z"/>
   </clipPath>
 </defs>
 <g id="Layer_x0020_1">
  <metadata id="CorelCorpID_0Corel-Layer"/>
  <g>
  </g>
  <g style="clip-path:url(#id0)">
   <g id="_865486448">
    <path class="fil0" d="M26798.1 4869.4c-140.2,5.3 -347.2,3.9 -721.6,26.2 -4683.3,282.3 -5744.1,2638.9 -8770.4,4692.5 -405.8,275.7 -984.4,603.8 -1447.4,813.4 -261.4,118.3 -2722.9,1324.6 -4966.6,309.6 -1192.5,-538.8 -1985,-1570.8 -2193.1,-2868.1 -1661.2,-346.1 -3576.6,-1100.9 -5889.7,-1768.4 -1582,-455.5 -2584.2,-649.5 -2592.2,-656 -58.5,-37.8 -136.3,-57.3 -175.6,-115.7 -1.4,-1.4 -42.2,-209.5 -42.2,-209.5 39.3,-58.7 59.8,-135.4 116.9,-173.2 58.7,-40.3 136.2,-41.6 207.1,-44.3 36.8,-1.2 712,135.3 773.3,147.1 3174.8,644.2 5611.8,1577.3 7550.6,1950.6 35.3,-931.6 344.5,-1958.3 985.7,-3013.7 1855.6,-3056.9 4654.8,-1655.4 4821,568.5 107.4,1431.5 -936.8,2254.1 -1102.9,2398.5 -954.4,823.7 -1964.5,1124.2 -3090.5,1107.4 110.3,256.3 268.2,497 483.3,709.2 953,946 3006.1,1077.5 5425.4,-661 1258,-905.8 1496.2,-1209 2724.3,-2253.9 1696.3,-1444.6 3690.9,-2829.1 7659.5,-2955.3 -111.7,-80.7 -239.6,-169.3 -381.3,-266.8l-1.2 0c-1338.3,-925.2 -2900,-1810.1 -3552.1,-2144.7 -83,-41.7 -95.2,-32.5 -134.8,-117.1 -1.4,-1.2 -4.1,-187.3 -4.1,-188.7 39.4,-40.3 68.2,-96.3 119.8,-119.7 55.9,-25.9 122.6,-19.5 183.8,-18.2 24.5,0 2998,728.7 4925.8,1877.8 183.8,110.6 667,422.9 947.6,732.6 619.4,682 375.6,1223.3 255.9,1551.2 -187.8,516.6 -570.5,1042.5 -630.4,1125.6 -330.8,455.6 -661.7,816 -724.2,883.8 -509.2,554.2 -777.4,813.3 -1290.7,1316.9 -20.4,19.4 -713.5,675.4 -1026.5,973.3 -54.5,52 -668.6,636.4 -683.4,641.6 -84.6,32.6 -182.5,14.4 -265.6,46.9 13.7,-88.5 -24.5,-181 -10.8,-269.4 2.7,-18.2 875.4,-1439.3 1377.7,-2216.2 567.7,-882.3 910.8,-1426.2 1139.6,-1812.8zm-16739.1 2267c894.6,14.2 1669.2,-187.4 2358.1,-730.1 522.6,-412.4 1023.7,-942.2 965.2,-1722.9 -80.3,-1073.7 -1320.6,-2145.9 -2503.7,-333.2 -463,709.2 -876.8,1785.5 -819.6,2786.2zm0 0z"/>
   </g>
  </g>
  <path class="fil1" d="M0 0l29099.5 0 0 11142 -29099.5 0 0 -11142zm0 0z"/>
 </g>
</svg>
