<svg xmlns="http://www.w3.org/2000/svg" xmlns:xlink="http://www.w3.org/1999/xlink" width="1008" zoomAndPan="magnify" viewBox="0 0 756 755.999995" height="1008" preserveAspectRatio="xMidYMid meet" version="1.0"><defs><clipPath id="a7876dd554"><path d="M 108 92 L 687 92 L 687 624 L 108 624 Z M 108 92 " clip-rule="nonzero"/></clipPath><clipPath id="242442510f"><path d="M 205.652344 0 L 742.875 537.226562 L 537.109375 742.992188 L -0.117188 205.769531 Z M 205.652344 0 " clip-rule="nonzero"/></clipPath><clipPath id="bc3c5dba5a"><path d="M 205.652344 0 L 742.875 537.226562 L 537.109375 742.992188 L -0.117188 205.769531 Z M 205.652344 0 " clip-rule="nonzero"/></clipPath><clipPath id="b286fec476"><path d="M 205.65625 0.00390625 L 742.757812 537.105469 L 537.105469 742.757812 L 0.00390625 205.65625 Z M 205.65625 0.00390625 " clip-rule="nonzero"/></clipPath><clipPath id="50068f5187"><path d="M 121 105 L 700 105 L 700 637 L 121 637 Z M 121 105 " clip-rule="nonzero"/></clipPath><clipPath id="0b955f4810"><path d="M 218.671875 13.019531 L 755.894531 550.246094 L 550.128906 756.011719 L 12.902344 218.789062 Z M 218.671875 13.019531 " clip-rule="nonzero"/></clipPath><clipPath id="0171d9c0ad"><path d="M 218.671875 13.019531 L 755.894531 550.246094 L 550.128906 756.011719 L 12.902344 218.789062 Z M 218.671875 13.019531 " clip-rule="nonzero"/></clipPath><clipPath id="6319e4cbc0"><path d="M 218.675781 13.023438 L 755.773438 550.125 L 550.125 755.777344 L 13.023438 218.675781 Z M 218.675781 13.023438 " clip-rule="nonzero"/></clipPath></defs><g clip-path="url(#a7876dd554)"><g clip-path="url(#242442510f)"><g clip-path="url(#bc3c5dba5a)"><g clip-path="url(#b286fec476)"><path fill="#003346" d="M 610.402344 584.503906 C 607.714844 582.015625 603.921875 578.167969 596.597656 571.667969 C 504.949219 490.4375 441.871094 514.355469 348.109375 496.402344 C 335.53125 494 318.796875 489.375 306.382812 484.699219 C 299.375 482.058594 231.675781 458.890625 208.996094 398.742188 C 196.929688 366.789062 201.351562 333.113281 221.457031 305.328125 C 197.183594 268.277344 175.761719 218.992188 145.386719 163.980469 C 124.59375 126.371094 109.675781 104.292969 109.648438 104.027344 C 109.269531 102.25 108.191406 100.453125 108.542969 98.648438 C 108.542969 98.597656 111.632812 94.003906 111.632812 94.003906 C 113.441406 93.644531 115.234375 92.609375 116.988281 92.964844 C 118.8125 93.304688 120.269531 94.710938 121.625 95.96875 C 122.328125 96.625 132.269531 111.609375 133.183594 112.957031 C 179.894531 183.445312 207.652344 245.648438 236.546875 288.324219 C 254.390625 271.78125 279.050781 258.539062 310.363281 250.894531 C 401.035156 228.71875 426.835938 306.253906 388.855469 350.367188 C 364.414062 378.773438 329.957031 374.683594 324.226562 374.28125 C 291.410156 371.871094 267.21875 358.773438 246.746094 337.679688 C 244.050781 344.445312 242.523438 351.804688 242.574219 359.691406 C 242.707031 394.742188 278.171875 435.0625 354.914062 447.628906 C 394.851562 454.128906 404.847656 452.929688 446.800781 456.308594 C 504.773438 460.957031 567.140625 472.21875 642.722656 543.136719 C 642.148438 539.585938 641.421875 535.589844 640.609375 531.175781 L 640.585938 531.152344 C 632.960938 489.375 620.46875 444.21875 614.609375 426.003906 C 613.847656 423.703125 613.449219 423.648438 614.28125 421.355469 C 614.277344 421.308594 617.664062 417.824219 617.6875 417.796875 C 619.160156 417.78125 620.726562 417.277344 622.109375 417.800781 C 623.621094 418.351562 624.730469 419.703125 625.839844 420.855469 C 626.289062 421.308594 667.722656 489.640625 682.097656 546.433594 C 683.445312 551.867188 686.601562 566.550781 686.0625 577.445312 C 684.910156 601.464844 670.417969 606.957031 662.15625 610.796875 C 649.15625 616.867188 632.382812 619.511719 629.746094 619.9375 C 615.230469 622.242188 602.472656 622.785156 600.066406 622.882812 C 580.4375 623.714844 570.707031 623.546875 551.9375 623.367188 C 551.203125 623.351562 526.300781 622.664062 515.027344 622.386719 C 513.058594 622.339844 490.9375 621.792969 490.570312 621.613281 C 488.40625 620.65625 486.933594 618.511719 484.800781 617.578125 C 486.6875 616.199219 487.691406 613.785156 489.574219 612.40625 C 489.960938 612.121094 532.296875 602 555.910156 596.929688 C 582.671875 591.125 599.042969 587.417969 610.402344 584.503906 Z M 259.597656 317.386719 C 275.847656 334.160156 293.867188 344.738281 316.597656 347.4375 C 333.855469 349.46875 352.882812 348.941406 366.214844 333.449219 C 384.550781 312.152344 381.449219 269.46875 326.152344 281.089844 C 304.515625 285.632812 277.015625 297.863281 259.597656 317.386719 Z M 259.597656 317.386719 Z M 259.597656 317.386719 " fill-opacity="1" fill-rule="evenodd"/></g></g></g></g><g clip-path="url(#50068f5187)"><g clip-path="url(#0b955f4810)"><g clip-path="url(#0171d9c0ad)"><g clip-path="url(#6319e4cbc0)"><path fill="#ececec" d="M 623.421875 597.523438 C 620.734375 595.035156 616.941406 591.1875 609.617188 584.6875 C 517.964844 503.457031 454.890625 527.375 361.128906 509.421875 C 348.550781 507.019531 331.816406 502.394531 319.398438 497.71875 C 312.390625 495.078125 244.695312 471.910156 222.015625 411.761719 C 209.949219 379.808594 214.371094 346.132812 234.472656 318.347656 C 210.199219 281.296875 188.78125 232.011719 158.40625 176.996094 C 137.613281 139.390625 122.695312 117.3125 122.667969 117.042969 C 122.285156 115.265625 121.210938 113.472656 121.5625 111.667969 C 121.5625 111.617188 124.652344 107.023438 124.652344 107.023438 C 126.460938 106.664062 128.253906 105.628906 130.003906 105.984375 C 131.832031 106.324219 133.289062 107.730469 134.644531 108.988281 C 135.347656 109.644531 145.289062 124.628906 146.203125 125.976562 C 192.910156 196.464844 220.671875 258.667969 249.566406 301.34375 C 267.410156 284.800781 292.070312 271.558594 323.382812 263.910156 C 414.054688 241.738281 439.851562 319.273438 401.875 363.386719 C 377.433594 391.792969 342.976562 387.703125 337.246094 387.300781 C 304.429688 384.890625 280.238281 371.792969 259.765625 350.699219 C 257.070312 357.464844 255.542969 364.820312 255.59375 372.707031 C 255.722656 407.757812 291.191406 448.082031 367.933594 460.648438 C 407.871094 467.148438 417.863281 465.949219 459.820312 469.328125 C 517.792969 473.976562 580.160156 485.234375 655.738281 556.15625 C 655.167969 552.605469 654.441406 548.609375 653.625 544.195312 L 653.605469 544.171875 C 645.980469 502.394531 633.488281 457.234375 627.628906 439.023438 C 626.863281 436.722656 626.46875 436.667969 627.300781 434.375 C 627.296875 434.328125 630.683594 430.84375 630.707031 430.816406 C 632.179688 430.800781 633.746094 430.296875 635.128906 430.816406 C 636.636719 431.371094 637.75 432.722656 638.855469 433.875 C 639.308594 434.328125 680.742188 502.660156 695.113281 559.453125 C 696.464844 564.886719 699.621094 579.566406 699.082031 590.464844 C 697.929688 614.484375 683.4375 619.976562 675.175781 623.816406 C 662.175781 629.886719 645.402344 632.53125 642.765625 632.957031 C 628.25 635.261719 615.488281 635.804688 613.085938 635.902344 C 593.457031 636.734375 583.726562 636.566406 564.957031 636.386719 C 564.222656 636.367188 539.320312 635.683594 528.042969 635.40625 C 526.078125 635.359375 503.957031 634.8125 503.589844 634.632812 C 501.425781 633.675781 499.953125 631.53125 497.820312 630.597656 C 499.707031 629.214844 500.710938 626.804688 502.59375 625.425781 C 502.980469 625.140625 545.316406 615.015625 568.925781 609.949219 C 595.691406 604.140625 612.0625 600.4375 623.421875 597.523438 Z M 272.617188 330.40625 C 288.867188 347.179688 306.886719 357.757812 329.617188 360.453125 C 346.875 362.488281 365.902344 361.960938 379.234375 346.46875 C 397.570312 325.171875 394.464844 282.488281 339.171875 294.109375 C 317.535156 298.652344 290.03125 310.878906 272.617188 330.40625 Z M 272.617188 330.40625 Z M 272.617188 330.40625 " fill-opacity="1" fill-rule="evenodd"/></g></g></g></g></svg>