<?xml version="1.0" encoding="UTF-8"?>
<!DOCTYPE svg PUBLIC "-//W3C//DTD SVG 1.1//EN" "http://www.w3.org/Graphics/SVG/1.1/DTD/svg11.dtd">
<!-- Creator: CorelDRAW -->
<svg xmlns="http://www.w3.org/2000/svg" xml:space="preserve" width="1080px" height="1920px" version="1.1" style="shape-rendering:geometricPrecision; text-rendering:geometricPrecision; image-rendering:optimizeQuality; fill-rule:evenodd; clip-rule:evenodd"
viewBox="0 0 130424.7 34321.2"
 xmlns:xlink="http://www.w3.org/1999/xlink"
 xmlns:xodm="http://www.corel.com/coreldraw/odm/2003">
 <defs>
  <style type="text/css">
   <![CDATA[
    .fil0 {fill:#05A3D4;fill-rule:nonzero}
   ]]>
  </style>
 </defs>
 <g id="Layer_x0020_1">
  <metadata id="CorelCorpID_0Corel-Layer"/>
  <path class="fil0" d="M130398.8 13493.7c-173,-787.3 -969.2,-1384.5 -1524.5,-1909 -468.9,-442.9 -943.5,-880.6 -1423,-1312.3 -958.6,-863.3 -1937.5,-1703.9 -2932.1,-2525.6 -1990.6,-1642.5 -4046,-3205.5 -6142.6,-4710.2 -188.7,-135.6 -377.7,-270.5 -567.2,-405.2 -1164.5,-827 -2340.2,-1637.3 -3524.7,-2434.9 -44.3,-29.8 -91,-56.5 -139.7,-78.8 -48.3,-27.9 -98.2,-51.1 -149.4,-67.5 -475.8,-153.4 -1177.9,44.6 -1312.9,600.7 -636.2,2615.5 -1272.3,5230.9 -1908.2,7846.1 -7595.2,-1308.5 -15344.3,-1320.8 -22951,-78.2 -7659.9,1251 -15117.3,3813.7 -21915.3,7562.6 -6265.9,3455.6 -12469.1,8360 -19879.1,8821.3 -707.5,44.3 -1420.9,50.9 -2132.1,15.2 578.5,-538 1117.3,-1122.4 1608,-1755.5 2188.5,-2824.7 3301.8,-6587.7 2152.7,-10075.1 -1077.5,-3269.4 -3881.6,-6240.5 -7392.8,-6771.2 -3085.3,-466.7 -5935.2,934 -7642.8,3504.3 -1583.5,2383.2 -2027.9,5451.8 -1507.2,8232.3 585,3122.7 2691.3,5644.6 5412.9,7200.3 449.5,256.8 912.4,486.9 1386,691.5 -1930.2,748.6 -4020.6,1116 -6081.1,1215.2 -3633.6,174.2 -7401.2,-261.7 -10911.4,-1218.1 -341.6,-92.8 -684.3,-193.6 -1026,-302.5 567.7,-648.7 1093.4,-1330.1 1568.9,-2042.9 2128.4,-3191.7 2942.8,-7256.2 1006.9,-10736.1 -1651.9,-2969.5 -5162.4,-4744 -8424.5,-3323.8 -2704.5,1178 -4142.3,4163.2 -4442,6959.6 -348.4,3248.8 1161.8,6213.6 3642,8257.9 772.1,636.8 1602.3,1183.8 2472.7,1656.2 -50.6,41.7 -100.8,83.8 -151.7,125.2 -2722.4,2235.7 -5967.7,3847.9 -9367.6,4751 -1662.4,441.6 -3353.9,707 -5072,792.1 -1499.3,74.1 -1508.4,2415.9 0,2341.1 4002.4,-197.7 7917.5,-1270.8 11464.9,-3135.5 1947.5,-1023.5 3826.3,-2298 5484.7,-3800.5 1611.7,610.1 3303.1,1030.4 4989.5,1332.3 4199.2,751.7 8591.6,1075.7 12794.4,174.5 1870.6,-400.8 3674.3,-1084 5308,-2045.7 1807.5,353.3 3677.6,419.9 5491.7,250.4 3946.8,-368.7 7625.9,-1856.1 11101.9,-3701.4 3706.5,-1967.9 7195.7,-4318.8 10926.3,-6244 3671.3,-1894.2 7519.3,-3422 11481.4,-4588.3 7901.2,-2325.1 16202.9,-3186.4 24413,-2513.8 1890.1,154.7 3769.2,396.4 5637.6,720 -290.3,1195.5 -581.6,2391.3 -872.2,3586.8 -291.9,1200.3 -583.8,2400.2 -875.4,3600.4 -28.5,116.1 -49.6,226.3 -54.9,334.9 -23.5,115.8 -23.9,238.5 4,364.1 112.7,511.9 625.9,964.4 1181.4,830.5 5197,-1252.1 10394.3,-2504.1 15591.2,-3756.1 1230.7,-296.6 2487.1,-604.8 3731.3,-890.4 681.7,-156.3 1670.4,-441.9 1472,-1343.9zm-117172.3 7784.7c-791.6,-1063.7 -1228.4,-2188.9 -1310.7,-3358.7 -90.1,-1279 67.5,-2345.8 578.8,-3568.3 -11.3,31.4 101.4,-215.5 120.3,-253.9 62.7,-128.3 129,-255.4 198.6,-380.7 149.7,-267.4 314.5,-529.5 498.4,-775 1.3,2.9 155.1,-186.4 179.2,-213.6 90.5,-102.7 183.6,-202.8 280.3,-299.5 248,-247 384.5,-360.6 559.6,-480.8 931.9,-638.4 1848.7,-868.9 2991.5,-588.5 2773.8,680.4 4245.5,3931.5 3887.2,6616.2 -343,2570.2 -1845.9,4801.8 -3659.1,6654.5 -1677.8,-787.1 -3212.4,-1858.6 -4324.1,-3351.7zm24030.7 1581.9c-1158.7,-731.7 -2206.5,-1722.1 -2853.9,-2773.6 -161.1,-262.1 -302.4,-533.3 -437.3,-809.4 -95.1,-194.7 -39.5,-71.7 -101.7,-227.7 -60.5,-152.8 -116.5,-306.9 -167.9,-462.6 -97.3,-292.8 -180.5,-590.4 -248.3,-891.6 -32.3,-141.3 -61.2,-282.6 -86.5,-425.1 -15.2,-81.2 -28.6,-162.8 -41.2,-244.4 -7.3,-47.8 -11,-72.2 -13.5,-83.8 1.5,8.1 3.4,12.3 -1.9,-35.2 -143.4,-1313.8 -66.8,-2376.6 247.4,-3555.5 164.7,-617.3 332.6,-1070.5 560.2,-1527.1 123,-247.4 257.7,-489.1 404,-723.8 82.8,-132.9 168.8,-262.8 259.1,-390.5 33.7,-47.4 68.2,-94.8 103.1,-141.5 11.5,-15.4 17.2,-23.6 20,-27.4 8.4,-9.7 23.2,-27 47.1,-55.5 185.2,-220.7 379.4,-432.5 588.5,-631.5 265.8,-253 315.8,-294.4 513.8,-433.5 234.1,-164.8 479.6,-313.8 734.5,-445.3 111.1,-57.2 223.7,-113 339.2,-162.6 -48.7,23.6 292.5,-99.5 349.4,-117.7 1214,-382 2518.7,-315.7 3728.3,201.8 2629,1124 4516.2,3992.7 4586.5,6815 77.2,3121.9 -1721.2,5946.7 -4039.1,7899.9 -314.8,265.1 -641.9,512.2 -978,742.5 -1233.7,-319.4 -2420.1,-804.7 -3511.8,-1493.9zm76369.6 -6441.1c-952.9,229.7 -1906,459.2 -2859,688.9 984.7,-4047.9 1968.9,-8095.8 2953.5,-12143.7 186.7,-767.7 372.8,-1534.8 559.6,-2302.2 3753.2,2569.3 7416.6,5279.2 10849.3,8265 519.8,452.3 1033.9,910.5 1542,1375.7 136.3,124.9 271.8,250.1 407.5,375.6 57.7,54 115.8,108.3 173.5,162.3 13.2,11.9 40.2,37 65,60.6 61.8,58 123.3,116.8 184.8,175.4 -4625.4,1114 -9250.7,2227.9 -13876.2,3342.4zm0 0z"/>
 </g>
</svg>
